# Blender 4.3.2
# www.blender.org
o Screenblock
v 0.028529 0.026540 -0.044313
v 0.028870 0.026540 -0.044454
v 0.028587 0.026740 -0.044654
v 0.028353 0.026540 -0.044137
v 0.028012 0.026740 -0.044079
v 0.028212 0.026540 -0.043796
v 0.028508 0.026540 -0.072082
v 0.028366 0.026540 -0.072424
v 0.028166 0.026740 -0.072141
v 0.028683 0.026540 -0.071907
v 0.028742 0.026740 -0.071566
v 0.029024 0.026540 -0.071766
v 0.021792 0.026540 -0.042899
v 0.021992 0.026540 -0.042699
v 0.021992 0.026740 -0.042899
v 0.021786 0.026540 -0.073318
v 0.021986 0.026740 -0.073318
v 0.021986 0.026540 -0.073518
v 0.028166 0.026540 -0.073519
v 0.028166 0.026740 -0.073319
v 0.028366 0.026540 -0.073319
v 0.028012 0.026540 -0.042700
v 0.028212 0.026540 -0.042900
v 0.028012 0.026740 -0.042900
v 0.029639 0.026540 -0.044454
v 0.029839 0.026540 -0.044654
v 0.029639 0.026740 -0.044654
v 0.029564 0.026540 -0.071766
v 0.029564 0.026740 -0.071566
v 0.029764 0.026540 -0.071566
v 0.028529 0.025335 -0.044312
v 0.028587 0.025135 -0.044654
v 0.028870 0.025335 -0.044454
v 0.028354 0.025335 -0.044137
v 0.028212 0.025335 -0.043796
v 0.028012 0.025135 -0.044078
v 0.028508 0.025335 -0.072082
v 0.028167 0.025135 -0.072140
v 0.028367 0.025335 -0.072423
v 0.028683 0.025335 -0.071907
v 0.029025 0.025335 -0.071765
v 0.028742 0.025135 -0.071565
v 0.021793 0.025335 -0.042899
v 0.021993 0.025135 -0.042899
v 0.021993 0.025335 -0.042699
v 0.021787 0.025335 -0.073317
v 0.021987 0.025335 -0.073517
v 0.021987 0.025135 -0.073317
v 0.028166 0.025335 -0.073519
v 0.028366 0.025335 -0.073319
v 0.028166 0.025135 -0.073319
v 0.028012 0.025335 -0.042700
v 0.028012 0.025135 -0.042900
v 0.028212 0.025335 -0.042900
v 0.029640 0.025335 -0.044454
v 0.029639 0.025135 -0.044654
v 0.029839 0.025335 -0.044654
v 0.029564 0.025335 -0.071765
v 0.029765 0.025335 -0.071565
v 0.029565 0.025135 -0.071565
s 0
f 25 2 33 55
f 12 28 58 41
f 18 19 49 47
f 21 8 39 50
f 7 10 40 37
f 6 23 54 35
f 22 14 45 52
f 32 36 53 44 48 51 38 42 60 56
f 13 16 46 43
f 30 26 57 59
f 3 27 29 11 9 20 17 15 24 5
f 1 2 3
f 4 5 6
f 7 8 9
f 10 11 12
f 13 14 15
f 16 17 18
f 19 20 21
f 22 23 24
f 25 26 27
f 28 29 30
f 31 32 33
f 34 35 36
f 37 38 39
f 40 41 42
f 43 44 45
f 46 47 48
f 49 50 51
f 52 53 54
f 55 56 57
f 58 59 60
f 3 5 4 1
f 9 11 10 7
f 15 17 16 13
f 17 20 19 18
f 24 15 14 22
f 27 3 2 25
f 11 29 28 12
f 20 9 8 21
f 5 24 23 6
f 26 30 29 27
f 31 34 36 32
f 37 40 42 38
f 43 46 48 44
f 47 49 51 48
f 52 45 44 53
f 55 33 32 56
f 41 58 60 42
f 50 39 38 51
f 35 54 53 36
f 56 60 59 57
f 7 37 39 8
f 49 19 21 50
f 13 43 45 14
f 54 23 22 52
f 12 41 40 10
f 34 4 6 35
f 1 31 33 2
f 57 26 25 55
f 18 47 46 16
f 58 28 30 59
f 1 4 34 31
