<?xml version="1.0" encoding="UTF-8" standalone="no"?>
<!DOCTYPE svg PUBLIC "-//W3C//DTD SVG 1.1//EN" "http://www.w3.org/Graphics/SVG/1.1/DTD/svg11.dtd">
<svg width="100%" height="100%" viewBox="0 0 473 119" version="1.1" xmlns="http://www.w3.org/2000/svg" xmlns:xlink="http://www.w3.org/1999/xlink" xml:space="preserve" xmlns:serif="http://www.serif.com/" style="fill-rule:evenodd;clip-rule:evenodd;stroke-linejoin:round;stroke-miterlimit:2;">
    <g transform="matrix(1,0,0,1,-27.7516,-17.8125)">
        <path d="M69.722,77.093L76.097,77.093L79.097,63.893L72.722,63.893L69.722,77.093ZM79.997,89.843L66.722,89.843L63.797,103.118L50.522,103.118L60.722,57.068L68.822,50.618L88.922,50.618L94.022,57.068L88.097,83.468L79.997,89.843Z" style="fill-rule:nonzero;"/>
        <path d="M109.997,70.268L116.372,70.268L121.097,50.618L134.297,50.618L122.372,103.118L109.097,103.118L113.372,83.468L106.997,83.468L102.347,103.118L89.072,103.118L101.072,50.618L114.272,50.618L109.997,70.268Z" style="fill-rule:nonzero;"/>
        <path d="M142.547,103.118L129.347,103.118L139.547,56.993L148.097,50.618L167.747,50.618L172.847,56.993L162.572,103.118L149.372,103.118L152.372,89.843L145.547,89.843L142.547,103.118ZM155.372,77.093L157.922,63.893L151.547,63.893L148.547,77.093L155.372,77.093Z" style="fill-rule:nonzero;"/>
        <path d="M196.397,63.893L190.022,63.893L181.097,103.118L167.897,103.118L178.097,56.993L186.197,50.618L206.297,50.618L211.397,56.993L200.747,103.118L187.547,103.118L196.397,63.893Z" style="fill-rule:nonzero;"/>
        <path d="M217.697,50.618L250.997,50.618L247.922,63.893L238.172,63.893L229.247,103.118L216.047,103.118L224.972,63.893L214.697,63.893L217.697,50.618Z" style="fill-rule:nonzero;"/>
        <path d="M260.597,89.918L267.422,89.918L273.422,63.818L266.597,63.818L260.597,89.918ZM251.147,103.118L246.047,96.743L255.047,56.993L263.147,50.618L282.797,50.618L287.897,56.993L278.972,96.743L270.872,103.118L251.147,103.118Z" style="fill-rule:nonzero;"/>
        <path d="M282.947,103.118L293.147,56.993L301.247,50.618L314.522,50.618L319.622,56.993L327.722,50.618L340.997,50.618L346.097,56.993L335.822,103.118L322.622,103.118L331.622,63.818L324.797,63.818L315.797,103.118L302.522,103.118L311.522,63.818L305.147,63.818L296.147,103.118L282.947,103.118Z" style="fill-rule:nonzero;"/>
        <path d="M341.147,96.743L350.072,56.918L358.172,50.618L377.822,50.618L382.997,56.918L379.922,70.193L366.797,70.193L368.447,63.893L361.622,63.893L356.072,89.918L362.522,89.918L363.797,83.543L360.722,83.543L362.147,77.018L378.722,77.018L374.522,96.743L366.422,103.118L346.247,103.118L341.147,96.743Z" style="fill-rule:nonzero;"/>
        <path d="M395.222,83.543L390.497,103.118L377.297,103.118L389.222,50.618L415.697,50.618L420.797,57.068L417.872,70.268L409.697,77.093L414.872,83.543L411.797,96.743L403.772,103.118L397.322,103.118L401.597,83.543L395.222,83.543ZM399.497,63.818L398.222,70.268L404.597,70.268L406.322,63.818L399.497,63.818Z" style="fill-rule:nonzero;"/>
        <path d="M440.297,50.618L428.297,103.118L415.097,103.118L427.022,50.618L440.297,50.618Z" style="fill-rule:nonzero;"/>
        <path d="M460.322,103.118L433.847,103.118L445.847,50.618L472.247,50.618L477.422,56.993L468.422,96.743L460.322,103.118ZM456.047,63.818L450.047,89.918L456.872,89.918L462.872,63.818L456.047,63.818Z" style="fill-rule:nonzero;"/>
    </g>
</svg>
