<?xml version="1.0" encoding="UTF-8" standalone="no"?>
<!DOCTYPE svg PUBLIC "-//W3C//DTD SVG 1.1//EN" "http://www.w3.org/Graphics/SVG/1.1/DTD/svg11.dtd">
<svg width="100%" height="100%" viewBox="0 0 420 596" version="1.1" xmlns="http://www.w3.org/2000/svg" xmlns:xlink="http://www.w3.org/1999/xlink" xml:space="preserve" xmlns:serif="http://www.serif.com/" style="fill-rule:evenodd;clip-rule:evenodd;stroke-linecap:round;stroke-linejoin:round;">
    <rect id="Page-1" serif:id="Page 1" x="0" y="0" width="419.528" height="595.276" style="fill:none;"/>
    <g id="Page-11" serif:id="Page 1">
        <g transform="matrix(1,0,0,1,108.052,155.949)">
            <path d="M0,-0.651L-1.964,-0.325L-3.929,0" style="fill:none;fill-rule:nonzero;stroke:black;stroke-width:1.5px;"/>
        </g>
        <g transform="matrix(1,0,0,1,255.728,144.552)">
            <path d="M0,0.227L-0.885,0.115L-1.766,0" style="fill:none;fill-rule:nonzero;stroke:black;stroke-width:0.75px;"/>
        </g>
        <g transform="matrix(-0.135901,-0.990722,-0.990722,0.135901,297.397,308.048)">
            <path d="M-2.637,2.3L2.006,2.3" style="fill:none;fill-rule:nonzero;stroke:black;stroke-width:1.5px;"/>
        </g>
        <g transform="matrix(-0.0929237,0.995673,0.995673,0.0929237,142.559,310.227)">
            <path d="M-2.517,-2.293L2.089,-2.293" style="fill:none;fill-rule:nonzero;stroke:black;stroke-width:1.5px;"/>
        </g>
        <g transform="matrix(0.211807,-0.977311,-0.977311,-0.211807,177.027,401.893)">
            <path d="M-57.365,71.129L88.196,71.129" style="fill:none;fill-rule:nonzero;stroke:black;stroke-width:1.5px;"/>
        </g>
        <g transform="matrix(-0.129583,-0.991569,-0.991569,0.129583,168.81,237.045)">
            <path d="M-57.528,50.5L44.329,50.5" style="fill:none;fill-rule:nonzero;stroke:black;stroke-width:1.5px;"/>
        </g>
        <g transform="matrix(0.194241,0.980954,0.980954,-0.194241,176.751,238.375)">
            <path d="M-40.122,-48.846L59.466,-48.846" style="fill:none;fill-rule:nonzero;stroke:black;stroke-width:0.75px;"/>
        </g>
        <g transform="matrix(-0.262085,0.965045,0.965045,0.262085,183.55,411.917)">
            <path d="M-90.713,-69.363L53.038,-69.363" style="fill:none;fill-rule:nonzero;stroke:black;stroke-width:0.75px;"/>
        </g>
        <g transform="matrix(-0.963887,-0.266311,-0.266311,0.963887,95.7632,441.949)">
            <path d="M-7.489,1.015L0.138,1.015" style="fill:none;fill-rule:nonzero;stroke:black;stroke-width:1.5px;"/>
        </g>
        <g transform="matrix(0.193811,0.981039,0.981039,-0.193811,176.84,240.442)">
            <path d="M-34.719,-42.249L51.412,-42.249" style="fill:none;fill-rule:nonzero;stroke:black;stroke-width:1.5px;"/>
        </g>
        <g transform="matrix(-0.913028,0.407897,0.407897,0.913028,103.516,446.024)">
            <path d="M-6.256,-1.334L0.284,-1.334" style="fill:none;fill-rule:nonzero;stroke:black;stroke-width:1.5px;"/>
        </g>
        <g transform="matrix(-0.263531,0.964651,0.964651,0.263531,175.712,415.063)">
            <path d="M-75.307,-57.494L43.894,-57.494" style="fill:none;fill-rule:nonzero;stroke:black;stroke-width:1.5px;"/>
        </g>
        <g transform="matrix(-0.0172123,0.999852,0.999852,0.0172123,280.137,382.728)">
            <path d="M-43.378,-42.637L41.91,-42.637" style="fill:none;fill-rule:nonzero;stroke:black;stroke-width:0.75px;"/>
        </g>
        <g transform="matrix(-0.113749,0.993509,0.993509,0.113749,296.02,250.122)">
            <path d="M-57.651,-51.427L45.875,-51.427" style="fill:none;fill-rule:nonzero;stroke:black;stroke-width:0.75px;"/>
        </g>
        <g transform="matrix(0.100782,-0.994909,-0.994909,-0.100782,298.611,247.478)">
            <path d="M-46.829,51.812L57.326,51.812" style="fill:none;fill-rule:nonzero;stroke:black;stroke-width:1.5px;"/>
        </g>
        <g transform="matrix(0.0284124,-0.999596,-0.999596,-0.0284124,280.404,382.188)">
            <path d="M-39.701,40.846L42.023,40.846" style="fill:none;fill-rule:nonzero;stroke:black;stroke-width:1.5px;"/>
        </g>
        <g transform="matrix(0.0295074,-0.999565,-0.999565,-0.0295074,243,289.564)">
            <path d="M-0.658,0.678L0.698,0.678" style="fill:none;fill-rule:nonzero;stroke:black;stroke-width:0.75px;"/>
        </g>
        <g transform="matrix(0.462509,-0.886615,-0.886615,-0.462509,238.643,423.779)">
            <path d="M-0.966,1.593L2.628,1.593" style="fill:none;fill-rule:nonzero;stroke:black;stroke-width:1.5px;"/>
        </g>
        <g transform="matrix(-0.113456,0.993543,0.993543,0.113456,279.833,253.819)">
            <path d="M-50.528,-45.086L40.231,-45.086" style="fill:none;fill-rule:nonzero;stroke:black;stroke-width:1.5px;"/>
        </g>
        <g transform="matrix(0.987773,0.155899,0.155899,-0.987773,228.195,421.844)">
            <path d="M-0.054,-0.691L8.804,-0.691" style="fill:none;fill-rule:nonzero;stroke:black;stroke-width:1.5px;"/>
        </g>
        <g transform="matrix(-0.0134087,0.99991,0.99991,0.0134087,269.928,382.276)">
            <path d="M-41.908,-41.35L40.799,-41.35" style="fill:none;fill-rule:nonzero;stroke:black;stroke-width:1.5px;"/>
        </g>
        <g transform="matrix(1,0,0,1,108.058,169.582)">
            <path d="M0,-14.232L-0.533,-14.175L-2.1,-13.53L-3.044,-12.843L-3.893,-11.949L-4.622,-10.855L-4.956,-10.194L-5.243,-9.495L-5.486,-8.754L-5.785,-7.474L-5.957,-6.124L-6.006,-4.623L-5.915,-3.091L-5.684,-1.538L-5.318,0" style="fill:none;fill-rule:nonzero;stroke:black;stroke-width:0.75px;"/>
        </g>
        <g transform="matrix(-0.994385,0.105821,0.105821,0.994385,108.067,155.412)">
            <path d="M-1.187,-0.063L0.003,-0.063" style="fill:none;fill-rule:nonzero;stroke:black;stroke-width:1.5px;"/>
        </g>
        <g transform="matrix(1,0,0,1,104.137,170.195)">
            <path d="M0,-14.198L-0.495,-14.149L-2.13,-13.505L-3.117,-12.822L-4.006,-11.929L-4.772,-10.837L-5.123,-10.178L-5.424,-9.479L-5.682,-8.742L-5.999,-7.463L-6.187,-6.115L-6.246,-4.618L-6.158,-3.086L-5.925,-1.536L-5.548,0" style="fill:none;fill-rule:nonzero;stroke:black;stroke-width:1.5px;"/>
        </g>
        <g transform="matrix(1,0,0,1,102.74,213.451)">
            <path d="M0,-43.869L1.399,-39.327L3.008,-34.821L4.841,-30.355L6.775,-26.23L8.892,-22.244L11.185,-18.426L14.115,-14.157L17.28,-10.17L20.693,-6.461L24.339,-3.064L28.204,0" style="fill:none;fill-rule:nonzero;stroke:black;stroke-width:0.75px;"/>
        </g>
        <g transform="matrix(1,0,0,1,98.5894,213.976)">
            <path d="M0,-43.781L1.437,-39.244L3.094,-34.742L4.985,-30.281L6.98,-26.16L9.168,-22.181L11.537,-18.371L14.569,-14.111L17.844,-10.133L21.377,-6.435L25.151,-3.052L29.157,0" style="fill:none;fill-rule:nonzero;stroke:black;stroke-width:1.5px;"/>
        </g>
        <g transform="matrix(1,0,0,1,232.787,156.834)">
            <path d="M0,47.669L4.501,43.942L8.775,39.94L12.793,35.688L16.517,31.226L19.952,26.545L22.613,22.426L25.024,18.187L27.166,13.852L29.105,9.22L30.688,4.603L31.924,0" style="fill:none;fill-rule:nonzero;stroke:black;stroke-width:0.75px;"/>
        </g>
        <g transform="matrix(1,0,0,1,130.944,217.893)">
            <path d="M0,-4.442L4.125,-1.655L8.392,0.809L12.9,2.995L17.631,4.876L22.478,6.4L27.578,7.6L32.769,8.423L38.101,8.875L43.558,8.948L49.068,8.638L54.619,7.944L60.195,6.873L65.732,5.439L71.214,3.66L76.681,1.522L81.952,-0.892L87.172,-3.634L92.222,-6.637L97.082,-9.87L101.843,-13.39" style="fill:none;fill-rule:nonzero;stroke:black;stroke-width:0.75px;"/>
        </g>
        <g transform="matrix(1,0,0,1,109.241,144.716)">
            <path d="M0,10.508L2.381,10.571L4.862,10.614L7.441,10.637L10.115,10.641L12.88,10.628L15.731,10.594L18.667,10.541L21.685,10.47L24.78,10.382L27.948,10.275L31.189,10.149L34.496,10.006L37.867,9.844L41.298,9.666L44.789,9.47L48.329,9.258L51.922,9.029L55.56,8.782L59.242,8.52L62.961,8.241L66.718,7.947L70.505,7.639L74.323,7.315L78.164,6.976L82.026,6.623L85.907,6.257L89.802,5.877L93.706,5.483L97.618,5.076L101.535,4.656L105.449,4.224L109.36,3.783L113.263,3.329L117.155,2.863L121.031,2.387L124.891,1.902L128.729,1.406L132.538,0.903L136.32,0.389L140.068,-0.133" style="fill:none;fill-rule:nonzero;stroke:black;stroke-width:1.5px;"/>
        </g>
        <g transform="matrix(-0.983913,-0.178651,-0.178651,0.983913,249.39,143.848)">
            <path d="M-6.374,-0.246L-5.624,-0.246L-4.521,-0.164L-2.825,0.065L-0.052,0.738" style="fill:none;fill-rule:nonzero;stroke:black;stroke-width:1.5px;"/>
        </g>
        <g transform="matrix(1,0,0,1,264.711,144.897)">
            <path d="M0,11.937L0.225,10.409L0.187,8.897L-0.106,7.426L-0.655,6.019L-1.124,5.182L-1.683,4.388L-2.332,3.631L-3.357,2.683L-4.528,1.835L-6.16,0.948L-7.918,0.274L-9.006,0" style="fill:none;fill-rule:nonzero;stroke:black;stroke-width:0.75px;"/>
        </g>
        <g transform="matrix(-0.953704,-0.300746,-0.300746,0.953704,232.829,204.418)">
            <path d="M-0.607,0.094L0.014,0.094" style="fill:none;fill-rule:nonzero;stroke:black;stroke-width:0.75px;"/>
        </g>
        <g transform="matrix(1,0,0,1,127.747,217.923)">
            <path d="M0,-3.947L4.272,-1.176L8.694,1.273L13.364,3.444L18.267,5.306L23.292,6.814L28.577,7.995L33.958,8.799L39.484,9.232L45.142,9.286L50.856,8.955L56.612,8.243L62.394,7.154L68.14,5.704L73.828,3.906L79.501,1.751L84.97,-0.679L90.392,-3.436L95.637,-6.453L100.684,-9.7L105.633,-13.233" style="fill:none;fill-rule:nonzero;stroke:black;stroke-width:1.5px;"/>
        </g>
        <g transform="matrix(1,0,0,1,233.38,156.958)">
            <path d="M0,47.732L4.679,43.993L9.124,39.979L13.304,35.718L17.183,31.246L20.763,26.558L23.537,22.435L26.056,18.19L28.293,13.852L30.322,9.219L31.984,4.601L33.282,0" style="fill:none;fill-rule:nonzero;stroke:black;stroke-width:1.5px;"/>
        </g>
        <g transform="matrix(1,0,0,1,266.662,144.727)">
            <path d="M0,12.231L0.24,10.704L0.208,9.194L-0.089,7.729L-0.654,6.327L-1.135,5.496L-1.711,4.704L-2.383,3.955L-3.442,3.01L-4.654,2.173L-6.339,1.297L-8.157,0.634L-10.051,0.187L-10.943,0" style="fill:none;fill-rule:nonzero;stroke:black;stroke-width:1.5px;"/>
        </g>
        <g transform="matrix(-0.167149,-0.985932,-0.985932,0.167149,361.804,389.314)">
            <path d="M-82.19,69.429L58.649,69.429" style="fill:none;fill-rule:nonzero;stroke:black;stroke-width:1.5px;"/>
        </g>
        <g transform="matrix(-0.0119536,-0.999929,-0.999929,0.0119536,293.226,330.337)">
            <path d="M-9.947,9.829L9.712,9.829" style="fill:none;fill-rule:nonzero;stroke:black;stroke-width:0.75px;"/>
        </g>
        <g transform="matrix(-0.124171,-0.992261,-0.992261,0.124171,284.696,341.414)">
            <path d="M-1.526,1.347L1.189,1.347" style="fill:none;fill-rule:nonzero;stroke:black;stroke-width:1.5px;"/>
        </g>
        <g transform="matrix(0.997823,0.0659531,0.0659531,-0.997823,288.888,318.058)">
            <path d="M-0.011,-0.321L9.724,-0.321" style="fill:none;fill-rule:nonzero;stroke:black;stroke-width:0.75px;"/>
        </g>
        <g transform="matrix(0.108697,0.994075,0.994075,-0.108697,388.137,383.237)">
            <path d="M-73.574,-82.057L91.519,-82.057" style="fill:none;fill-rule:nonzero;stroke:black;stroke-width:0.75px;"/>
        </g>
        <g transform="matrix(-0.992228,-0.124436,-0.124436,0.992228,307.2,481.37)">
            <path d="M-9.462,0.591L0.037,0.591" style="fill:none;fill-rule:nonzero;stroke:black;stroke-width:1.5px;"/>
        </g>
        <g transform="matrix(-0.77737,0.629044,0.629044,0.77737,300.928,317.557)">
            <path d="M-0.995,-0.352L0.125,-0.352" style="fill:none;fill-rule:nonzero;stroke:black;stroke-width:0.75px;"/>
        </g>
        <g transform="matrix(0.108318,0.994116,0.994116,-0.108318,390.577,380.616)">
            <path d="M-73.232,-81.645L91.024,-81.645" style="fill:none;fill-rule:nonzero;stroke:black;stroke-width:1.5px;"/>
        </g>
        <g transform="matrix(-0.654497,0.756065,0.756065,0.654497,318.196,483.626)">
            <path d="M-3.486,-1.593L0.728,-1.593" style="fill:none;fill-rule:nonzero;stroke:black;stroke-width:1.5px;"/>
        </g>
        <g transform="matrix(-0.776439,0.630192,0.630192,0.776439,298.891,319.217)">
            <path d="M-1.002,-0.356L0.126,-0.355" style="fill:none;fill-rule:nonzero;stroke:black;stroke-width:0.75px;"/>
        </g>
        <g transform="matrix(0.997867,0.0652769,0.0652769,-0.997867,292.552,315.78)">
            <path d="M-0.01,-0.293L8.968,-0.293" style="fill:none;fill-rule:nonzero;stroke:black;stroke-width:1.5px;"/>
        </g>
        <g transform="matrix(-0.0240779,0.99971,0.99971,0.0240779,245.202,424.718)">
            <path d="M-88.147,-86.05L84.002,-86.05" style="fill:none;fill-rule:nonzero;stroke:black;stroke-width:0.75px;"/>
        </g>
        <g transform="matrix(-0.914215,0.40523,0.40523,0.914215,162.427,336.086)">
            <path d="M-8.902,-1.885L0.399,-1.885" style="fill:none;fill-rule:nonzero;stroke:black;stroke-width:0.75px;"/>
        </g>
        <g transform="matrix(-0.0287556,-0.999586,-0.999586,0.0287556,181.553,341.535)">
            <path d="M-11.77,11.437L11.112,11.437" style="fill:none;fill-rule:nonzero;stroke:black;stroke-width:0.75px;"/>
        </g>
        <g transform="matrix(0.0454406,-0.998967,-0.998967,-0.0454406,171.97,355.128)">
            <path d="M-1.313,1.374L1.438,1.374" style="fill:none;fill-rule:nonzero;stroke:black;stroke-width:1.5px;"/>
        </g>
        <g transform="matrix(0.0552614,-0.998472,-0.998472,-0.0552614,239.549,437.902)">
            <path d="M-69.46,73.411L77.586,73.411" style="fill:none;fill-rule:nonzero;stroke:black;stroke-width:1.5px;"/>
        </g>
        <g transform="matrix(0.837864,-0.545879,-0.545879,-0.837864,158.515,507.781)">
            <path d="M-0.509,1.712L5.766,1.713" style="fill:none;fill-rule:nonzero;stroke:black;stroke-width:1.5px;"/>
        </g>
        <g transform="matrix(-0.992168,-0.124915,-0.124915,0.992168,158.693,334.029)">
            <path d="M-2.647,0.166L0.01,0.166" style="fill:none;fill-rule:nonzero;stroke:black;stroke-width:0.75px;"/>
        </g>
        <g transform="matrix(-0.983079,-0.18318,-0.18318,0.983079,148.755,504.242)">
            <path d="M-8.693,0.803L0.074,0.803" style="fill:none;fill-rule:nonzero;stroke:black;stroke-width:1.5px;"/>
        </g>
        <g transform="matrix(-0.0232577,0.99973,0.99973,0.0232577,236.259,423.211)">
            <path d="M-87.817,-85.798L83.825,-85.798" style="fill:none;fill-rule:nonzero;stroke:black;stroke-width:1.5px;"/>
        </g>
        <g transform="matrix(-0.992243,-0.124314,-0.124314,0.992243,152.558,333.26)">
            <path d="M-2.636,0.165L0.01,0.165" style="fill:none;fill-rule:nonzero;stroke:black;stroke-width:0.75px;"/>
        </g>
        <g transform="matrix(-0.992417,-0.122917,-0.122917,0.992417,167.208,330.271)">
            <path d="M-2.634,0.163L0.01,0.163" style="fill:none;fill-rule:nonzero;stroke:black;stroke-width:0.75px;"/>
        </g>
        <g transform="matrix(-0.992354,-0.123427,-0.123427,0.992354,161.106,329.514)">
            <path d="M-2.623,0.162L0.01,0.163" style="fill:none;fill-rule:nonzero;stroke:black;stroke-width:0.75px;"/>
        </g>
        <g transform="matrix(-0.91585,0.401521,0.401521,0.91585,153.639,334.981)">
            <path d="M-8.942,-1.874L0.393,-1.874" style="fill:none;fill-rule:nonzero;stroke:black;stroke-width:1.5px;"/>
        </g>
        <g transform="matrix(1,0,0,1,277.112,326.961)">
            <path d="M0,-9.321L-5.173,-8.05L-10.527,-6.862L-16.089,-5.752L-21.81,-4.73L-27.807,-3.786L-33.949,-2.939L-40.269,-2.193L-46.703,-1.553L-55.613,-0.859L-64.678,-0.37L-73.985,-0.08L-83.371,0" style="fill:none;fill-rule:nonzero;stroke:black;stroke-width:0.75px;"/>
        </g>
        <g transform="matrix(1,0,0,1,193.741,316.859)">
            <path d="M0,10.102L-4.055,10.043L-8.117,9.894L-12.138,9.657L-16.076,9.331L-19.965,8.918L-23.737,8.425L-27.35,7.861L-30.764,7.231L-33.971,6.541L-36.953,5.796L-39.681,5.008L-42.122,4.184L-44.27,3.331L-46.117,2.454L-47.647,1.562L-48.845,0.664L-49.515,0" style="fill:none;fill-rule:nonzero;stroke:black;stroke-width:0.75px;"/>
        </g>
        <g transform="matrix(1,0,0,1,144.226,297.342)">
            <path d="M0,19.517L-1.449,17.656L-2.542,15.813L-3.288,13.989L-3.683,12.188L-3.731,10.358L-3.42,8.549L-2.756,6.765L-1.747,5.005L-0.795,3.738L0.332,2.484L1.642,1.235L3.124,0" style="fill:none;fill-rule:nonzero;stroke:black;stroke-width:1.5px;"/>
        </g>
        <g transform="matrix(1,0,0,1,147.35,287.595)">
            <path d="M0,9.747L1.308,8.863L2.951,8.004L4.906,7.173L7.155,6.38L9.765,5.601L12.665,4.859L15.825,4.16L19.207,3.507L22.799,2.904L26.591,2.348L30.543,1.843L34.62,1.395L38.792,1.005L43.059,0.675L47.379,0.405L51.714,0.202L56.043,0.067L60.359,0L64.617,0.006L68.777,0.086L72.493,0.228L76.106,0.437L79.586,0.711L82.906,1.052" style="fill:none;fill-rule:nonzero;stroke:black;stroke-width:1.5px;"/>
        </g>
        <g transform="matrix(1,0,0,1,230.256,301.149)">
            <path d="M0,-12.502L6.204,-11.742L12.251,-10.919L18.126,-10.03L23.812,-9.072L29.463,-8.015L34.904,-6.877L40.126,-5.659L45.111,-4.363L48.667,-3.344L52.084,-2.279L55.375,-1.162L58.515,0" style="fill:none;fill-rule:nonzero;stroke:black;stroke-width:1.5px;"/>
        </g>
        <g transform="matrix(1,0,0,1,294.866,317.64)">
            <path d="M0,-10.999L-0.108,-9.933L-0.549,-8.848L-1.331,-7.753L-2.447,-6.649L-3.888,-5.56L-5.64,-4.489L-7.703,-3.449L-10.066,-2.441L-12.706,-1.483L-15.596,-0.587L-17.754,0" style="fill:none;fill-rule:nonzero;stroke:black;stroke-width:0.75px;"/>
        </g>
        <g transform="matrix(1,0,0,1,288.771,306.64)">
            <path d="M0,-5.491L1.771,-4.718L3.259,-3.879L4.446,-2.982L5.32,-2.037L5.873,-1.039L6.096,0" style="fill:none;fill-rule:nonzero;stroke:black;stroke-width:1.5px;"/>
        </g>
        <g transform="matrix(1,0,0,1,193.902,322.479)">
            <path d="M0,9.434L6.623,9.398L13.211,9.257L19.799,9.01L26.325,8.66L32.914,8.188L39.409,7.608L45.839,6.914L52.148,6.112L60.429,4.865L68.427,3.431L76.211,1.799L83.642,0" style="fill:none;fill-rule:nonzero;stroke:black;stroke-width:1.5px;"/>
        </g>
        <g transform="matrix(1,0,0,1,143.799,331.913)">
            <path d="M0,-10.333L0.959,-9.414L2.255,-8.498L3.878,-7.592L5.813,-6.703L8.062,-5.837L10.611,-5.001L13.434,-4.204L16.501,-3.457L19.806,-2.767L23.33,-2.136L27.037,-1.575L30.886,-1.09L34.862,-0.69L38.95,-0.378L43.1,-0.155L47.267,-0.03L50.103,0" style="fill:none;fill-rule:nonzero;stroke:black;stroke-width:1.5px;"/>
        </g>
        <g transform="matrix(1,0,0,1,277.544,310.973)">
            <path d="M0,11.506L3.016,10.657L5.807,9.747L8.347,8.784L10.606,7.779L12.625,6.712L14.336,5.612L15.729,4.499L16.789,3.379L17.51,2.262L17.893,1.152L17.939,0.065L17.921,0" style="fill:none;fill-rule:nonzero;stroke:black;stroke-width:1.5px;"/>
        </g>
        <g transform="matrix(1,0,0,1,140.096,321.58)">
            <path d="M0,-9.484L-0.025,-9.349L0.011,-7.493L0.41,-5.615L0.931,-4.231L1.653,-2.835L2.577,-1.421L3.703,0" style="fill:none;fill-rule:nonzero;stroke:black;stroke-width:1.5px;"/>
        </g>
        <g transform="matrix(-0.916247,0.400613,0.400613,0.916247,161.287,329.971)">
            <path d="M-1.708,-0.357L0.075,-0.357" style="fill:none;fill-rule:nonzero;stroke:black;stroke-width:0.75px;"/>
        </g>
        <g transform="matrix(0.914084,-0.405524,-0.405524,-0.914084,169.931,330.934)">
            <path d="M-0.045,0.215L1.012,0.215" style="fill:none;fill-rule:nonzero;stroke:black;stroke-width:0.75px;"/>
        </g>
        <g transform="matrix(1,0,0,1,161.076,330.756)">
            <path d="M0,-1.082L2.613,-0.757L6.102,-0.325L8.726,0" style="fill:none;fill-rule:nonzero;stroke:black;stroke-width:0.75px;"/>
        </g>
        <g transform="matrix(0.992195,0.124696,0.124696,-0.992195,155.194,333.534)">
            <path d="M-0.014,-0.221L3.523,-0.221" style="fill:none;fill-rule:nonzero;stroke:black;stroke-width:0.75px;"/>
        </g>
        <g transform="matrix(0.0286696,0.999589,0.999589,-0.0286696,181.552,341.536)">
            <path d="M-11.113,-11.436L11.769,-11.436" style="fill:none;fill-rule:nonzero;stroke:black;stroke-width:0.75px;"/>
        </g>
        <g transform="matrix(0.906933,-0.421275,-0.421275,-0.906933,174.273,358.357)">
            <path d="M-1.284,5.81L26.302,5.81" style="fill:none;fill-rule:nonzero;stroke:black;stroke-width:1.5px;"/>
        </g>
        <g transform="matrix(0.986476,0.163907,0.163907,-0.986476,140.484,305.835)">
            <path d="M-0.002,-0.027L0.327,-0.027" style="fill:none;fill-rule:nonzero;stroke:black;stroke-width:0.75px;"/>
        </g>
        <g transform="matrix(0.953023,-0.302899,-0.302899,-0.953023,140.505,305.917)">
            <path d="M-0.01,0.062L0.397,0.062" style="fill:none;fill-rule:nonzero;stroke:black;stroke-width:0.75px;"/>
        </g>
        <g transform="matrix(0.776297,-0.630367,-0.630367,-0.776297,299.873,318.57)">
            <path d="M-0.168,0.473L1.333,0.473" style="fill:none;fill-rule:nonzero;stroke:black;stroke-width:0.75px;"/>
        </g>
        <g transform="matrix(0.997484,0.0708959,0.0708959,-0.997484,237.26,335.503)">
            <path d="M-0.058,-1.636L46.08,-1.636" style="fill:none;fill-rule:nonzero;stroke:black;stroke-width:1.5px;"/>
        </g>
        <g transform="matrix(-0.262163,0.965024,0.965024,0.262163,146.863,321.507)">
            <path d="M-13.425,-10.265L7.848,-10.265" style="fill:none;fill-rule:nonzero;stroke:black;stroke-width:0.75px;"/>
        </g>
        <g transform="matrix(0.986116,0.166055,0.166055,-0.986116,135.409,324.4)">
            <path d="M-0.171,-2.048L24.495,-2.048" style="fill:none;fill-rule:nonzero;stroke:black;stroke-width:1.5px;"/>
        </g>
        <g transform="matrix(-0.992832,0.119519,0.119519,0.992832,196.102,344.584)">
            <path d="M-41.076,-2.463L0.148,-2.463" style="fill:none;fill-rule:nonzero;stroke:black;stroke-width:1.5px;"/>
        </g>
        <g transform="matrix(0,1,1,0,240.255,333.856)">
            <path d="M-3.395,-3.395L3.395,-3.395" style="fill:none;fill-rule:nonzero;stroke:black;stroke-width:0.75px;"/>
        </g>
        <g transform="matrix(-0.0349282,-0.99939,-0.99939,0.0349282,200.002,337.335)">
            <path d="M-4.667,4.507L4.352,4.507" style="fill:none;fill-rule:nonzero;stroke:black;stroke-width:0.75px;"/>
        </g>
        <text x="36.85px" y="74.952px" style="font-family:'Arial-BoldMT', 'Arial', sans-serif;font-weight:700;font-size:35px;">N<tspan x="65.147px 95.391px 123.688px 151.984px 184.16px 210.525px 238.821px " y="74.952px 74.952px 74.952px 74.952px 74.952px 74.952px 74.952px ">ORDMYRA</tspan></text>
        <g transform="matrix(1,0,0,1,326.316,558.598)">
            <path d="M0,-0.007C0,-0.32 -0.055,-0.585 -0.164,-0.8C-0.273,-1.015 -0.436,-1.184 -0.652,-1.307C-0.811,-1.397 -0.978,-1.459 -1.154,-1.493C-1.332,-1.528 -1.544,-1.546 -1.791,-1.546L-2.291,-1.546L-2.291,1.54L-1.791,1.54C-1.535,1.54 -1.312,1.52 -1.121,1.483C-0.93,1.445 -0.756,1.376 -0.596,1.273C-0.397,1.146 -0.248,0.979 -0.148,0.771C-0.049,0.564 0,0.304 0,-0.007M0.557,0.001C0.557,0.364 0.477,0.693 0.318,0.989C0.16,1.284 -0.051,1.514 -0.314,1.677C-0.496,1.789 -0.7,1.871 -0.925,1.921C-1.149,1.971 -1.445,1.996 -1.812,1.996L-2.822,1.996L-2.822,-2.003L-1.823,-2.003C-1.434,-2.003 -1.123,-1.975 -0.893,-1.918C-0.662,-1.861 -0.468,-1.784 -0.309,-1.686C-0.037,-1.516 0.176,-1.289 0.328,-1.006C0.48,-0.724 0.557,-0.388 0.557,0.001" style="fill-rule:nonzero;"/>
        </g>
        <g transform="matrix(1,0,0,1,329.854,559.415)">
            <path d="M0,-0.655C-0.002,-0.92 -0.069,-1.125 -0.2,-1.27C-0.332,-1.415 -0.532,-1.488 -0.801,-1.488C-1.071,-1.488 -1.286,-1.408 -1.446,-1.249C-1.606,-1.09 -1.697,-0.891 -1.719,-0.655L0,-0.655ZM0.491,-0.268L-1.719,-0.268C-1.719,-0.084 -1.691,0.076 -1.636,0.214C-1.58,0.351 -1.504,0.463 -1.407,0.551C-1.314,0.637 -1.204,0.701 -1.075,0.744C-0.948,0.787 -0.807,0.809 -0.653,0.809C-0.448,0.809 -0.243,0.768 -0.036,0.687C0.171,0.605 0.317,0.525 0.405,0.445L0.433,0.445L0.433,0.996C0.263,1.069 0.089,1.128 -0.089,1.176C-0.267,1.225 -0.452,1.249 -0.647,1.249C-1.146,1.249 -1.534,1.115 -1.813,0.845C-2.093,0.575 -2.231,0.193 -2.231,-0.303C-2.231,-0.794 -2.099,-1.183 -1.831,-1.471C-1.563,-1.759 -1.21,-1.904 -0.773,-1.904C-0.369,-1.904 -0.058,-1.786 0.162,-1.55C0.382,-1.313 0.491,-0.977 0.491,-0.543L0.491,-0.268Z" style="fill-rule:nonzero;"/>
        </g>
        <g transform="matrix(1,0,0,1,333.441,558.458)">
            <path d="M0,1.272C0,1.545 -0.113,1.77 -0.34,1.946C-0.566,2.122 -0.875,2.208 -1.268,2.208C-1.49,2.208 -1.693,2.182 -1.879,2.129C-2.064,2.077 -2.219,2.019 -2.345,1.957L-2.345,1.39L-2.318,1.39C-2.158,1.51 -1.981,1.605 -1.786,1.676C-1.591,1.747 -1.404,1.782 -1.225,1.782C-1.003,1.782 -0.829,1.747 -0.703,1.674C-0.578,1.603 -0.516,1.49 -0.516,1.336C-0.516,1.218 -0.55,1.128 -0.617,1.068C-0.686,1.006 -0.816,0.955 -1.01,0.912C-1.082,0.896 -1.176,0.876 -1.291,0.855C-1.406,0.833 -1.512,0.811 -1.605,0.786C-1.869,0.715 -2.057,0.614 -2.166,0.478C-2.276,0.343 -2.332,0.177 -2.332,-0.02C-2.332,-0.144 -2.306,-0.26 -2.255,-0.37C-2.203,-0.478 -2.127,-0.576 -2.022,-0.662C-1.922,-0.746 -1.795,-0.813 -1.64,-0.862C-1.484,-0.912 -1.311,-0.936 -1.12,-0.936C-0.941,-0.936 -0.76,-0.914 -0.576,-0.87C-0.393,-0.826 -0.24,-0.773 -0.119,-0.71L-0.119,-0.17L-0.145,-0.17C-0.273,-0.265 -0.431,-0.345 -0.615,-0.411C-0.8,-0.476 -0.98,-0.509 -1.158,-0.509C-1.342,-0.509 -1.498,-0.473 -1.625,-0.403C-1.752,-0.332 -1.816,-0.227 -1.816,-0.087C-1.816,0.037 -1.777,0.129 -1.7,0.192C-1.625,0.254 -1.504,0.306 -1.335,0.345C-1.242,0.367 -1.138,0.388 -1.021,0.41C-0.906,0.431 -0.811,0.451 -0.733,0.468C-0.499,0.522 -0.318,0.615 -0.191,0.746C-0.064,0.877 0,1.053 0,1.272" style="fill-rule:nonzero;"/>
        </g>
        <g transform="matrix(1,0,0,1,0,521.887)">
            <path d="M334.805,38.707L334.3,38.707L334.3,35.707L334.805,35.707L334.805,38.707ZM334.838,35.205L334.269,35.205L334.269,34.682L334.838,34.682L334.838,35.205Z" style="fill-rule:nonzero;"/>
        </g>
        <g transform="matrix(1,0,0,1,337.838,559.471)">
            <path d="M0,0.299L0,-1.337C-0.135,-1.397 -0.26,-1.441 -0.375,-1.467C-0.49,-1.493 -0.605,-1.506 -0.721,-1.506C-0.998,-1.506 -1.216,-1.413 -1.375,-1.226C-1.535,-1.04 -1.614,-0.77 -1.614,-0.416C-1.614,-0.079 -1.555,0.176 -1.437,0.35C-1.318,0.524 -1.123,0.611 -0.85,0.611C-0.702,0.611 -0.555,0.582 -0.407,0.526C-0.26,0.47 -0.123,0.394 0,0.299M0.504,0.782C0.504,1.291 0.389,1.664 0.158,1.903C-0.072,2.141 -0.428,2.259 -0.908,2.259C-1.067,2.259 -1.223,2.248 -1.374,2.226C-1.525,2.203 -1.674,2.172 -1.82,2.13L-1.82,1.615L-1.795,1.615C-1.712,1.647 -1.581,1.687 -1.402,1.735C-1.223,1.781 -1.044,1.806 -0.865,1.806C-0.693,1.806 -0.551,1.785 -0.437,1.743C-0.325,1.702 -0.237,1.646 -0.175,1.572C-0.112,1.502 -0.067,1.418 -0.041,1.32C-0.014,1.221 0,1.111 0,0.989L0,0.715C-0.152,0.837 -0.298,0.928 -0.437,0.988C-0.575,1.048 -0.752,1.077 -0.967,1.077C-1.325,1.077 -1.609,0.948 -1.82,0.69C-2.03,0.431 -2.135,0.067 -2.135,-0.405C-2.135,-0.663 -2.1,-0.885 -2.026,-1.072C-1.954,-1.259 -1.855,-1.421 -1.73,-1.556C-1.613,-1.683 -1.473,-1.783 -1.305,-1.853C-1.139,-1.925 -0.973,-1.96 -0.809,-1.96C-0.635,-1.96 -0.489,-1.942 -0.372,-1.907C-0.255,-1.872 -0.131,-1.819 0,-1.748L0.031,-1.877L0.504,-1.877L0.504,0.782Z" style="fill-rule:nonzero;"/>
        </g>
        <g transform="matrix(1,0,0,1,341.927,557.511)">
            <path d="M0,3.083L-0.505,3.083L-0.505,1.375C-0.505,1.237 -0.513,1.108 -0.528,0.987C-0.545,0.866 -0.574,0.772 -0.617,0.704C-0.662,0.629 -0.727,0.572 -0.811,0.536C-0.896,0.499 -1.004,0.48 -1.139,0.48C-1.276,0.48 -1.421,0.515 -1.571,0.583C-1.722,0.651 -1.865,0.738 -2.003,0.844L-2.003,3.083L-2.508,3.083L-2.508,0.083L-2.003,0.083L-2.003,0.416C-1.846,0.286 -1.683,0.184 -1.515,0.11C-1.347,0.037 -1.173,0 -0.996,0C-0.672,0 -0.425,0.098 -0.255,0.293C-0.085,0.488 0,0.77 0,1.136L0,3.083Z" style="fill-rule:nonzero;"/>
        </g>
        <g transform="matrix(1,0,0,1,346.662,558.343)">
            <path d="M0,1.513L0,0.678C-0.154,0.687 -0.336,0.701 -0.545,0.718C-0.752,0.736 -0.918,0.762 -1.039,0.796C-1.184,0.837 -1.303,0.901 -1.391,0.988C-1.481,1.074 -1.525,1.195 -1.525,1.346C-1.525,1.518 -1.475,1.648 -1.369,1.735C-1.266,1.822 -1.107,1.865 -0.895,1.865C-0.717,1.865 -0.555,1.83 -0.408,1.761C-0.262,1.693 -0.125,1.61 0,1.513M0.502,2.251L0,2.251L0,1.932C-0.045,1.962 -0.105,2.005 -0.182,2.06C-0.258,2.115 -0.332,2.158 -0.402,2.19C-0.486,2.231 -0.584,2.265 -0.693,2.293C-0.803,2.321 -0.93,2.334 -1.076,2.334C-1.348,2.334 -1.576,2.245 -1.764,2.066C-1.953,1.887 -2.047,1.658 -2.047,1.381C-2.047,1.154 -1.998,0.97 -1.9,0.829C-1.803,0.689 -1.664,0.578 -1.482,0.497C-1.301,0.417 -1.08,0.363 -0.824,0.334C-0.568,0.305 -0.293,0.283 0,0.27L0,0.192C0,0.077 -0.02,-0.018 -0.06,-0.094C-0.102,-0.169 -0.158,-0.227 -0.234,-0.27C-0.305,-0.311 -0.391,-0.34 -0.492,-0.353C-0.592,-0.368 -0.697,-0.375 -0.807,-0.375C-0.937,-0.375 -1.086,-0.357 -1.248,-0.323C-1.412,-0.288 -1.58,-0.237 -1.754,-0.171L-1.781,-0.171L-1.781,-0.684C-1.682,-0.711 -1.539,-0.74 -1.354,-0.772C-1.168,-0.804 -0.984,-0.821 -0.803,-0.821C-0.592,-0.821 -0.408,-0.803 -0.252,-0.768C-0.094,-0.733 0.041,-0.674 0.156,-0.59C0.268,-0.508 0.353,-0.401 0.414,-0.27C0.473,-0.139 0.502,0.023 0.502,0.216L0.502,2.251Z" style="fill-rule:nonzero;"/>
        </g>
        <g transform="matrix(1,0,0,1,350.738,557.511)">
            <path d="M0,3.083L-0.506,3.083L-0.506,1.375C-0.506,1.237 -0.514,1.108 -0.529,0.987C-0.545,0.866 -0.574,0.772 -0.617,0.704C-0.662,0.629 -0.727,0.572 -0.811,0.536C-0.897,0.499 -1.004,0.48 -1.139,0.48C-1.277,0.48 -1.422,0.515 -1.572,0.583C-1.723,0.651 -1.865,0.738 -2.004,0.844L-2.004,3.083L-2.508,3.083L-2.508,0.083L-2.004,0.083L-2.004,0.416C-1.846,0.286 -1.684,0.184 -1.516,0.11C-1.348,0.037 -1.174,0 -0.996,0C-0.672,0 -0.426,0.098 -0.256,0.293C-0.086,0.488 0,0.77 0,1.136L0,3.083Z" style="fill-rule:nonzero;"/>
        </g>
        <g transform="matrix(1,0,0,1,353.763,557.236)">
            <path d="M0,2.62L0,0.898C-0.135,0.838 -0.258,0.796 -0.365,0.772C-0.473,0.749 -0.59,0.737 -0.717,0.737C-0.998,0.737 -1.219,0.836 -1.377,1.033C-1.535,1.229 -1.613,1.509 -1.613,1.871C-1.613,2.227 -1.553,2.498 -1.43,2.683C-1.309,2.868 -1.113,2.961 -0.846,2.961C-0.701,2.961 -0.557,2.929 -0.41,2.866C-0.264,2.803 -0.127,2.72 0,2.62M0.506,3.358L0,3.358L0,3.044C-0.145,3.17 -0.295,3.267 -0.453,3.337C-0.611,3.407 -0.781,3.441 -0.967,3.441C-1.324,3.441 -1.607,3.304 -1.818,3.028C-2.029,2.753 -2.135,2.37 -2.135,1.882C-2.135,1.627 -2.098,1.4 -2.025,1.202C-1.953,1.003 -1.855,0.834 -1.73,0.694C-1.609,0.558 -1.467,0.455 -1.305,0.383C-1.143,0.311 -0.977,0.275 -0.803,0.275C-0.645,0.275 -0.504,0.292 -0.383,0.325C-0.262,0.358 -0.133,0.41 0,0.479L0,-0.821L0.506,-0.821L0.506,3.358Z" style="fill-rule:nonzero;"/>
        </g>
        <g transform="matrix(1,0,0,1,360.169,559.566)">
            <path d="M0,-0.97C0,-1.489 -0.117,-1.89 -0.35,-2.171C-0.582,-2.453 -0.9,-2.595 -1.303,-2.595C-1.709,-2.595 -2.027,-2.453 -2.26,-2.171C-2.492,-1.89 -2.607,-1.489 -2.607,-0.97C-2.607,-0.446 -2.49,-0.043 -2.254,0.235C-2.018,0.513 -1.701,0.652 -1.303,0.652C-0.906,0.652 -0.588,0.513 -0.353,0.235C-0.117,-0.043 0,-0.446 0,-0.97M0.633,2.008C0.525,2.035 0.42,2.054 0.315,2.066C0.211,2.078 0.104,2.084 -0.006,2.084C-0.316,2.084 -0.566,1.998 -0.756,1.827C-0.945,1.656 -1.047,1.412 -1.064,1.093C-1.107,1.1 -1.148,1.105 -1.189,1.107C-1.228,1.11 -1.268,1.111 -1.305,1.111C-1.586,1.111 -1.842,1.065 -2.072,0.971C-2.303,0.879 -2.498,0.744 -2.658,0.566C-2.82,0.389 -2.943,0.172 -3.031,-0.086C-3.117,-0.344 -3.162,-0.639 -3.162,-0.97C-3.162,-1.295 -3.119,-1.588 -3.033,-1.847C-2.947,-2.106 -2.82,-2.326 -2.656,-2.511C-2.498,-2.687 -2.303,-2.821 -2.07,-2.914C-1.836,-3.007 -1.582,-3.054 -1.305,-3.054C-1.02,-3.054 -0.762,-3.007 -0.533,-2.912C-0.305,-2.819 -0.111,-2.685 0.049,-2.511C0.211,-2.332 0.336,-2.113 0.422,-1.854C0.51,-1.594 0.553,-1.299 0.553,-0.97C0.553,-0.481 0.453,-0.07 0.254,0.265C0.055,0.6 -0.215,0.835 -0.551,0.969C-0.543,1.174 -0.496,1.332 -0.406,1.444C-0.316,1.557 -0.154,1.614 0.082,1.614C0.156,1.614 0.244,1.602 0.346,1.58C0.445,1.557 0.518,1.538 0.561,1.519L0.633,1.519L0.633,2.008Z" style="fill-rule:nonzero;"/>
        </g>
        <g transform="matrix(1,0,0,1,364.138,557.677)">
            <path d="M0,2.917L-0.504,2.917L-0.504,2.584C-0.674,2.719 -0.838,2.821 -0.992,2.893C-1.148,2.965 -1.32,3 -1.508,3C-1.824,3 -2.068,2.904 -2.244,2.712C-2.42,2.52 -2.508,2.237 -2.508,1.864L-2.508,-0.083L-2.002,-0.083L-2.002,1.625C-2.002,1.777 -1.996,1.908 -1.98,2.017C-1.967,2.125 -1.937,2.217 -1.891,2.294C-1.842,2.373 -1.779,2.431 -1.701,2.466C-1.625,2.502 -1.514,2.52 -1.367,2.52C-1.236,2.52 -1.094,2.485 -0.937,2.418C-0.783,2.35 -0.639,2.263 -0.504,2.157L-0.504,-0.083L0,-0.083L0,2.917Z" style="fill-rule:nonzero;"/>
        </g>
        <g transform="matrix(1,0,0,1,367.054,558.343)">
            <path d="M0,1.513L0,0.678C-0.152,0.687 -0.334,0.701 -0.543,0.718C-0.752,0.736 -0.916,0.762 -1.039,0.796C-1.184,0.837 -1.301,0.901 -1.391,0.988C-1.48,1.074 -1.525,1.195 -1.525,1.346C-1.525,1.518 -1.473,1.648 -1.369,1.735C-1.266,1.822 -1.107,1.865 -0.893,1.865C-0.717,1.865 -0.555,1.83 -0.408,1.761C-0.26,1.693 -0.125,1.61 0,1.513M0.504,2.251L0,2.251L0,1.932C-0.045,1.962 -0.103,2.005 -0.18,2.06C-0.256,2.115 -0.33,2.158 -0.402,2.19C-0.486,2.231 -0.582,2.265 -0.691,2.293C-0.801,2.321 -0.93,2.334 -1.076,2.334C-1.346,2.334 -1.576,2.245 -1.764,2.066C-1.951,1.887 -2.045,1.658 -2.045,1.381C-2.045,1.154 -1.996,0.97 -1.898,0.829C-1.801,0.689 -1.662,0.578 -1.482,0.497C-1.299,0.417 -1.08,0.363 -0.824,0.334C-0.568,0.305 -0.293,0.283 0,0.27L0,0.192C0,0.077 -0.02,-0.018 -0.061,-0.094C-0.1,-0.169 -0.158,-0.227 -0.232,-0.27C-0.305,-0.311 -0.391,-0.34 -0.49,-0.353C-0.592,-0.368 -0.695,-0.375 -0.805,-0.375C-0.937,-0.375 -1.086,-0.357 -1.248,-0.323C-1.41,-0.288 -1.58,-0.237 -1.752,-0.171L-1.779,-0.171L-1.779,-0.684C-1.682,-0.711 -1.539,-0.74 -1.353,-0.772C-1.166,-0.804 -0.982,-0.821 -0.803,-0.821C-0.592,-0.821 -0.406,-0.803 -0.25,-0.768C-0.094,-0.733 0.041,-0.674 0.156,-0.59C0.27,-0.508 0.355,-0.401 0.414,-0.27C0.473,-0.139 0.504,0.023 0.504,0.216L0.504,2.251Z" style="fill-rule:nonzero;"/>
        </g>
        <g transform="matrix(-1,0,0,1,737.748,521.733)">
            <rect x="368.622" y="34.682" width="0.504" height="4.179"/>
        </g>
        <g transform="matrix(1,0,0,1,0,521.887)">
            <path d="M370.714,38.707L370.208,38.707L370.208,35.707L370.714,35.707L370.714,38.707ZM370.745,35.205L370.177,35.205L370.177,34.682L370.745,34.682L370.745,35.205Z" style="fill-rule:nonzero;"/>
        </g>
        <g transform="matrix(1,0,0,1,373.38,556.819)">
            <path d="M0,3.749C-0.096,3.773 -0.199,3.794 -0.311,3.811C-0.422,3.826 -0.521,3.835 -0.609,3.835C-0.916,3.835 -1.148,3.752 -1.309,3.588C-1.467,3.423 -1.547,3.159 -1.547,2.795L-1.547,1.2L-1.889,1.2L-1.889,0.775L-1.547,0.775L-1.547,-0.086L-1.041,-0.086L-1.041,0.775L0,0.775L0,1.2L-1.041,1.2L-1.041,2.567C-1.041,2.725 -1.039,2.848 -1.031,2.937C-1.023,3.025 -0.998,3.107 -0.955,3.185C-0.916,3.257 -0.863,3.309 -0.793,3.342C-0.725,3.375 -0.619,3.392 -0.478,3.392C-0.396,3.392 -0.311,3.38 -0.221,3.355C-0.131,3.331 -0.066,3.31 -0.027,3.295L0,3.295L0,3.749Z" style="fill-rule:nonzero;"/>
        </g>
        <g transform="matrix(1,0,0,1,376.87,561.701)">
            <path d="M0,-4.107L-1.752,0L-2.291,0L-1.732,-1.252L-2.928,-4.107L-2.379,-4.107L-1.459,-1.883L-0.529,-4.107L0,-4.107Z" style="fill-rule:nonzero;"/>
        </g>
        <g transform="matrix(1,0,0,1,329.283,563.096)">
            <path d="M0,3.999L-1.58,3.999L-1.58,3.591L-1.057,3.591L-1.057,0.408L-1.58,0.408L-1.58,0L0,0L0,0.408L-0.524,0.408L-0.524,3.591L0,3.591L0,3.999Z" style="fill-rule:nonzero;"/>
        </g>
        <g transform="matrix(1,0,0,1,333.441,563.096)">
            <path d="M0,3.999L-0.691,3.999L-2.273,2.219L-2.67,2.643L-2.67,3.999L-3.201,3.999L-3.201,0L-2.67,0L-2.67,2.087L-0.728,0L-0.084,0L-1.869,1.88L0,3.999Z" style="fill-rule:nonzero;"/>
        </g>
        <g transform="matrix(1,0,0,1,336.842,563.096)">
            <path d="M0,3.999L-2.635,3.999L-2.635,0L0,0L0,0.473L-2.103,0.473L-2.103,1.568L0,1.568L0,2.041L-2.103,2.041L-2.103,3.526L0,3.526L0,3.999Z" style="fill-rule:nonzero;"/>
        </g>
        <g transform="matrix(1,0,0,1,339.984,564.667)">
            <path d="M0,0.857L-0.701,-1.106L-1.404,0.857L0,0.857ZM1.123,2.428L0.557,2.428L0.164,1.314L-1.565,1.314L-1.957,2.428L-2.497,2.428L-1.041,-1.571L-0.332,-1.571L1.123,2.428Z" style="fill-rule:nonzero;"/>
        </g>
        <g transform="matrix(1,0,0,1,345.642,565.593)">
            <path d="M0,0.004C0,-0.385 -0.074,-0.674 -0.227,-0.862C-0.379,-1.052 -0.59,-1.146 -0.861,-1.146C-1.135,-1.146 -1.348,-1.052 -1.498,-0.862C-1.65,-0.674 -1.726,-0.385 -1.726,0.004C-1.726,0.379 -1.65,0.664 -1.498,0.858C-1.346,1.053 -1.133,1.151 -0.861,1.151C-0.592,1.151 -0.381,1.054 -0.229,0.861C-0.076,0.669 0,0.383 0,0.004M0.521,0.004C0.521,0.492 0.397,0.878 0.146,1.161C-0.105,1.443 -0.44,1.585 -0.861,1.585C-1.285,1.585 -1.623,1.443 -1.873,1.161C-2.122,0.878 -2.247,0.492 -2.247,0.004C-2.247,-0.485 -2.122,-0.872 -1.873,-1.155C-1.623,-1.439 -1.285,-1.581 -0.861,-1.581C-0.44,-1.581 -0.105,-1.439 0.146,-1.155C0.397,-0.872 0.521,-0.485 0.521,0.004" style="fill-rule:nonzero;"/>
        </g>
        <g transform="matrix(1,0,0,1,348.669,566.579)">
            <path d="M0,-3.173L-0.027,-3.173C-0.082,-3.19 -0.154,-3.206 -0.244,-3.223C-0.334,-3.24 -0.412,-3.248 -0.481,-3.248C-0.697,-3.248 -0.854,-3.2 -0.951,-3.105C-1.049,-3.009 -1.098,-2.836 -1.098,-2.585L-1.098,-2.484L-0.187,-2.484L-0.187,-2.059L-1.082,-2.059L-1.082,0.516L-1.588,0.516L-1.588,-2.059L-1.928,-2.059L-1.928,-2.484L-1.588,-2.484L-1.588,-2.582C-1.588,-2.94 -1.498,-3.212 -1.32,-3.403C-1.145,-3.594 -0.889,-3.689 -0.553,-3.689C-0.439,-3.689 -0.338,-3.684 -0.248,-3.673C-0.158,-3.662 -0.074,-3.65 0,-3.635L0,-3.173Z" style="fill-rule:nonzero;"/>
        </g>
        <g transform="matrix(1,0,0,1,353.868,564.238)">
            <path d="M0,1.716C0,1.872 -0.035,2.026 -0.109,2.178C-0.182,2.33 -0.283,2.459 -0.414,2.565C-0.557,2.68 -0.723,2.769 -0.914,2.833C-1.105,2.898 -1.334,2.93 -1.604,2.93C-1.891,2.93 -2.15,2.903 -2.381,2.85C-2.611,2.796 -2.844,2.716 -3.082,2.611L-3.082,1.945L-3.045,1.945C-2.844,2.112 -2.609,2.242 -2.344,2.334C-2.08,2.425 -1.83,2.471 -1.598,2.471C-1.267,2.471 -1.012,2.409 -0.828,2.285C-0.645,2.162 -0.553,1.997 -0.553,1.791C-0.553,1.614 -0.596,1.484 -0.684,1.4C-0.77,1.316 -0.902,1.25 -1.08,1.203C-1.213,1.167 -1.359,1.138 -1.516,1.114C-1.672,1.091 -1.838,1.062 -2.014,1.026C-2.369,0.951 -2.631,0.822 -2.803,0.641C-2.973,0.459 -3.059,0.222 -3.059,-0.07C-3.059,-0.405 -2.918,-0.679 -2.635,-0.892C-2.352,-1.106 -1.992,-1.214 -1.557,-1.214C-1.275,-1.214 -1.018,-1.186 -0.783,-1.133C-0.549,-1.079 -0.342,-1.012 -0.16,-0.934L-0.16,-0.305L-0.199,-0.305C-0.352,-0.434 -0.551,-0.542 -0.799,-0.627C-1.047,-0.712 -1.301,-0.755 -1.56,-0.755C-1.846,-0.755 -2.074,-0.695 -2.246,-0.577C-2.42,-0.459 -2.506,-0.307 -2.506,-0.121C-2.506,0.046 -2.463,0.177 -2.377,0.272C-2.291,0.366 -2.139,0.439 -1.922,0.488C-1.809,0.514 -1.645,0.544 -1.434,0.58C-1.223,0.616 -1.043,0.653 -0.897,0.691C-0.6,0.769 -0.375,0.888 -0.225,1.047C-0.074,1.207 0,1.43 0,1.716" style="fill-rule:nonzero;"/>
        </g>
        <g transform="matrix(1,0,0,1,358.488,567.095)">
            <path d="M0,-3L-0.781,0L-1.248,0L-2.02,-2.313L-2.783,0L-3.248,0L-4.039,-3L-3.512,-3L-2.961,-0.677L-2.213,-3L-1.795,-3L-1.027,-0.677L-0.506,-3L0,-3Z" style="fill-rule:nonzero;"/>
        </g>
        <g transform="matrix(1,0,0,1,361.287,565.916)">
            <path d="M0,-0.655C-0.002,-0.921 -0.07,-1.126 -0.201,-1.27C-0.332,-1.415 -0.533,-1.488 -0.801,-1.488C-1.072,-1.488 -1.287,-1.408 -1.447,-1.249C-1.607,-1.089 -1.697,-0.891 -1.719,-0.655L0,-0.655ZM0.49,-0.268L-1.719,-0.268C-1.719,-0.084 -1.691,0.077 -1.637,0.213C-1.58,0.351 -1.504,0.463 -1.408,0.55C-1.315,0.636 -1.205,0.7 -1.076,0.743C-0.949,0.786 -0.807,0.808 -0.654,0.808C-0.449,0.808 -0.244,0.768 -0.037,0.686C0.17,0.605 0.316,0.525 0.404,0.446L0.432,0.446L0.432,0.996C0.262,1.068 0.088,1.128 -0.09,1.176C-0.268,1.225 -0.453,1.249 -0.648,1.249C-1.147,1.249 -1.535,1.115 -1.815,0.845C-2.094,0.576 -2.232,0.193 -2.232,-0.303C-2.232,-0.794 -2.1,-1.183 -1.832,-1.471C-1.565,-1.759 -1.211,-1.904 -0.773,-1.904C-0.369,-1.904 -0.059,-1.786 0.162,-1.55C0.381,-1.313 0.49,-0.977 0.49,-0.543L0.49,-0.268Z" style="fill-rule:nonzero;"/>
        </g>
        <g transform="matrix(1,0,0,1,364.64,563.738)">
            <path d="M0,2.619L0,0.897C-0.135,0.837 -0.258,0.795 -0.365,0.771C-0.473,0.748 -0.59,0.736 -0.717,0.736C-0.998,0.736 -1.219,0.835 -1.377,1.031C-1.535,1.228 -1.613,1.508 -1.613,1.869C-1.613,2.226 -1.553,2.497 -1.43,2.682C-1.309,2.867 -1.113,2.96 -0.846,2.96C-0.701,2.96 -0.557,2.928 -0.41,2.864C-0.264,2.801 -0.127,2.719 0,2.619M0.506,3.357L0,3.357L0,3.043C-0.145,3.169 -0.295,3.266 -0.453,3.336C-0.611,3.406 -0.781,3.44 -0.967,3.44C-1.324,3.44 -1.607,3.303 -1.818,3.027C-2.029,2.751 -2.135,2.369 -2.135,1.881C-2.135,1.626 -2.098,1.399 -2.025,1.201C-1.953,1.002 -1.855,0.833 -1.73,0.693C-1.609,0.558 -1.467,0.453 -1.305,0.382C-1.143,0.309 -0.976,0.274 -0.803,0.274C-0.645,0.274 -0.504,0.291 -0.383,0.324C-0.262,0.357 -0.133,0.408 0,0.478L0,-0.821L0.506,-0.821L0.506,3.357Z" style="fill-rule:nonzero;"/>
        </g>
        <g transform="matrix(1,0,0,1,368.269,565.916)">
            <path d="M0,-0.655C-0.002,-0.921 -0.068,-1.126 -0.199,-1.27C-0.332,-1.415 -0.531,-1.488 -0.801,-1.488C-1.07,-1.488 -1.285,-1.408 -1.445,-1.249C-1.605,-1.089 -1.697,-0.891 -1.719,-0.655L0,-0.655ZM0.492,-0.268L-1.719,-0.268C-1.719,-0.084 -1.691,0.077 -1.635,0.213C-1.58,0.351 -1.504,0.463 -1.406,0.55C-1.314,0.636 -1.203,0.7 -1.076,0.743C-0.947,0.786 -0.807,0.808 -0.652,0.808C-0.449,0.808 -0.242,0.768 -0.037,0.686C0.17,0.605 0.318,0.525 0.406,0.446L0.432,0.446L0.432,0.996C0.262,1.068 0.088,1.128 -0.088,1.176C-0.266,1.225 -0.451,1.249 -0.647,1.249C-1.145,1.249 -1.533,1.115 -1.813,0.845C-2.092,0.576 -2.232,0.193 -2.232,-0.303C-2.232,-0.794 -2.098,-1.183 -1.83,-1.471C-1.562,-1.759 -1.211,-1.904 -0.773,-1.904C-0.369,-1.904 -0.057,-1.786 0.162,-1.55C0.381,-1.313 0.492,-0.977 0.492,-0.543L0.492,-0.268Z" style="fill-rule:nonzero;"/>
        </g>
        <g transform="matrix(1,0,0,1,372.183,564.012)">
            <path d="M0,3.083L-0.506,3.083L-0.506,1.375C-0.506,1.237 -0.514,1.107 -0.529,0.987C-0.545,0.866 -0.574,0.772 -0.617,0.704C-0.662,0.628 -0.727,0.572 -0.811,0.536C-0.896,0.499 -1.004,0.48 -1.139,0.48C-1.277,0.48 -1.422,0.515 -1.572,0.583C-1.723,0.65 -1.865,0.737 -2.004,0.843L-2.004,3.083L-2.508,3.083L-2.508,0.083L-2.004,0.083L-2.004,0.416C-1.846,0.285 -1.684,0.184 -1.516,0.11C-1.348,0.037 -1.174,0 -0.996,0C-0.672,0 -0.426,0.098 -0.256,0.293C-0.086,0.488 0,0.769 0,1.136L0,3.083Z" style="fill-rule:nonzero;"/>
        </g>
        <g transform="matrix(-1,0,0,1,700.071,487.109)">
            <rect x="321.732" y="43.938" width="56.607" height="20.291"/>
        </g>
        <g transform="matrix(1,0,0,1,350.038,531.809)">
            <path d="M0,18.613C15.377,18.613 27.844,14.447 27.844,9.304C27.844,4.166 15.377,0 0,0C-15.379,0 -27.845,4.166 -27.845,9.304C-27.845,14.447 -15.379,18.613 0,18.613" style="fill:white;fill-rule:nonzero;"/>
        </g>
        <g transform="matrix(1,0,0,1,329.476,537.202)">
            <path d="M0,7.486C0.285,7.347 0.266,6.857 0.266,6.795C0.268,6.673 0.27,0.713 0.266,0.47C0.262,0.132 0.049,0 0.049,0L5.211,0C5.211,0 4.988,0.129 4.988,0.478C4.988,0.683 4.99,6.566 4.99,6.929C4.99,7.019 5.029,7.363 5.258,7.486L0,7.486Z" style="fill-rule:nonzero;"/>
        </g>
        <g transform="matrix(1,0,0,1,341.928,537.198)">
            <path d="M0,7.49C-0.264,7.31 -0.254,6.931 -0.254,6.845C-0.256,6.783 -0.254,5.693 -0.254,4.424C-0.254,4.424 1.187,6.695 1.32,7.027C1.471,7.39 1.303,7.49 1.303,7.49L7.238,7.49C7.238,7.49 7.177,7.451 7.089,7.384C6.945,7.273 6.767,7.142 6.56,6.867C6.347,6.584 4.175,3.054 4.175,3.054C4.175,3.054 5.81,0.771 6.068,0.439C6.293,0.148 6.533,0.017 6.533,0.004C6.533,0 6.173,0.004 6.173,0.004L1.447,0.004C1.447,0.004 1.731,0.201 1.482,0.566C1.23,0.929 -0.254,2.984 -0.254,2.984C-0.254,1.722 -0.254,0.562 -0.252,0.474C-0.248,0.136 -0.029,0.004 -0.029,0.004L-5.057,0.004C-5.057,0.004 -4.844,0.136 -4.836,0.474C-4.834,0.717 -4.834,6.677 -4.836,6.799C-4.838,6.861 -4.818,7.351 -5.104,7.49L0,7.49Z" style="fill-rule:nonzero;"/>
        </g>
        <g transform="matrix(1,0,0,1,350.212,544.688)">
            <path d="M0,-7.486C0,-7.486 0.215,-7.353 0.221,-7.015C0.225,-6.773 0.221,-0.812 0.221,-0.691C0.219,-0.629 0.238,-0.138 -0.047,0L8.613,0L8.613,-2.543C8.613,-2.543 8.402,-2.298 8.027,-2.298L4.652,-2.298L4.65,-2.896L7.088,-2.894C7.232,-2.894 7.641,-2.847 7.746,-2.711L7.75,-4.994C7.639,-4.841 7.229,-4.806 7.094,-4.806L4.65,-4.806L4.65,-5.402C4.65,-5.402 7.475,-5.4 7.824,-5.402C8.293,-5.406 8.611,-5.068 8.611,-5.068L8.611,-7.486L0,-7.486Z" style="fill-rule:nonzero;"/>
        </g>
        <g transform="matrix(1,0,0,1,366.117,540.041)">
            <path d="M0,1.811C0,1.811 -0.535,0.489 -0.555,0.438C-0.625,0.282 -0.633,0.055 -0.633,0.055L-0.643,0.055C-0.643,0.055 -0.648,0.282 -0.717,0.438C-0.736,0.489 -1.273,1.811 -1.273,1.811L0,1.811ZM0.729,4.647C0.729,4.647 0.957,4.393 0.877,4.086C0.791,3.758 0.514,3.168 0.514,3.168L-1.707,3.168C-1.707,3.168 -1.986,3.758 -2.072,4.086C-2.154,4.393 -1.922,4.647 -1.922,4.647L-6.414,4.647C-6.414,4.647 -6.16,4.434 -6,4.071C-5.84,3.707 -3.703,-2.002 -3.619,-2.207C-3.457,-2.605 -3.723,-2.836 -3.723,-2.836L3.426,-2.836C3.426,-2.836 3.172,-2.601 3.305,-2.197C3.438,-1.794 5.723,3.864 5.826,4.071C6.025,4.473 6.301,4.647 6.301,4.647L0.729,4.647Z" style="fill-rule:nonzero;"/>
        </g>
        <g transform="matrix(1,0,0,1,380.943,532.434)">
            <path d="M0,-0.256C0.266,-0.256 0.506,-0.276 0.506,-0.596C0.506,-0.852 0.271,-0.901 0.053,-0.901L-0.377,-0.901L-0.377,-0.256L0,-0.256ZM-0.377,0.91L-0.691,0.91L-0.691,-1.166L0.1,-1.166C0.592,-1.166 0.834,-0.986 0.834,-0.576C0.834,-0.205 0.6,-0.041 0.297,-0.004L0.887,0.91L0.535,0.91L-0.014,0.01L-0.377,0.01L-0.377,0.91ZM0.004,1.375C0.818,1.375 1.463,0.734 1.463,-0.133C1.463,-0.986 0.818,-1.629 0.004,-1.629C-0.82,-1.629 -1.465,-0.986 -1.465,-0.133C-1.465,0.734 -0.82,1.375 0.004,1.375M-1.826,-0.133C-1.826,-1.166 -0.986,-1.93 0.004,-1.93C0.988,-1.93 1.826,-1.166 1.826,-0.133C1.826,0.91 0.988,1.674 0.004,1.674C-0.986,1.674 -1.826,0.91 -1.826,-0.133" style="fill-rule:nonzero;"/>
        </g>
    </g>
</svg>
