<svg id="veroSvg" role="img" aria-label="Generated Vero layout" viewBox="0 0 586 401" xmlns="http://www.w3.org/2000/svg" font-family="Arial"><defs><filter id="boardShadow" x="-20%" y="-20%" width="140%" height="150%"><feDropShadow dx="0" dy="8" stdDeviation="10" flood-color="#000000" flood-opacity="0.38"/></filter><filter id="wireGlow" filterUnits="userSpaceOnUse" x="-40" y="-40" width="666" height="481"><feGaussianBlur stdDeviation="1.6" result="blur"/><feMerge><feMergeNode in="blur"/><feMergeNode in="SourceGraphic"/></feMerge></filter><style>
          svg { font-family: Arial, sans-serif; }
          .schematic-wire { fill: none; stroke-width: 2.2; stroke-linecap: round; stroke-linejoin: round; }
          .symbol-line { fill: none; stroke: #c9cdd1; stroke-width: 2; stroke-linecap: round; stroke-linejoin: round; }
          .symbol-fill { fill: #c9cdd1; stroke: #c9cdd1; stroke-width: 1.5; }
          .symbol-text { fill: #f2f4f6; font-size: 14px; dominant-baseline: middle; }
          .symbol-value { fill: #aeb6be; font-size: 11px; dominant-baseline: middle; }
          .pin-visible { fill: #181c20; stroke: #d9dde0; stroke-width: 1.5; }
          .pin-visible.connected { fill: #d9dde0; }
          .pin-visible.pending { fill: #58ff33; stroke: #ffffff; stroke-width: 2; }
          .pin-name { fill: #8e98a1; font-size: 9px; dominant-baseline: middle; }
        </style></defs><rect width="586" height="401" fill="#181c20"/><text x="88" y="27" fill="#f4f6f8" font-size="17" font-weight="850" font-family="Arial" style="font-family: Arial;">Generated Vero layout</text><text x="88" y="44" fill="#929ca6" font-size="10.5" font-family="Arial" style="font-family: Arial;"><tspan>11 x 9</tspan><tspan dx="34">3 links, 5 cuts</tspan></text><rect x="88" y="56" width="288" height="240" rx="3" fill="#0e2a64" stroke="#5680cb" stroke-width="2" filter="url(#boardShadow)"/><line x1="112" y1="56" x2="112" y2="296" stroke="#31518b" stroke-width="1"/><line x1="88" y1="80" x2="376" y2="80" stroke="#31518b" stroke-width="1"/><text x="124" y="69.44" fill="#d7dce2" font-size="9.5" text-anchor="middle" dominant-baseline="middle" font-family="Arial" style="font-family: Arial;">1</text><text x="148" y="69.44" fill="#d7dce2" font-size="9.5" text-anchor="middle" dominant-baseline="middle" font-family="Arial" style="font-family: Arial;">2</text><text x="172" y="69.44" fill="#d7dce2" font-size="9.5" text-anchor="middle" dominant-baseline="middle" font-family="Arial" style="font-family: Arial;">3</text><text x="196" y="69.44" fill="#d7dce2" font-size="9.5" text-anchor="middle" dominant-baseline="middle" font-family="Arial" style="font-family: Arial;">4</text><text x="220" y="69.44" fill="#d7dce2" font-size="9.5" text-anchor="middle" dominant-baseline="middle" font-family="Arial" style="font-family: Arial;">5</text><text x="244" y="69.44" fill="#d7dce2" font-size="9.5" text-anchor="middle" dominant-baseline="middle" font-family="Arial" style="font-family: Arial;">6</text><text x="268" y="69.44" fill="#d7dce2" font-size="9.5" text-anchor="middle" dominant-baseline="middle" font-family="Arial" style="font-family: Arial;">7</text><text x="292" y="69.44" fill="#d7dce2" font-size="9.5" text-anchor="middle" dominant-baseline="middle" font-family="Arial" style="font-family: Arial;">8</text><text x="316" y="69.44" fill="#d7dce2" font-size="9.5" text-anchor="middle" dominant-baseline="middle" font-family="Arial" style="font-family: Arial;">9</text><text x="340" y="69.44" fill="#d7dce2" font-size="9.5" text-anchor="middle" dominant-baseline="middle" font-family="Arial" style="font-family: Arial;">10</text><text x="364" y="69.44" fill="#d7dce2" font-size="9.5" text-anchor="middle" dominant-baseline="middle" font-family="Arial" style="font-family: Arial;">11</text><text x="100" y="92" fill="#d7dce2" font-size="9.5" text-anchor="middle" dominant-baseline="middle" font-family="Arial" style="font-family: Arial;">A</text><rect x="117" y="85" width="254" height="14" rx="7" fill="#767c82"/><text x="100" y="116" fill="#d7dce2" font-size="9.5" text-anchor="middle" dominant-baseline="middle" font-family="Arial" style="font-family: Arial;">B</text><rect x="117" y="109" width="254" height="14" rx="7" fill="#767c82"/><text x="100" y="140" fill="#d7dce2" font-size="9.5" text-anchor="middle" dominant-baseline="middle" font-family="Arial" style="font-family: Arial;">C</text><rect x="117" y="133" width="254" height="14" rx="7" fill="#767c82"/><text x="100" y="164" fill="#d7dce2" font-size="9.5" text-anchor="middle" dominant-baseline="middle" font-family="Arial" style="font-family: Arial;">D</text><rect x="117" y="157" width="254" height="14" rx="7" fill="#767c82"/><text x="100" y="188" fill="#d7dce2" font-size="9.5" text-anchor="middle" dominant-baseline="middle" font-family="Arial" style="font-family: Arial;">E</text><rect x="117" y="181" width="254" height="14" rx="7" fill="#767c82"/><text x="100" y="212" fill="#d7dce2" font-size="9.5" text-anchor="middle" dominant-baseline="middle" font-family="Arial" style="font-family: Arial;">F</text><rect x="117" y="205" width="254" height="14" rx="7" fill="#767c82"/><text x="100" y="236" fill="#d7dce2" font-size="9.5" text-anchor="middle" dominant-baseline="middle" font-family="Arial" style="font-family: Arial;">G</text><rect x="117" y="229" width="254" height="14" rx="7" fill="#767c82"/><text x="100" y="260" fill="#d7dce2" font-size="9.5" text-anchor="middle" dominant-baseline="middle" font-family="Arial" style="font-family: Arial;">H</text><rect x="117" y="253" width="254" height="14" rx="7" fill="#767c82"/><text x="100" y="284" fill="#d7dce2" font-size="9.5" text-anchor="middle" dominant-baseline="middle" font-family="Arial" style="font-family: Arial;">I</text><rect x="117" y="277" width="254" height="14" rx="7" fill="#767c82"/><rect x="117" y="85" width="110" height="14" rx="7" fill="#ff5b61" opacity="0.23"/><rect x="261" y="85" width="110" height="14" rx="7" fill="#e2763a" opacity="0.23"/><rect x="117" y="109" width="254" height="14" rx="7" fill="#d1d4d7" opacity="0.23"/><rect x="117" y="133" width="254" height="14" rx="7" fill="#9826bb" opacity="0.23"/><rect x="117" y="157" width="254" height="14" rx="7" fill="#58c79e" opacity="0.23"/><rect x="117" y="181" width="62" height="14" rx="7" fill="#d1d4d7" opacity="0.23"/><rect x="213" y="181" width="158" height="14" rx="7" fill="#58c79e" opacity="0.23"/><rect x="117" y="205" width="254" height="14" rx="7" fill="#d1d4d7" opacity="0.23"/><rect x="117" y="229" width="86" height="14" rx="7" fill="#58c79e" opacity="0.23"/><rect x="237" y="229" width="134" height="14" rx="7" fill="#b6ce45" opacity="0.23"/><rect x="117" y="253" width="38" height="14" rx="7" fill="#e0b43e" opacity="0.23"/><rect x="189" y="253" width="182" height="14" rx="7" fill="#16a4c6" opacity="0.23"/><rect x="117" y="277" width="182" height="14" rx="7" fill="#7f89ff" opacity="0.23"/><rect x="333" y="277" width="38" height="14" rx="7" fill="#e65c9d" opacity="0.23"/><circle cx="124" cy="92" r="3.2" fill="#f1f3f5" opacity="0.95"/><circle cx="148" cy="92" r="3.2" fill="#f1f3f5" opacity="0.95"/><circle cx="172" cy="92" r="3.2" fill="#f1f3f5" opacity="0.95"/><circle cx="196" cy="92" r="3.2" fill="#f1f3f5" opacity="0.95"/><circle cx="220" cy="92" r="3.2" fill="#f1f3f5" opacity="0.95"/><circle cx="244" cy="92" r="3.2" fill="#f1f3f5" opacity="0.95"/><circle cx="268" cy="92" r="3.2" fill="#f1f3f5" opacity="0.95"/><circle cx="292" cy="92" r="3.2" fill="#f1f3f5" opacity="0.95"/><circle cx="316" cy="92" r="3.2" fill="#f1f3f5" opacity="0.95"/><circle cx="340" cy="92" r="3.2" fill="#f1f3f5" opacity="0.95"/><circle cx="364" cy="92" r="3.2" fill="#f1f3f5" opacity="0.95"/><circle cx="124" cy="116" r="3.2" fill="#f1f3f5" opacity="0.95"/><circle cx="148" cy="116" r="3.2" fill="#f1f3f5" opacity="0.95"/><circle cx="172" cy="116" r="3.2" fill="#f1f3f5" opacity="0.95"/><circle cx="196" cy="116" r="3.2" fill="#f1f3f5" opacity="0.95"/><circle cx="220" cy="116" r="3.2" fill="#f1f3f5" opacity="0.95"/><circle cx="244" cy="116" r="3.2" fill="#f1f3f5" opacity="0.95"/><circle cx="268" cy="116" r="3.2" fill="#f1f3f5" opacity="0.95"/><circle cx="292" cy="116" r="3.2" fill="#f1f3f5" opacity="0.95"/><circle cx="316" cy="116" r="3.2" fill="#f1f3f5" opacity="0.95"/><circle cx="340" cy="116" r="3.2" fill="#f1f3f5" opacity="0.95"/><circle cx="364" cy="116" r="3.2" fill="#f1f3f5" opacity="0.95"/><circle cx="124" cy="140" r="3.2" fill="#f1f3f5" opacity="0.95"/><circle cx="148" cy="140" r="3.2" fill="#f1f3f5" opacity="0.95"/><circle cx="172" cy="140" r="3.2" fill="#f1f3f5" opacity="0.95"/><circle cx="196" cy="140" r="3.2" fill="#f1f3f5" opacity="0.95"/><circle cx="220" cy="140" r="3.2" fill="#f1f3f5" opacity="0.95"/><circle cx="244" cy="140" r="3.2" fill="#f1f3f5" opacity="0.95"/><circle cx="268" cy="140" r="3.2" fill="#f1f3f5" opacity="0.95"/><circle cx="292" cy="140" r="3.2" fill="#f1f3f5" opacity="0.95"/><circle cx="316" cy="140" r="3.2" fill="#f1f3f5" opacity="0.95"/><circle cx="340" cy="140" r="3.2" fill="#f1f3f5" opacity="0.95"/><circle cx="364" cy="140" r="3.2" fill="#f1f3f5" opacity="0.95"/><circle cx="124" cy="164" r="3.2" fill="#f1f3f5" opacity="0.95"/><circle cx="148" cy="164" r="3.2" fill="#f1f3f5" opacity="0.95"/><circle cx="172" cy="164" r="3.2" fill="#f1f3f5" opacity="0.95"/><circle cx="196" cy="164" r="3.2" fill="#f1f3f5" opacity="0.95"/><circle cx="220" cy="164" r="3.2" fill="#f1f3f5" opacity="0.95"/><circle cx="244" cy="164" r="3.2" fill="#f1f3f5" opacity="0.95"/><circle cx="268" cy="164" r="3.2" fill="#f1f3f5" opacity="0.95"/><circle cx="292" cy="164" r="3.2" fill="#f1f3f5" opacity="0.95"/><circle cx="316" cy="164" r="3.2" fill="#f1f3f5" opacity="0.95"/><circle cx="340" cy="164" r="3.2" fill="#f1f3f5" opacity="0.95"/><circle cx="364" cy="164" r="3.2" fill="#f1f3f5" opacity="0.95"/><circle cx="124" cy="188" r="3.2" fill="#f1f3f5" opacity="0.95"/><circle cx="148" cy="188" r="3.2" fill="#f1f3f5" opacity="0.95"/><circle cx="172" cy="188" r="3.2" fill="#f1f3f5" opacity="0.95"/><circle cx="196" cy="188" r="3.2" fill="#f1f3f5" opacity="0.95"/><circle cx="220" cy="188" r="3.2" fill="#f1f3f5" opacity="0.95"/><circle cx="244" cy="188" r="3.2" fill="#f1f3f5" opacity="0.95"/><circle cx="268" cy="188" r="3.2" fill="#f1f3f5" opacity="0.95"/><circle cx="292" cy="188" r="3.2" fill="#f1f3f5" opacity="0.95"/><circle cx="316" cy="188" r="3.2" fill="#f1f3f5" opacity="0.95"/><circle cx="340" cy="188" r="3.2" fill="#f1f3f5" opacity="0.95"/><circle cx="364" cy="188" r="3.2" fill="#f1f3f5" opacity="0.95"/><circle cx="124" cy="212" r="3.2" fill="#f1f3f5" opacity="0.95"/><circle cx="148" cy="212" r="3.2" fill="#f1f3f5" opacity="0.95"/><circle cx="172" cy="212" r="3.2" fill="#f1f3f5" opacity="0.95"/><circle cx="196" cy="212" r="3.2" fill="#f1f3f5" opacity="0.95"/><circle cx="220" cy="212" r="3.2" fill="#f1f3f5" opacity="0.95"/><circle cx="244" cy="212" r="3.2" fill="#f1f3f5" opacity="0.95"/><circle cx="268" cy="212" r="3.2" fill="#f1f3f5" opacity="0.95"/><circle cx="292" cy="212" r="3.2" fill="#f1f3f5" opacity="0.95"/><circle cx="316" cy="212" r="3.2" fill="#f1f3f5" opacity="0.95"/><circle cx="340" cy="212" r="3.2" fill="#f1f3f5" opacity="0.95"/><circle cx="364" cy="212" r="3.2" fill="#f1f3f5" opacity="0.95"/><circle cx="124" cy="236" r="3.2" fill="#f1f3f5" opacity="0.95"/><circle cx="148" cy="236" r="3.2" fill="#f1f3f5" opacity="0.95"/><circle cx="172" cy="236" r="3.2" fill="#f1f3f5" opacity="0.95"/><circle cx="196" cy="236" r="3.2" fill="#f1f3f5" opacity="0.95"/><circle cx="220" cy="236" r="3.2" fill="#f1f3f5" opacity="0.95"/><circle cx="244" cy="236" r="3.2" fill="#f1f3f5" opacity="0.95"/><circle cx="268" cy="236" r="3.2" fill="#f1f3f5" opacity="0.95"/><circle cx="292" cy="236" r="3.2" fill="#f1f3f5" opacity="0.95"/><circle cx="316" cy="236" r="3.2" fill="#f1f3f5" opacity="0.95"/><circle cx="340" cy="236" r="3.2" fill="#f1f3f5" opacity="0.95"/><circle cx="364" cy="236" r="3.2" fill="#f1f3f5" opacity="0.95"/><circle cx="124" cy="260" r="3.2" fill="#f1f3f5" opacity="0.95"/><circle cx="148" cy="260" r="3.2" fill="#f1f3f5" opacity="0.95"/><circle cx="172" cy="260" r="3.2" fill="#f1f3f5" opacity="0.95"/><circle cx="196" cy="260" r="3.2" fill="#f1f3f5" opacity="0.95"/><circle cx="220" cy="260" r="3.2" fill="#f1f3f5" opacity="0.95"/><circle cx="244" cy="260" r="3.2" fill="#f1f3f5" opacity="0.95"/><circle cx="268" cy="260" r="3.2" fill="#f1f3f5" opacity="0.95"/><circle cx="292" cy="260" r="3.2" fill="#f1f3f5" opacity="0.95"/><circle cx="316" cy="260" r="3.2" fill="#f1f3f5" opacity="0.95"/><circle cx="340" cy="260" r="3.2" fill="#f1f3f5" opacity="0.95"/><circle cx="364" cy="260" r="3.2" fill="#f1f3f5" opacity="0.95"/><circle cx="124" cy="284" r="3.2" fill="#f1f3f5" opacity="0.95"/><circle cx="148" cy="284" r="3.2" fill="#f1f3f5" opacity="0.95"/><circle cx="172" cy="284" r="3.2" fill="#f1f3f5" opacity="0.95"/><circle cx="196" cy="284" r="3.2" fill="#f1f3f5" opacity="0.95"/><circle cx="220" cy="284" r="3.2" fill="#f1f3f5" opacity="0.95"/><circle cx="244" cy="284" r="3.2" fill="#f1f3f5" opacity="0.95"/><circle cx="268" cy="284" r="3.2" fill="#f1f3f5" opacity="0.95"/><circle cx="292" cy="284" r="3.2" fill="#f1f3f5" opacity="0.95"/><circle cx="316" cy="284" r="3.2" fill="#f1f3f5" opacity="0.95"/><circle cx="340" cy="284" r="3.2" fill="#f1f3f5" opacity="0.95"/><circle cx="364" cy="284" r="3.2" fill="#f1f3f5" opacity="0.95"/><g id="veroRoutes"><polyline points="172,116 172,188" fill="none" stroke="#d1d4d7" stroke-width="5.4" stroke-linecap="round" stroke-linejoin="round" filter="url(#wireGlow)"><title>GND: M3 → M6</title></polyline><circle cx="172" cy="116" r="4.2" fill="#d1d4d7" stroke="#ffffff" stroke-width="1"/><circle cx="172" cy="188" r="4.2" fill="#d1d4d7" stroke="#ffffff" stroke-width="1"/><polyline points="172,188 172,212" fill="none" stroke="#d1d4d7" stroke-width="5.4" stroke-linecap="round" stroke-linejoin="round" filter="url(#wireGlow)"><title>GND: M6 → M8</title></polyline><circle cx="172" cy="188" r="4.2" fill="#d1d4d7" stroke="#ffffff" stroke-width="1"/><circle cx="172" cy="212" r="4.2" fill="#d1d4d7" stroke="#ffffff" stroke-width="1"/><polyline points="124,164 124,236" fill="none" stroke="#58c79e" stroke-width="5.4" stroke-linecap="round" stroke-linejoin="round" filter="url(#wireGlow)"><title>N001: M5 → M9</title></polyline><circle cx="124" cy="164" r="4.2" fill="#58c79e" stroke="#ffffff" stroke-width="1"/><circle cx="124" cy="236" r="4.2" fill="#58c79e" stroke="#ffffff" stroke-width="1"/></g><g id="doubleLinks"><g data-double-link-column="3" data-double-link-row="E"><circle cx="172" cy="188" r="6.2" fill="#f2e900" stroke="#fff97a" stroke-width="1.25"/><circle cx="172" cy="188" r="2.15" fill="#695f00" stroke="#fffbc1" stroke-width="0.7"/><line x1="168.3" y1="184.3" x2="175.7" y2="191.7" stroke="#817500" stroke-width="1.25" stroke-linecap="round"/><title>Double link at E3</title></g></g><g id="trackCuts"><g data-track-cut-column="5" data-track-cut-row="G"><circle cx="220" cy="236" r="6.2" fill="#e0444e" stroke="#ff9aa0" stroke-width="1.25"/><circle cx="220" cy="236" r="2.15" fill="#541218" stroke="#ffb2b7" stroke-width="0.7"/><line x1="216.3" y1="232.3" x2="223.7" y2="239.7" stroke="#71171d" stroke-width="1.25" stroke-linecap="round"/></g><g data-track-cut-column="3" data-track-cut-row="H"><circle cx="172" cy="260" r="6.2" fill="#e0444e" stroke="#ff9aa0" stroke-width="1.25"/><circle cx="172" cy="260" r="2.15" fill="#541218" stroke="#ffb2b7" stroke-width="0.7"/><line x1="168.3" y1="256.3" x2="175.7" y2="263.7" stroke="#71171d" stroke-width="1.25" stroke-linecap="round"/></g><g data-track-cut-column="9" data-track-cut-row="I"><circle cx="316" cy="284" r="6.2" fill="#e0444e" stroke="#ff9aa0" stroke-width="1.25"/><circle cx="316" cy="284" r="2.15" fill="#541218" stroke="#ffb2b7" stroke-width="0.7"/><line x1="312.3" y1="280.3" x2="319.7" y2="287.7" stroke="#71171d" stroke-width="1.25" stroke-linecap="round"/></g><g data-track-cut-column="6" data-track-cut-row="A"><circle cx="244" cy="92" r="6.2" fill="#e0444e" stroke="#ff9aa0" stroke-width="1.25"/><circle cx="244" cy="92" r="2.15" fill="#541218" stroke="#ffb2b7" stroke-width="0.7"/><line x1="240.3" y1="88.3" x2="247.7" y2="95.7" stroke="#71171d" stroke-width="1.25" stroke-linecap="round"/></g><g data-track-cut-column="4" data-track-cut-row="E"><circle cx="196" cy="188" r="6.2" fill="#e0444e" stroke="#ff9aa0" stroke-width="1.25"/><circle cx="196" cy="188" r="2.15" fill="#541218" stroke="#ffb2b7" stroke-width="0.7"/><line x1="192.3" y1="184.3" x2="199.7" y2="191.7" stroke="#71171d" stroke-width="1.25" stroke-linecap="round"/></g></g><g id="veroComponents"><g opacity="0.5" data-vero-component-render="Q1"><circle cx="196" cy="236" r="5.1" fill="#17a5c6" stroke="#73dcf3" stroke-width="1"/><circle cx="196" cy="260" r="5.1" fill="#17a5c6" stroke="#73dcf3" stroke-width="1"/><circle cx="196" cy="284" r="5.1" fill="#17a5c6" stroke="#73dcf3" stroke-width="1"/><g transform="translate(196 260) rotate(90)"><line x1="-24" y1="0" x2="-24" y2="-7" stroke="#d4d8db" stroke-width="2.4" stroke-linecap="round"/><line x1="0" y1="0" x2="0" y2="-7" stroke="#d4d8db" stroke-width="2.4" stroke-linecap="round"/><line x1="24" y1="0" x2="24" y2="-7" stroke="#d4d8db" stroke-width="2.4" stroke-linecap="round"/><path d="M -25 -6 L 25 -6 L 25 -20 A 25 16 0 0 0 -25 -20 Z" fill="#22282e" stroke="#9aa4ad" stroke-width="1.35" stroke-linejoin="round"><title>Q1 — BJT NPN transistor — 3BX31C</title></path><line x1="-23" y1="-6" x2="23" y2="-6" stroke="#c5ccd2" stroke-width="1.1" opacity="0.72"/><rect x="-13" y="-28" width="26" height="3.5" rx="1.8" fill="#17a5c6" opacity="0.9"/><text x="0" y="-17" fill="#ffffff" font-size="8.6" font-weight="900" text-anchor="middle" dominant-baseline="middle" font-family="Arial" style="font-family: Arial;">Q1</text></g><text x="186" y="238.5" fill="#dfe4e8" font-size="7.5" font-weight="750" text-anchor="end" font-family="Arial" style="font-family: Arial;">C</text><text x="186" y="262.5" fill="#dfe4e8" font-size="7.5" font-weight="750" text-anchor="end" font-family="Arial" style="font-family: Arial;">B</text><text x="186" y="286.5" fill="#dfe4e8" font-size="7.5" font-weight="750" text-anchor="end" font-family="Arial" style="font-family: Arial;">E</text></g><g opacity="1" data-vero-component-render="D1"><circle cx="316" cy="92" r="5.1" fill="#17a5c6" stroke="#73dcf3" stroke-width="1"/><circle cx="316" cy="140" r="5.1" fill="#17a5c6" stroke="#73dcf3" stroke-width="1"/><line x1="316" y1="92" x2="316" y2="140" stroke="#d4d8db" stroke-width="2.2"/><rect x="297" y="107" width="38" height="18" rx="3" fill="#e66b35" stroke="#ff9b6a" stroke-width="1.2" transform="rotate(90 316 116)"/><rect x="307" y="101.2" width="18" height="5.6" fill="#f5f5f5"/><text x="316" y="116" fill="#ffffff" font-size="9.5" font-weight="850" text-anchor="middle" dominant-baseline="middle" transform="rotate(-90 316 116)" font-family="Arial" style="font-family: Arial;">D1</text></g><g opacity="1" data-vero-component-render="D2"><circle cx="268" cy="92" r="5.1" fill="#17a5c6" stroke="#73dcf3" stroke-width="1"/><circle cx="268" cy="140" r="5.1" fill="#17a5c6" stroke="#73dcf3" stroke-width="1"/><line x1="268" y1="92" x2="268" y2="140" stroke="#d4d8db" stroke-width="2.2"/><rect x="249" y="107" width="38" height="18" rx="3" fill="#e66b35" stroke="#ff9b6a" stroke-width="1.2" transform="rotate(90 268 116)"/><rect x="259" y="125.2" width="18" height="5.6" fill="#f5f5f5"/><text x="268" y="116" fill="#ffffff" font-size="9.5" font-weight="850" text-anchor="middle" dominant-baseline="middle" transform="rotate(-90 268 116)" font-family="Arial" style="font-family: Arial;">D2</text></g><g opacity="1" data-vero-component-render="D3"><circle cx="244" cy="140" r="5.1" fill="#17a5c6" stroke="#73dcf3" stroke-width="1"/><circle cx="244" cy="188" r="5.1" fill="#17a5c6" stroke="#73dcf3" stroke-width="1"/><line x1="244" y1="140" x2="244" y2="188" stroke="#d4d8db" stroke-width="2.2"/><rect x="225" y="155" width="38" height="18" rx="3" fill="#e66b35" stroke="#ff9b6a" stroke-width="1.2" transform="rotate(90 244 164)"/><rect x="235" y="173.2" width="18" height="5.6" fill="#f5f5f5"/><text x="244" y="164" fill="#ffffff" font-size="9.5" font-weight="850" text-anchor="middle" dominant-baseline="middle" transform="rotate(-90 244 164)" font-family="Arial" style="font-family: Arial;">D3</text></g><g opacity="1" data-vero-component-render="D4"><circle cx="292" cy="140" r="5.1" fill="#17a5c6" stroke="#73dcf3" stroke-width="1"/><circle cx="292" cy="188" r="5.1" fill="#17a5c6" stroke="#73dcf3" stroke-width="1"/><line x1="292" y1="140" x2="292" y2="188" stroke="#d4d8db" stroke-width="2.2"/><rect x="273" y="155" width="38" height="18" rx="3" fill="#e66b35" stroke="#ff9b6a" stroke-width="1.2" transform="rotate(90 292 164)"/><rect x="283" y="149.2" width="18" height="5.6" fill="#f5f5f5"/><text x="292" y="164" fill="#ffffff" font-size="9.5" font-weight="850" text-anchor="middle" dominant-baseline="middle" transform="rotate(-90 292 164)" font-family="Arial" style="font-family: Arial;">D4</text></g><g opacity="1" data-vero-component-render="R2"><circle cx="340" cy="164" r="5.1" fill="#17a5c6" stroke="#73dcf3" stroke-width="1"/><circle cx="340" cy="284" r="5.1" fill="#17a5c6" stroke="#73dcf3" stroke-width="1"/><line x1="340" y1="164" x2="340" y2="284" stroke="#d4d8db" stroke-width="2.2"/><rect x="314" y="217" width="52" height="14" rx="7" fill="#58ff33" stroke="#8cff70" stroke-width="1.15" transform="rotate(90 340 224)"/><text x="340" y="224" fill="#101510" font-size="9.2" font-weight="850" text-anchor="middle" dominant-baseline="middle" transform="rotate(-90 340 224)" font-family="Arial" style="font-family: Arial;">220k</text></g><g opacity="1" data-vero-component-render="R1"><circle cx="220" cy="92" r="5.1" fill="#17a5c6" stroke="#73dcf3" stroke-width="1"/><circle cx="220" cy="164" r="5.1" fill="#17a5c6" stroke="#73dcf3" stroke-width="1"/><line x1="220" y1="92" x2="220" y2="164" stroke="#d4d8db" stroke-width="2.2"/><rect x="194" y="121" width="52" height="14" rx="7" fill="#58ff33" stroke="#8cff70" stroke-width="1.15" transform="rotate(90 220 128)"/><text x="220" y="128" fill="#101510" font-size="9.2" font-weight="850" text-anchor="middle" dominant-baseline="middle" transform="rotate(-90 220 128)" font-family="Arial" style="font-family: Arial;">68k</text></g><g opacity="1" data-vero-component-render="R3"><circle cx="292" cy="212" r="5.1" fill="#17a5c6" stroke="#73dcf3" stroke-width="1"/><circle cx="292" cy="284" r="5.1" fill="#17a5c6" stroke="#73dcf3" stroke-width="1"/><line x1="292" y1="212" x2="292" y2="284" stroke="#d4d8db" stroke-width="2.2"/><rect x="266" y="241" width="52" height="14" rx="7" fill="#58ff33" stroke="#8cff70" stroke-width="1.15" transform="rotate(90 292 248)"/><text x="292" y="248" fill="#101510" font-size="9.2" font-weight="850" text-anchor="middle" dominant-baseline="middle" transform="rotate(-90 292 248)" font-family="Arial" style="font-family: Arial;">330Ω</text></g><g opacity="1" data-vero-component-render="C1"><circle cx="244" cy="236" r="5.1" fill="#17a5c6" stroke="#73dcf3" stroke-width="1"/><circle cx="244" cy="260" r="5.1" fill="#17a5c6" stroke="#73dcf3" stroke-width="1"/><line x1="244" y1="236" x2="244" y2="260" stroke="#d4d8db" stroke-width="2.2"/><ellipse cx="244" cy="248" rx="13" ry="12" fill="#d8c39f" stroke="#f2dfbd" stroke-width="1.2" transform="rotate(90 244 248)" data-component-id="C1" data-capacitor-kind="non-polarized"><title>C1 — non-polarized capacitor</title></ellipse><text x="244" y="248" fill="#2b251d" font-size="9.2" font-weight="850" text-anchor="middle" dominant-baseline="middle" transform="rotate(-90 244 248)" font-family="Arial" style="font-family: Arial;">100nF</text></g><g opacity="1" data-vero-component-render="C2"><circle cx="196" cy="140" r="5.1" fill="#17a5c6" stroke="#73dcf3" stroke-width="1"/><circle cx="196" cy="164" r="5.1" fill="#17a5c6" stroke="#73dcf3" stroke-width="1"/><line x1="196" y1="140" x2="196" y2="164" stroke="#d4d8db" stroke-width="2.2"/><g transform="translate(196 152) rotate(90)" data-component-id="C2" data-capacitor-kind="polarized-electrolytic"><title>C2 — polarized electrolytic capacitor; black side = negative</title><clipPath id="electrolytic-clip-C2-3-2"><circle cx="0" cy="0" r="14"/></clipPath><circle cx="0" cy="0" r="14" fill="#8e22b7"/><rect x="-14" y="-14" width="9.52" height="28" fill="#15181c" clip-path="url(#electrolytic-clip-C2-3-2)"/><path d="M -6.3 -7.700000000000001 Q 0 -12.04 3.9200000000000004 -6.72" fill="none" stroke="#dc8aee" stroke-width="1.25" stroke-linecap="round" opacity="0.5"/><circle cx="0" cy="0" r="14" fill="none" stroke="#c66be2" stroke-width="1.25"/></g><text x="196" y="152" fill="#ffffff" font-size="8.6" font-weight="850" text-anchor="middle" dominant-baseline="middle" transform="rotate(-90 196 152)" font-family="Arial" style="font-family: Arial;">0.1µF</text></g><g opacity="1" data-vero-component-render="C3"><circle cx="148" cy="188" r="5.1" fill="#17a5c6" stroke="#73dcf3" stroke-width="1"/><circle cx="148" cy="260" r="5.1" fill="#17a5c6" stroke="#73dcf3" stroke-width="1"/><line x1="148" y1="188" x2="148" y2="260" stroke="#d4d8db" stroke-width="2.2"/><ellipse cx="148" cy="224" rx="26" ry="12" fill="#d8c39f" stroke="#f2dfbd" stroke-width="1.2" transform="rotate(90 148 224)" data-component-id="C3" data-capacitor-kind="non-polarized"><title>C3 — non-polarized capacitor</title></ellipse><text x="148" y="224" fill="#2b251d" font-size="9.2" font-weight="850" text-anchor="middle" dominant-baseline="middle" transform="rotate(-90 148 224)" font-family="Arial" style="font-family: Arial;">0.47nF</text></g></g><g data-external-terminal="5K 2" data-terminal-key="POT1:2" data-terminal-side="right" data-terminal-column="11" data-terminal-row="G"><polyline points="364,236 390,236 390,236 394,236" fill="none" stroke="#b6ce45" stroke-width="3" stroke-linecap="round" stroke-linejoin="round"/><circle cx="364" cy="236" r="4.2" fill="#b6ce45" stroke="#ffffff" stroke-width="1"/><text x="402" y="236" fill="#b6ce45" font-size="12" font-weight="850" dominant-baseline="middle" font-family="Arial" style="font-family: Arial;">5K 2</text></g><g data-external-terminal="9V" data-terminal-key="P1" data-terminal-side="left" data-terminal-column="1" data-terminal-row="A"><polyline points="124,92 74,92 74,92 70,92" fill="none" stroke="#ff5b61" stroke-width="3" stroke-linecap="round" stroke-linejoin="round"/><circle cx="124" cy="92" r="4.2" fill="#ff5b61" stroke="#ffffff" stroke-width="1"/><text x="63" y="92" fill="#ff5b61" font-size="12" font-weight="850" text-anchor="end" dominant-baseline="middle" font-family="Arial" style="font-family: Arial;">9V</text></g><g data-external-terminal="100K 1" data-terminal-key="POT3:1" data-terminal-side="left" data-terminal-column="1" data-terminal-row="H"><polyline points="124,260 74,260 74,260 70,260" fill="none" stroke="#e0b43e" stroke-width="3" stroke-linecap="round" stroke-linejoin="round"/><circle cx="124" cy="260" r="4.2" fill="#e0b43e" stroke="#ffffff" stroke-width="1"/><text x="63" y="260" fill="#e0b43e" font-size="12" font-weight="850" text-anchor="end" dominant-baseline="middle" font-family="Arial" style="font-family: Arial;">100K 1</text></g><g data-external-terminal="switch1 3" data-terminal-key="SW1:3" data-terminal-side="right" data-terminal-column="11" data-terminal-row="A"><polyline points="364,92 390,92 390,92 394,92" fill="none" stroke="#e2763a" stroke-width="3" stroke-linecap="round" stroke-linejoin="round"/><circle cx="364" cy="92" r="4.2" fill="#e2763a" stroke="#ffffff" stroke-width="1"/><text x="402" y="92" fill="#e2763a" font-size="12" font-weight="850" dominant-baseline="middle" font-family="Arial" style="font-family: Arial;">switch1 3</text></g><g data-external-terminal="switch1 2" data-terminal-key="SW1:2" data-terminal-side="right" data-terminal-column="11" data-terminal-row="E"><polyline points="364,188 390,188 390,188 394,188" fill="none" stroke="#58c79e" stroke-width="3" stroke-linecap="round" stroke-linejoin="round"/><circle cx="364" cy="188" r="4.2" fill="#58c79e" stroke="#ffffff" stroke-width="1"/><text x="402" y="188" fill="#58c79e" font-size="12" font-weight="850" dominant-baseline="middle" font-family="Arial" style="font-family: Arial;">switch1 2</text></g><g data-external-terminal="1M 2" data-terminal-key="POT2:2" data-terminal-side="right" data-terminal-column="11" data-terminal-row="H"><polyline points="364,260 390,260 390,260 394,260" fill="none" stroke="#16a4c6" stroke-width="3" stroke-linecap="round" stroke-linejoin="round"/><circle cx="364" cy="260" r="4.2" fill="#16a4c6" stroke="#ffffff" stroke-width="1"/><text x="402" y="260" fill="#16a4c6" font-size="12" font-weight="850" dominant-baseline="middle" font-family="Arial" style="font-family: Arial;">1M 2</text></g><g data-external-terminal="1M 3" data-terminal-key="POT2:3" data-terminal-side="right" data-terminal-column="11" data-terminal-row="I"><polyline points="364,284 390,284 390,284 394,284" fill="none" stroke="#e65c9d" stroke-width="3" stroke-linecap="round" stroke-linejoin="round"/><circle cx="364" cy="284" r="4.2" fill="#e65c9d" stroke="#ffffff" stroke-width="1"/><text x="402" y="284" fill="#e65c9d" font-size="12" font-weight="850" dominant-baseline="middle" font-family="Arial" style="font-family: Arial;">1M 3</text></g><g data-external-terminal="100K 3" data-terminal-key="POT3:3" data-terminal-side="left" data-terminal-column="1" data-terminal-row="C"><polyline points="124,140 74,140 74,140 70,140" fill="none" stroke="#9826bb" stroke-width="3" stroke-linecap="round" stroke-linejoin="round"/><circle cx="124" cy="140" r="4.2" fill="#9826bb" stroke="#ffffff" stroke-width="1"/><text x="63" y="140" fill="#9826bb" font-size="12" font-weight="850" text-anchor="end" dominant-baseline="middle" font-family="Arial" style="font-family: Arial;">100K 3</text></g><g data-external-terminal="GND" data-terminal-key="P2" data-terminal-side="left" data-terminal-column="1" data-terminal-row="F"><polyline points="124,212 74,212 74,212 70,212" fill="none" stroke="#d1d4d7" stroke-width="3" stroke-linecap="round" stroke-linejoin="round"/><circle cx="124" cy="212" r="4.2" fill="#d1d4d7" stroke="#ffffff" stroke-width="1"/><text x="63" y="212" fill="#d1d4d7" font-size="12" font-weight="850" text-anchor="end" dominant-baseline="middle" font-family="Arial" style="font-family: Arial;">GND</text></g><g data-external-terminal="1M 1" data-terminal-key="POT2:1" data-terminal-side="left" data-terminal-column="1" data-terminal-row="E"><polyline points="124,188 74,188 74,188 70,188" fill="none" stroke="#d1d4d7" stroke-width="3" stroke-linecap="round" stroke-linejoin="round"/><circle cx="124" cy="188" r="4.2" fill="#d1d4d7" stroke="#ffffff" stroke-width="1"/><text x="63" y="188" fill="#d1d4d7" font-size="12" font-weight="850" text-anchor="end" dominant-baseline="middle" font-family="Arial" style="font-family: Arial;">1M 1</text></g><g data-external-terminal="switch1 1" data-terminal-key="SW1:1" data-terminal-side="right" data-terminal-column="11" data-terminal-row="F"><polyline points="364,212 390,212 390,212 394,212" fill="none" stroke="#d1d4d7" stroke-width="3" stroke-linecap="round" stroke-linejoin="round"/><circle cx="364" cy="212" r="4.2" fill="#d1d4d7" stroke="#ffffff" stroke-width="1"/><text x="402" y="212" fill="#d1d4d7" font-size="12" font-weight="850" dominant-baseline="middle" font-family="Arial" style="font-family: Arial;">switch1 1</text></g><g data-external-terminal="5K 1" data-terminal-key="POT1:1" data-terminal-side="right" data-terminal-column="11" data-terminal-row="B"><polyline points="364,116 390,116 390,116 394,116" fill="none" stroke="#d1d4d7" stroke-width="3" stroke-linecap="round" stroke-linejoin="round"/><circle cx="364" cy="116" r="4.2" fill="#d1d4d7" stroke="#ffffff" stroke-width="1"/><text x="402" y="116" fill="#d1d4d7" font-size="12" font-weight="850" dominant-baseline="middle" font-family="Arial" style="font-family: Arial;">5K 1</text></g><text x="88" y="338" fill="#d8dde1" font-size="11" font-weight="800" font-family="Arial" style="font-family: Arial;">Legend</text><circle cx="155" cy="334" r="6" fill="#e0444e" stroke="#ff9aa0" stroke-width="1"/><circle cx="155" cy="334" r="2" fill="#541218"/><text x="168" y="334" fill="#aeb6be" font-size="10" dominant-baseline="middle" font-family="Arial" style="font-family: Arial;">track cut</text><circle cx="242" cy="334" r="6" fill="#f2e900" stroke="#fff97a" stroke-width="1"/><circle cx="242" cy="334" r="2" fill="#695f00"/><text x="255" y="334" fill="#aeb6be" font-size="10" dominant-baseline="middle" font-family="Arial" style="font-family: Arial;">double link</text></svg>