%TF.GenerationSoftware,KiCad,Pcbnew,7.0.2*%
%TF.CreationDate,2023-06-04T21:47:57+09:00*%
%TF.ProjectId,architeuthis_dux,61726368-6974-4657-9574-6869735f6475,v1.0.0*%
%TF.SameCoordinates,Original*%
%TF.FileFunction,Other,User*%
%FSLAX46Y46*%
G04 Gerber Fmt 4.6, Leading zero omitted, Abs format (unit mm)*
G04 Created by KiCad (PCBNEW 7.0.2) date 2023-06-04 21:47:57*
%MOMM*%
%LPD*%
G01*
G04 APERTURE LIST*
%ADD10C,0.050000*%
%ADD11C,0.120000*%
G04 APERTURE END LIST*
D10*
%TO.C,REF\u002A\u002A*%
X199350000Y-65500000D02*
G75*
G03*
X199350000Y-65500000I-2350000J0D01*
G01*
X219672506Y-106929664D02*
G75*
G03*
X219672506Y-106929664I-2350000J0D01*
G01*
X195386201Y-104096261D02*
G75*
G03*
X195386201Y-104096261I-2350000J0D01*
G01*
X174490484Y-62922299D02*
G75*
G03*
X174490484Y-62922299I-2350000J0D01*
G01*
%TO.C,SW01*%
X129321339Y-67175361D02*
X141725281Y-62660695D01*
X133836005Y-79579304D02*
X129321339Y-67175361D01*
X141725281Y-62660695D02*
X146239947Y-75064638D01*
X146239947Y-75064638D02*
X133836005Y-79579304D01*
%TO.C,SW3*%
X174637989Y-42957603D02*
X187637451Y-40665447D01*
X176930145Y-55957065D02*
X174637989Y-42957603D01*
X187637451Y-40665447D02*
X189929607Y-53664909D01*
X189929607Y-53664909D02*
X176930145Y-55957065D01*
%TO.C,REF\u002A\u002A*%
X198350000Y-50000000D02*
G75*
G03*
X198350000Y-50000000I-2350000J0D01*
G01*
%TO.C,SW14*%
X255531658Y-130906071D02*
X265768202Y-139239928D01*
X247197801Y-141142615D02*
X255531658Y-130906071D01*
X265768202Y-139239928D02*
X257434345Y-149476472D01*
X257434345Y-149476472D02*
X247197801Y-141142615D01*
%TO.C,SW13*%
X238259027Y-118599547D02*
X249170012Y-126028572D01*
X230830002Y-129510531D02*
X238259027Y-118599547D01*
X249170012Y-126028572D02*
X241740987Y-136939556D01*
X241740987Y-136939556D02*
X230830002Y-129510531D01*
%TO.C,SW10*%
X160289757Y-90465121D02*
X173039978Y-87048709D01*
X163706168Y-103215342D02*
X160289757Y-90465121D01*
X173039978Y-87048709D02*
X176456389Y-99798930D01*
X176456389Y-99798930D02*
X163706168Y-103215342D01*
%TO.C,REF\u002A\u002A*%
X260350000Y-39000000D02*
G75*
G03*
X260350000Y-39000000I-2350000J0D01*
G01*
%TO.C,J2*%
X251900000Y-58960000D02*
X251900000Y-72710000D01*
X251900000Y-72710000D02*
X255500000Y-72710000D01*
X255500000Y-58960000D02*
X251900000Y-58960000D01*
X255500000Y-72710000D02*
X255500000Y-58960000D01*
%TO.C,REF*%
X260850000Y-95000000D02*
G75*
G03*
X260850000Y-95000000I-2350000J0D01*
G01*
%TO.C,SW5*%
X136198929Y-85915730D02*
X148602871Y-81401064D01*
X140713595Y-98319673D02*
X136198929Y-85915730D01*
X148602871Y-81401064D02*
X153117537Y-93805007D01*
X153117537Y-93805007D02*
X140713595Y-98319673D01*
%TO.C,SW12*%
X203002361Y-88219044D02*
X216201954Y-88115372D01*
X203106032Y-101418636D02*
X203002361Y-88219044D01*
X216201954Y-88115372D02*
X216305625Y-101314965D01*
X216305625Y-101314965D02*
X203106032Y-101418636D01*
%TO.C,SW9*%
X143039332Y-104709582D02*
X155443274Y-100194916D01*
X147553998Y-117113525D02*
X143039332Y-104709582D01*
X155443274Y-100194916D02*
X159957940Y-112598859D01*
X159957940Y-112598859D02*
X147553998Y-117113525D01*
%TO.C,REF\u002A\u002A*%
X231815658Y-119275202D02*
G75*
G03*
X231815658Y-119275202I-2350000J0D01*
G01*
X260350000Y-158000000D02*
G75*
G03*
X260350000Y-158000000I-2350000J0D01*
G01*
D11*
%TO.C,U1*%
X223073000Y-39674000D02*
X245073000Y-39674000D01*
X223073000Y-91674000D02*
X223073000Y-39674000D01*
X245073000Y-39674000D02*
X245073000Y-91674000D01*
X245073000Y-91674000D02*
X223073000Y-91674000D01*
D10*
%TO.C,J1*%
X249200000Y-42200000D02*
X249200000Y-53400000D01*
X249200000Y-53400000D02*
X255350000Y-53400000D01*
X255350000Y-42200000D02*
X249200000Y-42200000D01*
X255350000Y-53400000D02*
X255350000Y-42200000D01*
%TO.C,REF\u002A\u002A*%
X171350000Y-46000000D02*
G75*
G03*
X171350000Y-46000000I-2350000J0D01*
G01*
%TO.C,SW2*%
X149936995Y-51828089D02*
X162687216Y-48411677D01*
X153353406Y-64578310D02*
X149936995Y-51828089D01*
X162687216Y-48411677D02*
X166103627Y-61161898D01*
X166103627Y-61161898D02*
X153353406Y-64578310D01*
%TO.C,REF\u002A\u002A*%
X151350000Y-124000000D02*
G75*
G03*
X151350000Y-124000000I-2350000J0D01*
G01*
%TO.C,SW4*%
X202304265Y-48225136D02*
X215503858Y-48121464D01*
X202407936Y-61424728D02*
X202304265Y-48225136D01*
X215503858Y-48121464D02*
X215607529Y-61321057D01*
X215607529Y-61321057D02*
X202407936Y-61424728D01*
%TO.C,SW6*%
X155113376Y-71146604D02*
X167863597Y-67730192D01*
X158529787Y-83896825D02*
X155113376Y-71146604D01*
X167863597Y-67730192D02*
X171280008Y-80480413D01*
X171280008Y-80480413D02*
X158529787Y-83896825D01*
%TO.C,REF\u002A\u002A*%
X136350000Y-59000000D02*
G75*
G03*
X136350000Y-59000000I-2350000J0D01*
G01*
X172415404Y-107941593D02*
G75*
G03*
X172415404Y-107941593I-2350000J0D01*
G01*
X260350000Y-120000000D02*
G75*
G03*
X260350000Y-120000000I-2350000J0D01*
G01*
%TO.C,SW8*%
X202653313Y-68222090D02*
X215852906Y-68118418D01*
X202756984Y-81421682D02*
X202653313Y-68222090D01*
X215852906Y-68118418D02*
X215956577Y-81318011D01*
X215956577Y-81318011D02*
X202756984Y-81421682D01*
%TO.C,SW7*%
X177569141Y-62742657D02*
X190568603Y-60450501D01*
X179861297Y-75742119D02*
X177569141Y-62742657D01*
X190568603Y-60450501D02*
X192860759Y-73449963D01*
X192860759Y-73449963D02*
X179861297Y-75742119D01*
%TO.C,J3*%
X251900000Y-76500000D02*
X251900000Y-90250000D01*
X251900000Y-90250000D02*
X255500000Y-90250000D01*
X255500000Y-76500000D02*
X251900000Y-76500000D01*
X255500000Y-90250000D02*
X255500000Y-76500000D01*
%TO.C,SW11*%
X195791910Y-93235016D02*
X182792448Y-95527172D01*
X193499754Y-80235554D02*
X195791910Y-93235016D01*
X182792448Y-95527172D02*
X180500292Y-82527710D01*
X180500292Y-82527710D02*
X193499754Y-80235554D01*
%TD*%
M02*
