%TF.GenerationSoftware,KiCad,Pcbnew,7.0.2*%
%TF.CreationDate,2023-06-04T21:47:56+09:00*%
%TF.ProjectId,architeuthis_dux,61726368-6974-4657-9574-6869735f6475,v1.0.0*%
%TF.SameCoordinates,Original*%
%TF.FileFunction,Legend,Top*%
%TF.FilePolarity,Positive*%
%FSLAX46Y46*%
G04 Gerber Fmt 4.6, Leading zero omitted, Abs format (unit mm)*
G04 Created by KiCad (PCBNEW 7.0.2) date 2023-06-04 21:47:56*
%MOMM*%
%LPD*%
G01*
G04 APERTURE LIST*
%ADD10C,0.000000*%
%ADD11C,0.150000*%
%ADD12C,0.120000*%
G04 APERTURE END LIST*
D10*
G36*
X251036185Y-147667104D02*
G01*
X251048079Y-148101442D01*
X249389753Y-149480288D01*
X248844339Y-149486990D01*
X247732877Y-148634135D01*
X247771880Y-148601840D01*
X248838199Y-148601840D01*
X249124724Y-148821698D01*
X250217389Y-147919259D01*
X249930864Y-147699402D01*
X248838199Y-148601840D01*
X247771880Y-148601840D01*
X248284760Y-148177172D01*
X249927871Y-146816665D01*
X251036185Y-147667104D01*
G37*
G36*
X249694873Y-146637879D02*
G01*
X247499878Y-148455349D01*
X246945721Y-148030129D01*
X249137567Y-146210243D01*
X249694873Y-146637879D01*
G37*
G36*
X248662126Y-145845424D02*
G01*
X248668453Y-146280494D01*
X248120438Y-146740427D01*
X247557380Y-146763604D01*
X247566857Y-147201093D01*
X247012544Y-147656191D01*
X246470280Y-147665311D01*
X246199498Y-147457533D01*
X247009551Y-146773456D01*
X246741918Y-146568095D01*
X245912974Y-147237675D01*
X245358817Y-146812455D01*
X246207940Y-146107429D01*
X247295498Y-146107429D01*
X247563132Y-146312791D01*
X247843328Y-146097579D01*
X247556804Y-145877721D01*
X247295498Y-146107429D01*
X246207940Y-146107429D01*
X246730286Y-145673726D01*
X247550662Y-144992568D01*
X248662126Y-145845424D01*
G37*
G36*
X247072071Y-144625332D02*
G01*
X247086381Y-145056523D01*
X246529652Y-145514771D01*
X245978643Y-145091967D01*
X246250858Y-144880635D01*
X245964336Y-144660779D01*
X244892977Y-145574564D01*
X245163758Y-145782343D01*
X245422646Y-145555781D01*
X245293552Y-145456724D01*
X245563571Y-145228699D01*
X246259416Y-145762639D01*
X245447680Y-146455429D01*
X244902267Y-146462132D01*
X244055289Y-145812223D01*
X244046543Y-145380299D01*
X245704136Y-143995889D01*
X246247133Y-143992336D01*
X247072071Y-144625332D01*
G37*
G36*
X244414636Y-142586211D02*
G01*
X244423381Y-143018133D01*
X244968793Y-143011430D01*
X245526100Y-143439067D01*
X245534843Y-143870987D01*
X243617629Y-145476395D01*
X243063472Y-145051175D01*
X244707303Y-143691222D01*
X244420777Y-143471363D01*
X242776948Y-144831318D01*
X242219642Y-144403682D01*
X243863471Y-143043727D01*
X243595839Y-142838366D01*
X241952008Y-144198319D01*
X241397851Y-143773099D01*
X243311918Y-142165277D01*
X243857331Y-142158576D01*
X244414636Y-142586211D01*
G37*
G36*
X243082769Y-141564233D02*
G01*
X243091515Y-141996156D01*
X241436335Y-143377416D01*
X240890924Y-143384120D01*
X240062836Y-142748706D01*
X240057780Y-142498968D01*
X240884781Y-142498968D01*
X241171306Y-142718826D01*
X242263971Y-141816388D01*
X241977446Y-141596529D01*
X240884781Y-142498968D01*
X240057780Y-142498968D01*
X240054092Y-142316783D01*
X240338822Y-142080039D01*
X241712417Y-140937937D01*
X242257830Y-140931235D01*
X243082769Y-141564233D01*
G37*
G36*
X241747753Y-140539839D02*
G01*
X241191025Y-140998088D01*
X240781704Y-140684005D01*
X239143438Y-142043227D01*
X238589281Y-141618008D01*
X240227547Y-140258786D01*
X239796186Y-139927791D01*
X240349766Y-139467126D01*
X241747753Y-140539839D01*
G37*
G36*
X239871175Y-139099890D02*
G01*
X239879920Y-139531813D01*
X237946962Y-141125139D01*
X237392806Y-140699920D01*
X239027922Y-139338281D01*
X238760289Y-139132919D01*
X237122024Y-140492142D01*
X236567867Y-140066922D01*
X238481933Y-138459099D01*
X239027345Y-138452397D01*
X239871175Y-139099890D01*
G37*
G36*
X237427846Y-137225058D02*
G01*
X238252784Y-137858055D01*
X238261530Y-138289978D01*
X236344315Y-139895384D01*
X235790157Y-139470164D01*
X236343737Y-139009499D01*
X236057213Y-138789642D01*
X235503633Y-139250306D01*
X234949475Y-138825086D01*
X235513842Y-138351016D01*
X236593882Y-138351016D01*
X236880407Y-138570875D01*
X237412679Y-138098862D01*
X237145046Y-137893500D01*
X236593882Y-138351016D01*
X235513842Y-138351016D01*
X236029444Y-137917908D01*
X236863541Y-137217263D01*
X237427846Y-137225058D01*
G37*
G36*
X236007818Y-136135432D02*
G01*
X235195349Y-136822657D01*
X235462982Y-137028019D01*
X236294342Y-136355290D01*
X236848499Y-136780510D01*
X234656654Y-138600397D01*
X234099348Y-138172761D01*
X234911817Y-137485536D01*
X234644184Y-137280174D01*
X233815972Y-137955319D01*
X233258666Y-137527683D01*
X235453660Y-135710212D01*
X236007818Y-136135432D01*
G37*
G36*
X234943583Y-135318817D02*
G01*
X234949912Y-135753887D01*
X233850731Y-136671336D01*
X233305318Y-136678039D01*
X232748012Y-136250403D01*
X232197581Y-136713483D01*
X231640275Y-136285848D01*
X232205034Y-135811778D01*
X233284682Y-135811778D01*
X233552314Y-136017140D01*
X234103479Y-135559623D01*
X233835846Y-135354261D01*
X233284682Y-135811778D01*
X232205034Y-135811778D01*
X232720637Y-135378971D01*
X233551924Y-134681173D01*
X234099753Y-134671323D01*
X234943583Y-135318817D01*
G37*
D11*
%TO.C,REF\u002A\u002A*%
X195666666Y-62762619D02*
X195333333Y-62286428D01*
X195095238Y-62762619D02*
X195095238Y-61762619D01*
X195095238Y-61762619D02*
X195476190Y-61762619D01*
X195476190Y-61762619D02*
X195571428Y-61810238D01*
X195571428Y-61810238D02*
X195619047Y-61857857D01*
X195619047Y-61857857D02*
X195666666Y-61953095D01*
X195666666Y-61953095D02*
X195666666Y-62095952D01*
X195666666Y-62095952D02*
X195619047Y-62191190D01*
X195619047Y-62191190D02*
X195571428Y-62238809D01*
X195571428Y-62238809D02*
X195476190Y-62286428D01*
X195476190Y-62286428D02*
X195095238Y-62286428D01*
X196095238Y-62238809D02*
X196428571Y-62238809D01*
X196571428Y-62762619D02*
X196095238Y-62762619D01*
X196095238Y-62762619D02*
X196095238Y-61762619D01*
X196095238Y-61762619D02*
X196571428Y-61762619D01*
X197333333Y-62238809D02*
X197000000Y-62238809D01*
X197000000Y-62762619D02*
X197000000Y-61762619D01*
X197000000Y-61762619D02*
X197476190Y-61762619D01*
X198000000Y-61762619D02*
X198000000Y-62000714D01*
X197761905Y-61905476D02*
X198000000Y-62000714D01*
X198000000Y-62000714D02*
X198238095Y-61905476D01*
X197857143Y-62191190D02*
X198000000Y-62000714D01*
X198000000Y-62000714D02*
X198142857Y-62191190D01*
X198761905Y-61762619D02*
X198761905Y-62000714D01*
X198523810Y-61905476D02*
X198761905Y-62000714D01*
X198761905Y-62000714D02*
X199000000Y-61905476D01*
X198619048Y-62191190D02*
X198761905Y-62000714D01*
X198761905Y-62000714D02*
X198904762Y-62191190D01*
X215989172Y-104192283D02*
X215655839Y-103716092D01*
X215417744Y-104192283D02*
X215417744Y-103192283D01*
X215417744Y-103192283D02*
X215798696Y-103192283D01*
X215798696Y-103192283D02*
X215893934Y-103239902D01*
X215893934Y-103239902D02*
X215941553Y-103287521D01*
X215941553Y-103287521D02*
X215989172Y-103382759D01*
X215989172Y-103382759D02*
X215989172Y-103525616D01*
X215989172Y-103525616D02*
X215941553Y-103620854D01*
X215941553Y-103620854D02*
X215893934Y-103668473D01*
X215893934Y-103668473D02*
X215798696Y-103716092D01*
X215798696Y-103716092D02*
X215417744Y-103716092D01*
X216417744Y-103668473D02*
X216751077Y-103668473D01*
X216893934Y-104192283D02*
X216417744Y-104192283D01*
X216417744Y-104192283D02*
X216417744Y-103192283D01*
X216417744Y-103192283D02*
X216893934Y-103192283D01*
X217655839Y-103668473D02*
X217322506Y-103668473D01*
X217322506Y-104192283D02*
X217322506Y-103192283D01*
X217322506Y-103192283D02*
X217798696Y-103192283D01*
X218322506Y-103192283D02*
X218322506Y-103430378D01*
X218084411Y-103335140D02*
X218322506Y-103430378D01*
X218322506Y-103430378D02*
X218560601Y-103335140D01*
X218179649Y-103620854D02*
X218322506Y-103430378D01*
X218322506Y-103430378D02*
X218465363Y-103620854D01*
X219084411Y-103192283D02*
X219084411Y-103430378D01*
X218846316Y-103335140D02*
X219084411Y-103430378D01*
X219084411Y-103430378D02*
X219322506Y-103335140D01*
X218941554Y-103620854D02*
X219084411Y-103430378D01*
X219084411Y-103430378D02*
X219227268Y-103620854D01*
X191702867Y-101358880D02*
X191369534Y-100882689D01*
X191131439Y-101358880D02*
X191131439Y-100358880D01*
X191131439Y-100358880D02*
X191512391Y-100358880D01*
X191512391Y-100358880D02*
X191607629Y-100406499D01*
X191607629Y-100406499D02*
X191655248Y-100454118D01*
X191655248Y-100454118D02*
X191702867Y-100549356D01*
X191702867Y-100549356D02*
X191702867Y-100692213D01*
X191702867Y-100692213D02*
X191655248Y-100787451D01*
X191655248Y-100787451D02*
X191607629Y-100835070D01*
X191607629Y-100835070D02*
X191512391Y-100882689D01*
X191512391Y-100882689D02*
X191131439Y-100882689D01*
X192131439Y-100835070D02*
X192464772Y-100835070D01*
X192607629Y-101358880D02*
X192131439Y-101358880D01*
X192131439Y-101358880D02*
X192131439Y-100358880D01*
X192131439Y-100358880D02*
X192607629Y-100358880D01*
X193369534Y-100835070D02*
X193036201Y-100835070D01*
X193036201Y-101358880D02*
X193036201Y-100358880D01*
X193036201Y-100358880D02*
X193512391Y-100358880D01*
X194036201Y-100358880D02*
X194036201Y-100596975D01*
X193798106Y-100501737D02*
X194036201Y-100596975D01*
X194036201Y-100596975D02*
X194274296Y-100501737D01*
X193893344Y-100787451D02*
X194036201Y-100596975D01*
X194036201Y-100596975D02*
X194179058Y-100787451D01*
X194798106Y-100358880D02*
X194798106Y-100596975D01*
X194560011Y-100501737D02*
X194798106Y-100596975D01*
X194798106Y-100596975D02*
X195036201Y-100501737D01*
X194655249Y-100787451D02*
X194798106Y-100596975D01*
X194798106Y-100596975D02*
X194940963Y-100787451D01*
X170807150Y-60184918D02*
X170473817Y-59708727D01*
X170235722Y-60184918D02*
X170235722Y-59184918D01*
X170235722Y-59184918D02*
X170616674Y-59184918D01*
X170616674Y-59184918D02*
X170711912Y-59232537D01*
X170711912Y-59232537D02*
X170759531Y-59280156D01*
X170759531Y-59280156D02*
X170807150Y-59375394D01*
X170807150Y-59375394D02*
X170807150Y-59518251D01*
X170807150Y-59518251D02*
X170759531Y-59613489D01*
X170759531Y-59613489D02*
X170711912Y-59661108D01*
X170711912Y-59661108D02*
X170616674Y-59708727D01*
X170616674Y-59708727D02*
X170235722Y-59708727D01*
X171235722Y-59661108D02*
X171569055Y-59661108D01*
X171711912Y-60184918D02*
X171235722Y-60184918D01*
X171235722Y-60184918D02*
X171235722Y-59184918D01*
X171235722Y-59184918D02*
X171711912Y-59184918D01*
X172473817Y-59661108D02*
X172140484Y-59661108D01*
X172140484Y-60184918D02*
X172140484Y-59184918D01*
X172140484Y-59184918D02*
X172616674Y-59184918D01*
X173140484Y-59184918D02*
X173140484Y-59423013D01*
X172902389Y-59327775D02*
X173140484Y-59423013D01*
X173140484Y-59423013D02*
X173378579Y-59327775D01*
X172997627Y-59613489D02*
X173140484Y-59423013D01*
X173140484Y-59423013D02*
X173283341Y-59613489D01*
X173902389Y-59184918D02*
X173902389Y-59423013D01*
X173664294Y-59327775D02*
X173902389Y-59423013D01*
X173902389Y-59423013D02*
X174140484Y-59327775D01*
X173759532Y-59613489D02*
X173902389Y-59423013D01*
X173902389Y-59423013D02*
X174045246Y-59613489D01*
%TO.C,SW01*%
X133529118Y-64729726D02*
X133679646Y-64725613D01*
X133679646Y-64725613D02*
X133903383Y-64644179D01*
X133903383Y-64644179D02*
X133976590Y-64566859D01*
X133976590Y-64566859D02*
X134005051Y-64505825D01*
X134005051Y-64505825D02*
X134017225Y-64400044D01*
X134017225Y-64400044D02*
X133984652Y-64310549D01*
X133984652Y-64310549D02*
X133907331Y-64237341D01*
X133907331Y-64237341D02*
X133846297Y-64208881D01*
X133846297Y-64208881D02*
X133740516Y-64196707D01*
X133740516Y-64196707D02*
X133545240Y-64217106D01*
X133545240Y-64217106D02*
X133439459Y-64204932D01*
X133439459Y-64204932D02*
X133378425Y-64176472D01*
X133378425Y-64176472D02*
X133301104Y-64103264D01*
X133301104Y-64103264D02*
X133268531Y-64013769D01*
X133268531Y-64013769D02*
X133280705Y-63907988D01*
X133280705Y-63907988D02*
X133309165Y-63846954D01*
X133309165Y-63846954D02*
X133382373Y-63769633D01*
X133382373Y-63769633D02*
X133606110Y-63688200D01*
X133606110Y-63688200D02*
X133756638Y-63684087D01*
X134053582Y-63525333D02*
X134619339Y-64383593D01*
X134619339Y-64383593D02*
X134554028Y-63647237D01*
X134554028Y-63647237D02*
X134977317Y-64253299D01*
X134977317Y-64253299D02*
X134859033Y-63232173D01*
X135396000Y-63036733D02*
X135485495Y-63004160D01*
X135485495Y-63004160D02*
X135591276Y-63016334D01*
X135591276Y-63016334D02*
X135652310Y-63044794D01*
X135652310Y-63044794D02*
X135729631Y-63118002D01*
X135729631Y-63118002D02*
X135839525Y-63280705D01*
X135839525Y-63280705D02*
X135920958Y-63504441D01*
X135920958Y-63504441D02*
X135941357Y-63699717D01*
X135941357Y-63699717D02*
X135929183Y-63805498D01*
X135929183Y-63805498D02*
X135900723Y-63866532D01*
X135900723Y-63866532D02*
X135827515Y-63943852D01*
X135827515Y-63943852D02*
X135738020Y-63976426D01*
X135738020Y-63976426D02*
X135632239Y-63964252D01*
X135632239Y-63964252D02*
X135571205Y-63935791D01*
X135571205Y-63935791D02*
X135493885Y-63862583D01*
X135493885Y-63862583D02*
X135383991Y-63699881D01*
X135383991Y-63699881D02*
X135302557Y-63476145D01*
X135302557Y-63476145D02*
X135282158Y-63280869D01*
X135282158Y-63280869D02*
X135294332Y-63175088D01*
X135294332Y-63175088D02*
X135322792Y-63114054D01*
X135322792Y-63114054D02*
X135396000Y-63036733D01*
X136946197Y-63536686D02*
X136409229Y-63732126D01*
X136677713Y-63634406D02*
X136335693Y-62694713D01*
X136335693Y-62694713D02*
X136295058Y-62861528D01*
X136295058Y-62861528D02*
X136238137Y-62983596D01*
X136238137Y-62983596D02*
X136164929Y-63060917D01*
%TO.C,SW3*%
X179675479Y-41197106D02*
X179824435Y-41219194D01*
X179824435Y-41219194D02*
X180058913Y-41177849D01*
X180058913Y-41177849D02*
X180144435Y-41114416D01*
X180144435Y-41114416D02*
X180183062Y-41059251D01*
X180183062Y-41059251D02*
X180213419Y-40957191D01*
X180213419Y-40957191D02*
X180196881Y-40863400D01*
X180196881Y-40863400D02*
X180133448Y-40777878D01*
X180133448Y-40777878D02*
X180078283Y-40739251D01*
X180078283Y-40739251D02*
X179976223Y-40708893D01*
X179976223Y-40708893D02*
X179780372Y-40695074D01*
X179780372Y-40695074D02*
X179678312Y-40664716D01*
X179678312Y-40664716D02*
X179623147Y-40626089D01*
X179623147Y-40626089D02*
X179559714Y-40540567D01*
X179559714Y-40540567D02*
X179543176Y-40446776D01*
X179543176Y-40446776D02*
X179573533Y-40344716D01*
X179573533Y-40344716D02*
X179612160Y-40289551D01*
X179612160Y-40289551D02*
X179697682Y-40226118D01*
X179697682Y-40226118D02*
X179932160Y-40184773D01*
X179932160Y-40184773D02*
X180081116Y-40206861D01*
X180401116Y-40102083D02*
X180809243Y-41045546D01*
X180809243Y-41045546D02*
X180872791Y-40309036D01*
X180872791Y-40309036D02*
X181184407Y-40979394D01*
X181184407Y-40979394D02*
X181245237Y-39953242D01*
X181526611Y-39903628D02*
X182136254Y-39796132D01*
X182136254Y-39796132D02*
X181874136Y-40229179D01*
X181874136Y-40229179D02*
X182014823Y-40204372D01*
X182014823Y-40204372D02*
X182116883Y-40234730D01*
X182116883Y-40234730D02*
X182172048Y-40273357D01*
X182172048Y-40273357D02*
X182235481Y-40358879D01*
X182235481Y-40358879D02*
X182276826Y-40593357D01*
X182276826Y-40593357D02*
X182246468Y-40695417D01*
X182246468Y-40695417D02*
X182207842Y-40750582D01*
X182207842Y-40750582D02*
X182122319Y-40814015D01*
X182122319Y-40814015D02*
X181840946Y-40863629D01*
X181840946Y-40863629D02*
X181738886Y-40833271D01*
X181738886Y-40833271D02*
X181683721Y-40794645D01*
%TO.C,REF\u002A\u002A*%
X194666666Y-47262619D02*
X194333333Y-46786428D01*
X194095238Y-47262619D02*
X194095238Y-46262619D01*
X194095238Y-46262619D02*
X194476190Y-46262619D01*
X194476190Y-46262619D02*
X194571428Y-46310238D01*
X194571428Y-46310238D02*
X194619047Y-46357857D01*
X194619047Y-46357857D02*
X194666666Y-46453095D01*
X194666666Y-46453095D02*
X194666666Y-46595952D01*
X194666666Y-46595952D02*
X194619047Y-46691190D01*
X194619047Y-46691190D02*
X194571428Y-46738809D01*
X194571428Y-46738809D02*
X194476190Y-46786428D01*
X194476190Y-46786428D02*
X194095238Y-46786428D01*
X195095238Y-46738809D02*
X195428571Y-46738809D01*
X195571428Y-47262619D02*
X195095238Y-47262619D01*
X195095238Y-47262619D02*
X195095238Y-46262619D01*
X195095238Y-46262619D02*
X195571428Y-46262619D01*
X196333333Y-46738809D02*
X196000000Y-46738809D01*
X196000000Y-47262619D02*
X196000000Y-46262619D01*
X196000000Y-46262619D02*
X196476190Y-46262619D01*
X197000000Y-46262619D02*
X197000000Y-46500714D01*
X196761905Y-46405476D02*
X197000000Y-46500714D01*
X197000000Y-46500714D02*
X197238095Y-46405476D01*
X196857143Y-46691190D02*
X197000000Y-46500714D01*
X197000000Y-46500714D02*
X197142857Y-46691190D01*
X197761905Y-46262619D02*
X197761905Y-46500714D01*
X197523810Y-46405476D02*
X197761905Y-46500714D01*
X197761905Y-46500714D02*
X198000000Y-46405476D01*
X197619048Y-46691190D02*
X197761905Y-46500714D01*
X197761905Y-46500714D02*
X197904762Y-46691190D01*
%TO.C,SW14*%
X259788984Y-133264400D02*
X259869705Y-133391522D01*
X259869705Y-133391522D02*
X260054347Y-133541844D01*
X260054347Y-133541844D02*
X260158268Y-133565045D01*
X260158268Y-133565045D02*
X260225261Y-133558181D01*
X260225261Y-133558181D02*
X260322318Y-133514388D01*
X260322318Y-133514388D02*
X260382447Y-133440532D01*
X260382447Y-133440532D02*
X260405647Y-133336610D01*
X260405647Y-133336610D02*
X260398783Y-133269618D01*
X260398783Y-133269618D02*
X260354991Y-133172560D01*
X260354991Y-133172560D02*
X260237342Y-133015374D01*
X260237342Y-133015374D02*
X260193549Y-132918317D01*
X260193549Y-132918317D02*
X260186685Y-132851324D01*
X260186685Y-132851324D02*
X260209886Y-132747403D01*
X260209886Y-132747403D02*
X260270015Y-132673546D01*
X260270015Y-132673546D02*
X260367072Y-132629754D01*
X260367072Y-132629754D02*
X260434065Y-132622890D01*
X260434065Y-132622890D02*
X260537986Y-132646091D01*
X260537986Y-132646091D02*
X260722628Y-132796413D01*
X260722628Y-132796413D02*
X260803348Y-132923534D01*
X261091911Y-133097057D02*
X260645201Y-134022875D01*
X260645201Y-134022875D02*
X261243880Y-133589207D01*
X261243880Y-133589207D02*
X260940627Y-134263390D01*
X260940627Y-134263390D02*
X261756622Y-133638216D01*
X261826908Y-134984936D02*
X261383768Y-134624163D01*
X261605338Y-134804550D02*
X262236691Y-134029054D01*
X262236691Y-134029054D02*
X262072641Y-134079710D01*
X262072641Y-134079710D02*
X261938655Y-134093438D01*
X261938655Y-134093438D02*
X261834734Y-134070238D01*
X262912521Y-135009098D02*
X262491619Y-135526096D01*
X262968394Y-134563349D02*
X262332786Y-134966953D01*
X262332786Y-134966953D02*
X262812855Y-135357790D01*
%TO.C,SW13*%
X242702235Y-120585609D02*
X242793519Y-120705371D01*
X242793519Y-120705371D02*
X242990326Y-120839373D01*
X242990326Y-120839373D02*
X243095849Y-120853612D01*
X243095849Y-120853612D02*
X243162010Y-120841050D01*
X243162010Y-120841050D02*
X243254972Y-120789128D01*
X243254972Y-120789128D02*
X243308573Y-120710405D01*
X243308573Y-120710405D02*
X243322812Y-120604882D01*
X243322812Y-120604882D02*
X243310251Y-120538720D01*
X243310251Y-120538720D02*
X243258328Y-120445758D01*
X243258328Y-120445758D02*
X243127683Y-120299196D01*
X243127683Y-120299196D02*
X243075760Y-120206234D01*
X243075760Y-120206234D02*
X243063199Y-120140073D01*
X243063199Y-120140073D02*
X243077438Y-120034549D01*
X243077438Y-120034549D02*
X243131038Y-119955827D01*
X243131038Y-119955827D02*
X243224000Y-119903904D01*
X243224000Y-119903904D02*
X243290162Y-119891343D01*
X243290162Y-119891343D02*
X243395685Y-119905582D01*
X243395685Y-119905582D02*
X243592492Y-120039583D01*
X243592492Y-120039583D02*
X243683776Y-120159345D01*
X243986106Y-120307585D02*
X243620108Y-121268176D01*
X243620108Y-121268176D02*
X244179558Y-120784956D01*
X244179558Y-120784956D02*
X243935000Y-121482578D01*
X243935000Y-121482578D02*
X244694612Y-120789990D01*
X244879674Y-122125784D02*
X244407337Y-121804181D01*
X244643505Y-121964982D02*
X245206310Y-121138393D01*
X245206310Y-121138393D02*
X245047187Y-121202876D01*
X245047187Y-121202876D02*
X244914863Y-121227999D01*
X244914863Y-121227999D02*
X244809340Y-121213760D01*
X245718009Y-121486796D02*
X246229707Y-121835199D01*
X246229707Y-121835199D02*
X245739775Y-121962488D01*
X245739775Y-121962488D02*
X245857859Y-122042889D01*
X245857859Y-122042889D02*
X245909782Y-122135851D01*
X245909782Y-122135851D02*
X245922343Y-122202013D01*
X245922343Y-122202013D02*
X245908104Y-122307536D01*
X245908104Y-122307536D02*
X245774103Y-122504343D01*
X245774103Y-122504343D02*
X245681141Y-122556265D01*
X245681141Y-122556265D02*
X245614979Y-122568827D01*
X245614979Y-122568827D02*
X245509456Y-122554588D01*
X245509456Y-122554588D02*
X245273288Y-122393786D01*
X245273288Y-122393786D02*
X245221365Y-122300824D01*
X245221365Y-122300824D02*
X245208804Y-122234663D01*
%TO.C,SW10*%
X164694676Y-88395524D02*
X164844990Y-88404546D01*
X164844990Y-88404546D02*
X165074972Y-88342923D01*
X165074972Y-88342923D02*
X165154640Y-88272277D01*
X165154640Y-88272277D02*
X165188312Y-88213956D01*
X165188312Y-88213956D02*
X165209659Y-88109638D01*
X165209659Y-88109638D02*
X165185010Y-88017645D01*
X165185010Y-88017645D02*
X165114364Y-87937977D01*
X165114364Y-87937977D02*
X165056043Y-87904305D01*
X165056043Y-87904305D02*
X164951725Y-87882958D01*
X164951725Y-87882958D02*
X164755414Y-87886260D01*
X164755414Y-87886260D02*
X164651097Y-87864913D01*
X164651097Y-87864913D02*
X164592775Y-87831242D01*
X164592775Y-87831242D02*
X164522130Y-87751573D01*
X164522130Y-87751573D02*
X164497480Y-87659580D01*
X164497480Y-87659580D02*
X164518827Y-87555263D01*
X164518827Y-87555263D02*
X164552499Y-87496942D01*
X164552499Y-87496942D02*
X164632167Y-87426296D01*
X164632167Y-87426296D02*
X164862150Y-87364672D01*
X164862150Y-87364672D02*
X165012464Y-87373694D01*
X165322114Y-87241425D02*
X165810916Y-88145727D01*
X165810916Y-88145727D02*
X165810031Y-87406481D01*
X165810031Y-87406481D02*
X166178887Y-88047129D01*
X166178887Y-88047129D02*
X166150051Y-87019580D01*
X167282802Y-87751336D02*
X166730845Y-87899233D01*
X167006824Y-87825285D02*
X166748005Y-86859359D01*
X166748005Y-86859359D02*
X166692986Y-87021998D01*
X166692986Y-87021998D02*
X166625642Y-87138640D01*
X166625642Y-87138640D02*
X166545974Y-87209286D01*
X167621938Y-86625189D02*
X167713930Y-86600540D01*
X167713930Y-86600540D02*
X167818248Y-86621887D01*
X167818248Y-86621887D02*
X167876569Y-86655559D01*
X167876569Y-86655559D02*
X167947215Y-86735227D01*
X167947215Y-86735227D02*
X168042511Y-86906888D01*
X168042511Y-86906888D02*
X168104134Y-87136870D01*
X168104134Y-87136870D02*
X168107437Y-87333181D01*
X168107437Y-87333181D02*
X168086089Y-87437498D01*
X168086089Y-87437498D02*
X168052418Y-87495820D01*
X168052418Y-87495820D02*
X167972750Y-87566466D01*
X167972750Y-87566466D02*
X167880757Y-87591115D01*
X167880757Y-87591115D02*
X167776439Y-87569768D01*
X167776439Y-87569768D02*
X167718118Y-87536096D01*
X167718118Y-87536096D02*
X167647472Y-87456428D01*
X167647472Y-87456428D02*
X167552177Y-87284767D01*
X167552177Y-87284767D02*
X167490553Y-87054784D01*
X167490553Y-87054784D02*
X167487251Y-86858474D01*
X167487251Y-86858474D02*
X167508598Y-86754156D01*
X167508598Y-86754156D02*
X167542269Y-86695835D01*
X167542269Y-86695835D02*
X167621938Y-86625189D01*
%TO.C,J2*%
X253366666Y-57892619D02*
X253366666Y-58606904D01*
X253366666Y-58606904D02*
X253319047Y-58749761D01*
X253319047Y-58749761D02*
X253223809Y-58845000D01*
X253223809Y-58845000D02*
X253080952Y-58892619D01*
X253080952Y-58892619D02*
X252985714Y-58892619D01*
X253795238Y-57987857D02*
X253842857Y-57940238D01*
X253842857Y-57940238D02*
X253938095Y-57892619D01*
X253938095Y-57892619D02*
X254176190Y-57892619D01*
X254176190Y-57892619D02*
X254271428Y-57940238D01*
X254271428Y-57940238D02*
X254319047Y-57987857D01*
X254319047Y-57987857D02*
X254366666Y-58083095D01*
X254366666Y-58083095D02*
X254366666Y-58178333D01*
X254366666Y-58178333D02*
X254319047Y-58321190D01*
X254319047Y-58321190D02*
X253747619Y-58892619D01*
X253747619Y-58892619D02*
X254366666Y-58892619D01*
%TO.C,REF*%
X257928571Y-92262619D02*
X257595238Y-91786428D01*
X257357143Y-92262619D02*
X257357143Y-91262619D01*
X257357143Y-91262619D02*
X257738095Y-91262619D01*
X257738095Y-91262619D02*
X257833333Y-91310238D01*
X257833333Y-91310238D02*
X257880952Y-91357857D01*
X257880952Y-91357857D02*
X257928571Y-91453095D01*
X257928571Y-91453095D02*
X257928571Y-91595952D01*
X257928571Y-91595952D02*
X257880952Y-91691190D01*
X257880952Y-91691190D02*
X257833333Y-91738809D01*
X257833333Y-91738809D02*
X257738095Y-91786428D01*
X257738095Y-91786428D02*
X257357143Y-91786428D01*
X258357143Y-91738809D02*
X258690476Y-91738809D01*
X258833333Y-92262619D02*
X258357143Y-92262619D01*
X258357143Y-92262619D02*
X258357143Y-91262619D01*
X258357143Y-91262619D02*
X258833333Y-91262619D01*
X259595238Y-91738809D02*
X259261905Y-91738809D01*
X259261905Y-92262619D02*
X259261905Y-91262619D01*
X259261905Y-91262619D02*
X259738095Y-91262619D01*
%TO.C,SW5*%
X140854181Y-83307228D02*
X141004709Y-83303115D01*
X141004709Y-83303115D02*
X141228446Y-83221681D01*
X141228446Y-83221681D02*
X141301654Y-83144361D01*
X141301654Y-83144361D02*
X141330114Y-83083327D01*
X141330114Y-83083327D02*
X141342288Y-82977546D01*
X141342288Y-82977546D02*
X141309715Y-82888051D01*
X141309715Y-82888051D02*
X141232394Y-82814843D01*
X141232394Y-82814843D02*
X141171360Y-82786383D01*
X141171360Y-82786383D02*
X141065579Y-82774209D01*
X141065579Y-82774209D02*
X140870303Y-82794608D01*
X140870303Y-82794608D02*
X140764522Y-82782434D01*
X140764522Y-82782434D02*
X140703488Y-82753974D01*
X140703488Y-82753974D02*
X140626167Y-82680766D01*
X140626167Y-82680766D02*
X140593594Y-82591271D01*
X140593594Y-82591271D02*
X140605768Y-82485490D01*
X140605768Y-82485490D02*
X140634229Y-82424456D01*
X140634229Y-82424456D02*
X140707436Y-82347136D01*
X140707436Y-82347136D02*
X140931173Y-82265702D01*
X140931173Y-82265702D02*
X141081701Y-82261589D01*
X141378646Y-82102835D02*
X141944402Y-82961095D01*
X141944402Y-82961095D02*
X141879091Y-82224739D01*
X141879091Y-82224739D02*
X142302380Y-82830801D01*
X142302380Y-82830801D02*
X142184096Y-81809675D01*
X142989547Y-81516515D02*
X142542074Y-81679382D01*
X142542074Y-81679382D02*
X142660194Y-82143141D01*
X142660194Y-82143141D02*
X142688654Y-82082107D01*
X142688654Y-82082107D02*
X142761862Y-82004787D01*
X142761862Y-82004787D02*
X142985599Y-81923353D01*
X142985599Y-81923353D02*
X143091380Y-81935527D01*
X143091380Y-81935527D02*
X143152414Y-81963988D01*
X143152414Y-81963988D02*
X143229734Y-82037196D01*
X143229734Y-82037196D02*
X143311168Y-82260932D01*
X143311168Y-82260932D02*
X143298994Y-82366713D01*
X143298994Y-82366713D02*
X143270533Y-82427747D01*
X143270533Y-82427747D02*
X143197325Y-82505068D01*
X143197325Y-82505068D02*
X142973589Y-82586501D01*
X142973589Y-82586501D02*
X142867808Y-82574327D01*
X142867808Y-82574327D02*
X142806774Y-82545867D01*
%TO.C,SW12*%
X207785943Y-87322446D02*
X207929170Y-87368941D01*
X207929170Y-87368941D02*
X208167257Y-87367071D01*
X208167257Y-87367071D02*
X208262119Y-87318706D01*
X208262119Y-87318706D02*
X208309362Y-87270714D01*
X208309362Y-87270714D02*
X208356232Y-87175105D01*
X208356232Y-87175105D02*
X208355484Y-87079870D01*
X208355484Y-87079870D02*
X208307118Y-86985009D01*
X208307118Y-86985009D02*
X208259127Y-86937765D01*
X208259127Y-86937765D02*
X208163518Y-86890895D01*
X208163518Y-86890895D02*
X207972673Y-86844774D01*
X207972673Y-86844774D02*
X207877064Y-86797904D01*
X207877064Y-86797904D02*
X207829073Y-86750661D01*
X207829073Y-86750661D02*
X207780707Y-86655799D01*
X207780707Y-86655799D02*
X207779959Y-86560564D01*
X207779959Y-86560564D02*
X207826829Y-86464955D01*
X207826829Y-86464955D02*
X207874072Y-86416964D01*
X207874072Y-86416964D02*
X207968933Y-86368598D01*
X207968933Y-86368598D02*
X208207021Y-86366728D01*
X208207021Y-86366728D02*
X208350248Y-86413224D01*
X208683197Y-86362988D02*
X208929139Y-87361087D01*
X208929139Y-87361087D02*
X209113999Y-86645328D01*
X209113999Y-86645328D02*
X209310079Y-87358095D01*
X209310079Y-87358095D02*
X209540313Y-86356256D01*
X210452901Y-87349119D02*
X209881490Y-87353607D01*
X210167196Y-87351363D02*
X210159342Y-86351394D01*
X210159342Y-86351394D02*
X210065229Y-86494995D01*
X210065229Y-86494995D02*
X209970741Y-86590978D01*
X209970741Y-86590978D02*
X209875880Y-86639344D01*
X210826736Y-86441393D02*
X210873980Y-86393402D01*
X210873980Y-86393402D02*
X210968841Y-86345036D01*
X210968841Y-86345036D02*
X211206929Y-86343166D01*
X211206929Y-86343166D02*
X211302538Y-86390036D01*
X211302538Y-86390036D02*
X211350529Y-86437279D01*
X211350529Y-86437279D02*
X211398895Y-86532141D01*
X211398895Y-86532141D02*
X211399643Y-86627376D01*
X211399643Y-86627376D02*
X211353147Y-86770603D01*
X211353147Y-86770603D02*
X210786224Y-87346501D01*
X210786224Y-87346501D02*
X211405253Y-87341639D01*
%TO.C,SW9*%
X147694584Y-102101080D02*
X147845112Y-102096967D01*
X147845112Y-102096967D02*
X148068849Y-102015533D01*
X148068849Y-102015533D02*
X148142057Y-101938213D01*
X148142057Y-101938213D02*
X148170517Y-101877179D01*
X148170517Y-101877179D02*
X148182691Y-101771398D01*
X148182691Y-101771398D02*
X148150118Y-101681903D01*
X148150118Y-101681903D02*
X148072797Y-101608695D01*
X148072797Y-101608695D02*
X148011763Y-101580235D01*
X148011763Y-101580235D02*
X147905982Y-101568061D01*
X147905982Y-101568061D02*
X147710706Y-101588460D01*
X147710706Y-101588460D02*
X147604925Y-101576286D01*
X147604925Y-101576286D02*
X147543891Y-101547826D01*
X147543891Y-101547826D02*
X147466570Y-101474618D01*
X147466570Y-101474618D02*
X147433997Y-101385123D01*
X147433997Y-101385123D02*
X147446171Y-101279342D01*
X147446171Y-101279342D02*
X147474632Y-101218308D01*
X147474632Y-101218308D02*
X147547839Y-101140988D01*
X147547839Y-101140988D02*
X147771576Y-101059554D01*
X147771576Y-101059554D02*
X147922104Y-101055441D01*
X148219049Y-100896687D02*
X148784805Y-101754947D01*
X148784805Y-101754947D02*
X148719494Y-101018591D01*
X148719494Y-101018591D02*
X149142783Y-101624653D01*
X149142783Y-101624653D02*
X149024499Y-100603527D01*
X149769245Y-101396640D02*
X149948234Y-101331493D01*
X149948234Y-101331493D02*
X150021442Y-101254173D01*
X150021442Y-101254173D02*
X150049902Y-101193139D01*
X150049902Y-101193139D02*
X150090537Y-101026324D01*
X150090537Y-101026324D02*
X150070137Y-100831048D01*
X150070137Y-100831048D02*
X149939844Y-100473070D01*
X149939844Y-100473070D02*
X149862523Y-100399862D01*
X149862523Y-100399862D02*
X149801489Y-100371401D01*
X149801489Y-100371401D02*
X149695708Y-100359227D01*
X149695708Y-100359227D02*
X149516719Y-100424374D01*
X149516719Y-100424374D02*
X149443511Y-100501695D01*
X149443511Y-100501695D02*
X149415051Y-100562729D01*
X149415051Y-100562729D02*
X149402877Y-100668510D01*
X149402877Y-100668510D02*
X149484310Y-100892246D01*
X149484310Y-100892246D02*
X149561631Y-100965454D01*
X149561631Y-100965454D02*
X149622665Y-100993915D01*
X149622665Y-100993915D02*
X149728446Y-101006088D01*
X149728446Y-101006088D02*
X149907435Y-100940942D01*
X149907435Y-100940942D02*
X149980643Y-100863621D01*
X149980643Y-100863621D02*
X150009103Y-100802587D01*
X150009103Y-100802587D02*
X150021277Y-100696806D01*
%TO.C,REF\u002A\u002A*%
X228132324Y-116537821D02*
X227798991Y-116061630D01*
X227560896Y-116537821D02*
X227560896Y-115537821D01*
X227560896Y-115537821D02*
X227941848Y-115537821D01*
X227941848Y-115537821D02*
X228037086Y-115585440D01*
X228037086Y-115585440D02*
X228084705Y-115633059D01*
X228084705Y-115633059D02*
X228132324Y-115728297D01*
X228132324Y-115728297D02*
X228132324Y-115871154D01*
X228132324Y-115871154D02*
X228084705Y-115966392D01*
X228084705Y-115966392D02*
X228037086Y-116014011D01*
X228037086Y-116014011D02*
X227941848Y-116061630D01*
X227941848Y-116061630D02*
X227560896Y-116061630D01*
X228560896Y-116014011D02*
X228894229Y-116014011D01*
X229037086Y-116537821D02*
X228560896Y-116537821D01*
X228560896Y-116537821D02*
X228560896Y-115537821D01*
X228560896Y-115537821D02*
X229037086Y-115537821D01*
X229798991Y-116014011D02*
X229465658Y-116014011D01*
X229465658Y-116537821D02*
X229465658Y-115537821D01*
X229465658Y-115537821D02*
X229941848Y-115537821D01*
X230465658Y-115537821D02*
X230465658Y-115775916D01*
X230227563Y-115680678D02*
X230465658Y-115775916D01*
X230465658Y-115775916D02*
X230703753Y-115680678D01*
X230322801Y-115966392D02*
X230465658Y-115775916D01*
X230465658Y-115775916D02*
X230608515Y-115966392D01*
X231227563Y-115537821D02*
X231227563Y-115775916D01*
X230989468Y-115680678D02*
X231227563Y-115775916D01*
X231227563Y-115775916D02*
X231465658Y-115680678D01*
X231084706Y-115966392D02*
X231227563Y-115775916D01*
X231227563Y-115775916D02*
X231370420Y-115966392D01*
X256666666Y-155262619D02*
X256333333Y-154786428D01*
X256095238Y-155262619D02*
X256095238Y-154262619D01*
X256095238Y-154262619D02*
X256476190Y-154262619D01*
X256476190Y-154262619D02*
X256571428Y-154310238D01*
X256571428Y-154310238D02*
X256619047Y-154357857D01*
X256619047Y-154357857D02*
X256666666Y-154453095D01*
X256666666Y-154453095D02*
X256666666Y-154595952D01*
X256666666Y-154595952D02*
X256619047Y-154691190D01*
X256619047Y-154691190D02*
X256571428Y-154738809D01*
X256571428Y-154738809D02*
X256476190Y-154786428D01*
X256476190Y-154786428D02*
X256095238Y-154786428D01*
X257095238Y-154738809D02*
X257428571Y-154738809D01*
X257571428Y-155262619D02*
X257095238Y-155262619D01*
X257095238Y-155262619D02*
X257095238Y-154262619D01*
X257095238Y-154262619D02*
X257571428Y-154262619D01*
X258333333Y-154738809D02*
X258000000Y-154738809D01*
X258000000Y-155262619D02*
X258000000Y-154262619D01*
X258000000Y-154262619D02*
X258476190Y-154262619D01*
X259000000Y-154262619D02*
X259000000Y-154500714D01*
X258761905Y-154405476D02*
X259000000Y-154500714D01*
X259000000Y-154500714D02*
X259238095Y-154405476D01*
X258857143Y-154691190D02*
X259000000Y-154500714D01*
X259000000Y-154500714D02*
X259142857Y-154691190D01*
X259761905Y-154262619D02*
X259761905Y-154500714D01*
X259523810Y-154405476D02*
X259761905Y-154500714D01*
X259761905Y-154500714D02*
X260000000Y-154405476D01*
X259619048Y-154691190D02*
X259761905Y-154500714D01*
X259761905Y-154500714D02*
X259904762Y-154691190D01*
%TO.C,U1*%
X233311095Y-65136619D02*
X233311095Y-65946142D01*
X233311095Y-65946142D02*
X233358714Y-66041380D01*
X233358714Y-66041380D02*
X233406333Y-66089000D01*
X233406333Y-66089000D02*
X233501571Y-66136619D01*
X233501571Y-66136619D02*
X233692047Y-66136619D01*
X233692047Y-66136619D02*
X233787285Y-66089000D01*
X233787285Y-66089000D02*
X233834904Y-66041380D01*
X233834904Y-66041380D02*
X233882523Y-65946142D01*
X233882523Y-65946142D02*
X233882523Y-65136619D01*
X234882523Y-66136619D02*
X234311095Y-66136619D01*
X234596809Y-66136619D02*
X234596809Y-65136619D01*
X234596809Y-65136619D02*
X234501571Y-65279476D01*
X234501571Y-65279476D02*
X234406333Y-65374714D01*
X234406333Y-65374714D02*
X234311095Y-65422333D01*
X246799265Y-53839757D02*
X247553512Y-54216881D01*
X247553512Y-54216881D02*
X247176388Y-53462634D01*
X248253884Y-53516509D02*
X247795948Y-53435697D01*
X247930635Y-53839758D02*
X247364950Y-53274072D01*
X247364950Y-53274072D02*
X247580449Y-53058573D01*
X247580449Y-53058573D02*
X247661261Y-53031636D01*
X247661261Y-53031636D02*
X247715136Y-53031636D01*
X247715136Y-53031636D02*
X247795948Y-53058573D01*
X247795948Y-53058573D02*
X247876760Y-53139385D01*
X247876760Y-53139385D02*
X247903698Y-53220197D01*
X247903698Y-53220197D02*
X247903698Y-53274072D01*
X247903698Y-53274072D02*
X247876760Y-53354884D01*
X247876760Y-53354884D02*
X247661261Y-53570384D01*
X248200009Y-52977761D02*
X248388571Y-52789199D01*
X248765695Y-53004698D02*
X248496321Y-53274072D01*
X248496321Y-53274072D02*
X247930635Y-52708387D01*
X247930635Y-52708387D02*
X248200009Y-52439013D01*
X248900382Y-52277388D02*
X248711820Y-52465950D01*
X249008132Y-52762261D02*
X248442446Y-52196576D01*
X248442446Y-52196576D02*
X248711820Y-51927202D01*
X246164950Y-72177946D02*
X246084138Y-72204884D01*
X246084138Y-72204884D02*
X246003326Y-72285696D01*
X246003326Y-72285696D02*
X245949451Y-72393446D01*
X245949451Y-72393446D02*
X245949451Y-72501195D01*
X245949451Y-72501195D02*
X245976389Y-72582007D01*
X245976389Y-72582007D02*
X246057201Y-72716694D01*
X246057201Y-72716694D02*
X246138013Y-72797507D01*
X246138013Y-72797507D02*
X246272700Y-72878319D01*
X246272700Y-72878319D02*
X246353512Y-72905256D01*
X246353512Y-72905256D02*
X246461262Y-72905256D01*
X246461262Y-72905256D02*
X246569011Y-72851381D01*
X246569011Y-72851381D02*
X246622886Y-72797507D01*
X246622886Y-72797507D02*
X246676761Y-72689757D01*
X246676761Y-72689757D02*
X246676761Y-72635882D01*
X246676761Y-72635882D02*
X246488199Y-72447320D01*
X246488199Y-72447320D02*
X246380450Y-72555070D01*
X246973072Y-72447320D02*
X246407387Y-71881635D01*
X246407387Y-71881635D02*
X247296321Y-72124072D01*
X247296321Y-72124072D02*
X246730636Y-71558386D01*
X247565695Y-71854698D02*
X247000010Y-71289012D01*
X247000010Y-71289012D02*
X247134697Y-71154325D01*
X247134697Y-71154325D02*
X247242446Y-71100450D01*
X247242446Y-71100450D02*
X247350196Y-71100450D01*
X247350196Y-71100450D02*
X247431008Y-71127388D01*
X247431008Y-71127388D02*
X247565695Y-71208200D01*
X247565695Y-71208200D02*
X247646507Y-71289012D01*
X247646507Y-71289012D02*
X247727319Y-71423699D01*
X247727319Y-71423699D02*
X247754257Y-71504511D01*
X247754257Y-71504511D02*
X247754257Y-71612261D01*
X247754257Y-71612261D02*
X247700382Y-71720011D01*
X247700382Y-71720011D02*
X247565695Y-71854698D01*
X220591888Y-69611009D02*
X220511075Y-69637946D01*
X220511075Y-69637946D02*
X220430263Y-69718759D01*
X220430263Y-69718759D02*
X220376388Y-69826508D01*
X220376388Y-69826508D02*
X220376388Y-69934258D01*
X220376388Y-69934258D02*
X220403326Y-70015070D01*
X220403326Y-70015070D02*
X220484138Y-70149757D01*
X220484138Y-70149757D02*
X220564950Y-70230569D01*
X220564950Y-70230569D02*
X220699637Y-70311382D01*
X220699637Y-70311382D02*
X220780449Y-70338319D01*
X220780449Y-70338319D02*
X220888199Y-70338319D01*
X220888199Y-70338319D02*
X220995949Y-70284444D01*
X220995949Y-70284444D02*
X221049823Y-70230569D01*
X221049823Y-70230569D02*
X221103698Y-70122820D01*
X221103698Y-70122820D02*
X221103698Y-70068945D01*
X221103698Y-70068945D02*
X220915136Y-69880383D01*
X220915136Y-69880383D02*
X220807387Y-69988133D01*
X221400010Y-69880383D02*
X220834324Y-69314698D01*
X220834324Y-69314698D02*
X221049823Y-69099198D01*
X221049823Y-69099198D02*
X221130636Y-69072261D01*
X221130636Y-69072261D02*
X221184510Y-69072261D01*
X221184510Y-69072261D02*
X221265323Y-69099198D01*
X221265323Y-69099198D02*
X221346135Y-69180011D01*
X221346135Y-69180011D02*
X221373072Y-69260823D01*
X221373072Y-69260823D02*
X221373072Y-69314698D01*
X221373072Y-69314698D02*
X221346135Y-69395510D01*
X221346135Y-69395510D02*
X221130636Y-69611009D01*
X221992632Y-69287760D02*
X222100382Y-69180011D01*
X222100382Y-69180011D02*
X222127319Y-69099198D01*
X222127319Y-69099198D02*
X222127319Y-69045324D01*
X222127319Y-69045324D02*
X222100382Y-68910637D01*
X222100382Y-68910637D02*
X222019570Y-68775950D01*
X222019570Y-68775950D02*
X221804071Y-68560450D01*
X221804071Y-68560450D02*
X221723258Y-68533513D01*
X221723258Y-68533513D02*
X221669384Y-68533513D01*
X221669384Y-68533513D02*
X221588571Y-68560450D01*
X221588571Y-68560450D02*
X221480822Y-68668200D01*
X221480822Y-68668200D02*
X221453884Y-68749012D01*
X221453884Y-68749012D02*
X221453884Y-68802887D01*
X221453884Y-68802887D02*
X221480822Y-68883699D01*
X221480822Y-68883699D02*
X221615509Y-69018386D01*
X221615509Y-69018386D02*
X221696321Y-69045324D01*
X221696321Y-69045324D02*
X221750196Y-69045324D01*
X221750196Y-69045324D02*
X221831008Y-69018386D01*
X221831008Y-69018386D02*
X221938758Y-68910637D01*
X221938758Y-68910637D02*
X221965695Y-68829824D01*
X221965695Y-68829824D02*
X221965695Y-68775950D01*
X221965695Y-68775950D02*
X221938758Y-68695137D01*
X246176513Y-87660384D02*
X246095701Y-87687321D01*
X246095701Y-87687321D02*
X246014889Y-87768133D01*
X246014889Y-87768133D02*
X245961014Y-87875883D01*
X245961014Y-87875883D02*
X245961014Y-87983632D01*
X245961014Y-87983632D02*
X245987951Y-88064445D01*
X245987951Y-88064445D02*
X246068764Y-88199132D01*
X246068764Y-88199132D02*
X246149576Y-88279944D01*
X246149576Y-88279944D02*
X246284263Y-88360756D01*
X246284263Y-88360756D02*
X246365075Y-88387693D01*
X246365075Y-88387693D02*
X246472825Y-88387693D01*
X246472825Y-88387693D02*
X246580574Y-88333819D01*
X246580574Y-88333819D02*
X246634449Y-88279944D01*
X246634449Y-88279944D02*
X246688324Y-88172194D01*
X246688324Y-88172194D02*
X246688324Y-88118319D01*
X246688324Y-88118319D02*
X246499762Y-87929758D01*
X246499762Y-87929758D02*
X246392012Y-88037507D01*
X246984635Y-87929758D02*
X246418950Y-87364072D01*
X246418950Y-87364072D02*
X246634449Y-87148573D01*
X246634449Y-87148573D02*
X246715261Y-87121636D01*
X246715261Y-87121636D02*
X246769136Y-87121636D01*
X246769136Y-87121636D02*
X246849948Y-87148573D01*
X246849948Y-87148573D02*
X246930760Y-87229385D01*
X246930760Y-87229385D02*
X246957698Y-87310197D01*
X246957698Y-87310197D02*
X246957698Y-87364072D01*
X246957698Y-87364072D02*
X246930760Y-87444884D01*
X246930760Y-87444884D02*
X246715261Y-87660384D01*
X247846632Y-87067761D02*
X247523383Y-87391010D01*
X247685008Y-87229385D02*
X247119322Y-86663700D01*
X247119322Y-86663700D02*
X247146260Y-86798387D01*
X247146260Y-86798387D02*
X247146260Y-86906136D01*
X247146260Y-86906136D02*
X247119322Y-86986948D01*
X247469509Y-86313513D02*
X247846632Y-85936390D01*
X247846632Y-85936390D02*
X248169881Y-86744512D01*
X220068513Y-74960384D02*
X219987701Y-74987321D01*
X219987701Y-74987321D02*
X219906889Y-75068133D01*
X219906889Y-75068133D02*
X219853014Y-75175883D01*
X219853014Y-75175883D02*
X219853014Y-75283632D01*
X219853014Y-75283632D02*
X219879951Y-75364445D01*
X219879951Y-75364445D02*
X219960764Y-75499132D01*
X219960764Y-75499132D02*
X220041576Y-75579944D01*
X220041576Y-75579944D02*
X220176263Y-75660756D01*
X220176263Y-75660756D02*
X220257075Y-75687693D01*
X220257075Y-75687693D02*
X220364825Y-75687693D01*
X220364825Y-75687693D02*
X220472574Y-75633819D01*
X220472574Y-75633819D02*
X220526449Y-75579944D01*
X220526449Y-75579944D02*
X220580324Y-75472194D01*
X220580324Y-75472194D02*
X220580324Y-75418319D01*
X220580324Y-75418319D02*
X220391762Y-75229758D01*
X220391762Y-75229758D02*
X220284012Y-75337507D01*
X220876635Y-75229758D02*
X220310950Y-74664072D01*
X220310950Y-74664072D02*
X220526449Y-74448573D01*
X220526449Y-74448573D02*
X220607261Y-74421636D01*
X220607261Y-74421636D02*
X220661136Y-74421636D01*
X220661136Y-74421636D02*
X220741948Y-74448573D01*
X220741948Y-74448573D02*
X220822760Y-74529385D01*
X220822760Y-74529385D02*
X220849698Y-74610197D01*
X220849698Y-74610197D02*
X220849698Y-74664072D01*
X220849698Y-74664072D02*
X220822760Y-74744884D01*
X220822760Y-74744884D02*
X220607261Y-74960384D01*
X221738632Y-74367761D02*
X221415383Y-74691010D01*
X221577008Y-74529385D02*
X221011322Y-73963700D01*
X221011322Y-73963700D02*
X221038260Y-74098387D01*
X221038260Y-74098387D02*
X221038260Y-74206136D01*
X221038260Y-74206136D02*
X221011322Y-74286948D01*
X221523133Y-73451889D02*
X221577008Y-73398014D01*
X221577008Y-73398014D02*
X221657820Y-73371077D01*
X221657820Y-73371077D02*
X221711695Y-73371077D01*
X221711695Y-73371077D02*
X221792507Y-73398014D01*
X221792507Y-73398014D02*
X221927194Y-73478826D01*
X221927194Y-73478826D02*
X222061881Y-73613513D01*
X222061881Y-73613513D02*
X222142693Y-73748200D01*
X222142693Y-73748200D02*
X222169631Y-73829013D01*
X222169631Y-73829013D02*
X222169631Y-73882887D01*
X222169631Y-73882887D02*
X222142693Y-73963700D01*
X222142693Y-73963700D02*
X222088818Y-74017574D01*
X222088818Y-74017574D02*
X222008006Y-74044512D01*
X222008006Y-74044512D02*
X221954131Y-74044512D01*
X221954131Y-74044512D02*
X221873319Y-74017574D01*
X221873319Y-74017574D02*
X221738632Y-73936762D01*
X221738632Y-73936762D02*
X221603945Y-73802075D01*
X221603945Y-73802075D02*
X221523133Y-73667388D01*
X221523133Y-73667388D02*
X221496196Y-73586576D01*
X221496196Y-73586576D02*
X221496196Y-73532701D01*
X221496196Y-73532701D02*
X221523133Y-73451889D01*
X219922513Y-80040384D02*
X219841701Y-80067321D01*
X219841701Y-80067321D02*
X219760889Y-80148133D01*
X219760889Y-80148133D02*
X219707014Y-80255883D01*
X219707014Y-80255883D02*
X219707014Y-80363632D01*
X219707014Y-80363632D02*
X219733951Y-80444445D01*
X219733951Y-80444445D02*
X219814764Y-80579132D01*
X219814764Y-80579132D02*
X219895576Y-80659944D01*
X219895576Y-80659944D02*
X220030263Y-80740756D01*
X220030263Y-80740756D02*
X220111075Y-80767693D01*
X220111075Y-80767693D02*
X220218825Y-80767693D01*
X220218825Y-80767693D02*
X220326574Y-80713819D01*
X220326574Y-80713819D02*
X220380449Y-80659944D01*
X220380449Y-80659944D02*
X220434324Y-80552194D01*
X220434324Y-80552194D02*
X220434324Y-80498319D01*
X220434324Y-80498319D02*
X220245762Y-80309758D01*
X220245762Y-80309758D02*
X220138012Y-80417507D01*
X220730635Y-80309758D02*
X220164950Y-79744072D01*
X220164950Y-79744072D02*
X220380449Y-79528573D01*
X220380449Y-79528573D02*
X220461261Y-79501636D01*
X220461261Y-79501636D02*
X220515136Y-79501636D01*
X220515136Y-79501636D02*
X220595948Y-79528573D01*
X220595948Y-79528573D02*
X220676760Y-79609385D01*
X220676760Y-79609385D02*
X220703698Y-79690197D01*
X220703698Y-79690197D02*
X220703698Y-79744072D01*
X220703698Y-79744072D02*
X220676760Y-79824884D01*
X220676760Y-79824884D02*
X220461261Y-80040384D01*
X221592632Y-79447761D02*
X221269383Y-79771010D01*
X221431008Y-79609385D02*
X220865322Y-79043700D01*
X220865322Y-79043700D02*
X220892260Y-79178387D01*
X220892260Y-79178387D02*
X220892260Y-79286136D01*
X220892260Y-79286136D02*
X220865322Y-79366948D01*
X221296321Y-78720451D02*
X221296321Y-78666576D01*
X221296321Y-78666576D02*
X221323258Y-78585764D01*
X221323258Y-78585764D02*
X221457945Y-78451077D01*
X221457945Y-78451077D02*
X221538757Y-78424139D01*
X221538757Y-78424139D02*
X221592632Y-78424139D01*
X221592632Y-78424139D02*
X221673444Y-78451077D01*
X221673444Y-78451077D02*
X221727319Y-78504951D01*
X221727319Y-78504951D02*
X221781194Y-78612701D01*
X221781194Y-78612701D02*
X221781194Y-79259199D01*
X221781194Y-79259199D02*
X222131380Y-78909013D01*
X246917167Y-67623226D02*
X246459231Y-67542414D01*
X246593918Y-67946475D02*
X246028233Y-67380789D01*
X246028233Y-67380789D02*
X246243732Y-67165290D01*
X246243732Y-67165290D02*
X246324544Y-67138353D01*
X246324544Y-67138353D02*
X246378419Y-67138353D01*
X246378419Y-67138353D02*
X246459231Y-67165290D01*
X246459231Y-67165290D02*
X246540043Y-67246102D01*
X246540043Y-67246102D02*
X246566981Y-67326914D01*
X246566981Y-67326914D02*
X246566981Y-67380789D01*
X246566981Y-67380789D02*
X246540043Y-67461601D01*
X246540043Y-67461601D02*
X246324544Y-67677101D01*
X246593918Y-66815104D02*
X247051854Y-67273040D01*
X247051854Y-67273040D02*
X247132666Y-67299977D01*
X247132666Y-67299977D02*
X247186541Y-67299977D01*
X247186541Y-67299977D02*
X247267353Y-67273040D01*
X247267353Y-67273040D02*
X247375103Y-67165290D01*
X247375103Y-67165290D02*
X247402040Y-67084478D01*
X247402040Y-67084478D02*
X247402040Y-67030603D01*
X247402040Y-67030603D02*
X247375103Y-66949791D01*
X247375103Y-66949791D02*
X246917167Y-66491855D01*
X247752226Y-66788167D02*
X247186541Y-66222481D01*
X247186541Y-66222481D02*
X248075475Y-66464918D01*
X248075475Y-66464918D02*
X247509789Y-65899232D01*
X220564950Y-59477946D02*
X220484138Y-59504884D01*
X220484138Y-59504884D02*
X220403326Y-59585696D01*
X220403326Y-59585696D02*
X220349451Y-59693446D01*
X220349451Y-59693446D02*
X220349451Y-59801195D01*
X220349451Y-59801195D02*
X220376389Y-59882007D01*
X220376389Y-59882007D02*
X220457201Y-60016694D01*
X220457201Y-60016694D02*
X220538013Y-60097507D01*
X220538013Y-60097507D02*
X220672700Y-60178319D01*
X220672700Y-60178319D02*
X220753512Y-60205256D01*
X220753512Y-60205256D02*
X220861262Y-60205256D01*
X220861262Y-60205256D02*
X220969011Y-60151381D01*
X220969011Y-60151381D02*
X221022886Y-60097507D01*
X221022886Y-60097507D02*
X221076761Y-59989757D01*
X221076761Y-59989757D02*
X221076761Y-59935882D01*
X221076761Y-59935882D02*
X220888199Y-59747320D01*
X220888199Y-59747320D02*
X220780450Y-59855070D01*
X221373072Y-59747320D02*
X220807387Y-59181635D01*
X220807387Y-59181635D02*
X221696321Y-59424072D01*
X221696321Y-59424072D02*
X221130636Y-58858386D01*
X221965695Y-59154698D02*
X221400010Y-58589012D01*
X221400010Y-58589012D02*
X221534697Y-58454325D01*
X221534697Y-58454325D02*
X221642446Y-58400450D01*
X221642446Y-58400450D02*
X221750196Y-58400450D01*
X221750196Y-58400450D02*
X221831008Y-58427388D01*
X221831008Y-58427388D02*
X221965695Y-58508200D01*
X221965695Y-58508200D02*
X222046507Y-58589012D01*
X222046507Y-58589012D02*
X222127319Y-58723699D01*
X222127319Y-58723699D02*
X222154257Y-58804511D01*
X222154257Y-58804511D02*
X222154257Y-58912261D01*
X222154257Y-58912261D02*
X222100382Y-59020011D01*
X222100382Y-59020011D02*
X221965695Y-59154698D01*
X246000923Y-49638099D02*
X246351109Y-49287913D01*
X246351109Y-49287913D02*
X246378046Y-49691974D01*
X246378046Y-49691974D02*
X246458859Y-49611162D01*
X246458859Y-49611162D02*
X246539671Y-49584224D01*
X246539671Y-49584224D02*
X246593546Y-49584224D01*
X246593546Y-49584224D02*
X246674358Y-49611162D01*
X246674358Y-49611162D02*
X246809045Y-49745849D01*
X246809045Y-49745849D02*
X246835982Y-49826661D01*
X246835982Y-49826661D02*
X246835982Y-49880536D01*
X246835982Y-49880536D02*
X246809045Y-49961348D01*
X246809045Y-49961348D02*
X246647420Y-50122972D01*
X246647420Y-50122972D02*
X246566608Y-50149910D01*
X246566608Y-50149910D02*
X246512733Y-50149910D01*
X246512733Y-49126288D02*
X247266981Y-49503412D01*
X247266981Y-49503412D02*
X246889857Y-48749165D01*
X247024544Y-48614478D02*
X247374730Y-48264292D01*
X247374730Y-48264292D02*
X247401668Y-48668353D01*
X247401668Y-48668353D02*
X247482480Y-48587541D01*
X247482480Y-48587541D02*
X247563292Y-48560603D01*
X247563292Y-48560603D02*
X247617167Y-48560603D01*
X247617167Y-48560603D02*
X247697979Y-48587541D01*
X247697979Y-48587541D02*
X247832666Y-48722228D01*
X247832666Y-48722228D02*
X247859603Y-48803040D01*
X247859603Y-48803040D02*
X247859603Y-48856915D01*
X247859603Y-48856915D02*
X247832666Y-48937727D01*
X247832666Y-48937727D02*
X247671042Y-49099351D01*
X247671042Y-49099351D02*
X247590229Y-49126289D01*
X247590229Y-49126289D02*
X247536355Y-49126289D01*
X248102040Y-48776102D02*
X248533039Y-48345104D01*
X248317539Y-47860230D02*
X248506101Y-47671669D01*
X248883225Y-47887168D02*
X248613851Y-48156542D01*
X248613851Y-48156542D02*
X248048165Y-47590856D01*
X248048165Y-47590856D02*
X248317539Y-47321482D01*
X249125662Y-47644731D02*
X248559976Y-47079045D01*
X248559976Y-47079045D02*
X249448911Y-47321482D01*
X249448911Y-47321482D02*
X248883225Y-46755797D01*
X220591888Y-67071009D02*
X220511075Y-67097946D01*
X220511075Y-67097946D02*
X220430263Y-67178759D01*
X220430263Y-67178759D02*
X220376388Y-67286508D01*
X220376388Y-67286508D02*
X220376388Y-67394258D01*
X220376388Y-67394258D02*
X220403326Y-67475070D01*
X220403326Y-67475070D02*
X220484138Y-67609757D01*
X220484138Y-67609757D02*
X220564950Y-67690569D01*
X220564950Y-67690569D02*
X220699637Y-67771382D01*
X220699637Y-67771382D02*
X220780449Y-67798319D01*
X220780449Y-67798319D02*
X220888199Y-67798319D01*
X220888199Y-67798319D02*
X220995949Y-67744444D01*
X220995949Y-67744444D02*
X221049823Y-67690569D01*
X221049823Y-67690569D02*
X221103698Y-67582820D01*
X221103698Y-67582820D02*
X221103698Y-67528945D01*
X221103698Y-67528945D02*
X220915136Y-67340383D01*
X220915136Y-67340383D02*
X220807387Y-67448133D01*
X221400010Y-67340383D02*
X220834324Y-66774698D01*
X220834324Y-66774698D02*
X221049823Y-66559198D01*
X221049823Y-66559198D02*
X221130636Y-66532261D01*
X221130636Y-66532261D02*
X221184510Y-66532261D01*
X221184510Y-66532261D02*
X221265323Y-66559198D01*
X221265323Y-66559198D02*
X221346135Y-66640011D01*
X221346135Y-66640011D02*
X221373072Y-66720823D01*
X221373072Y-66720823D02*
X221373072Y-66774698D01*
X221373072Y-66774698D02*
X221346135Y-66855510D01*
X221346135Y-66855510D02*
X221130636Y-67071009D01*
X221723258Y-66370637D02*
X221642446Y-66397574D01*
X221642446Y-66397574D02*
X221588571Y-66397574D01*
X221588571Y-66397574D02*
X221507759Y-66370637D01*
X221507759Y-66370637D02*
X221480822Y-66343699D01*
X221480822Y-66343699D02*
X221453884Y-66262887D01*
X221453884Y-66262887D02*
X221453884Y-66209012D01*
X221453884Y-66209012D02*
X221480822Y-66128200D01*
X221480822Y-66128200D02*
X221588571Y-66020450D01*
X221588571Y-66020450D02*
X221669384Y-65993513D01*
X221669384Y-65993513D02*
X221723258Y-65993513D01*
X221723258Y-65993513D02*
X221804071Y-66020450D01*
X221804071Y-66020450D02*
X221831008Y-66047388D01*
X221831008Y-66047388D02*
X221857945Y-66128200D01*
X221857945Y-66128200D02*
X221857945Y-66182075D01*
X221857945Y-66182075D02*
X221831008Y-66262887D01*
X221831008Y-66262887D02*
X221723258Y-66370637D01*
X221723258Y-66370637D02*
X221696321Y-66451449D01*
X221696321Y-66451449D02*
X221696321Y-66505324D01*
X221696321Y-66505324D02*
X221723258Y-66586136D01*
X221723258Y-66586136D02*
X221831008Y-66693885D01*
X221831008Y-66693885D02*
X221911820Y-66720823D01*
X221911820Y-66720823D02*
X221965695Y-66720823D01*
X221965695Y-66720823D02*
X222046507Y-66693885D01*
X222046507Y-66693885D02*
X222154257Y-66586136D01*
X222154257Y-66586136D02*
X222181194Y-66505324D01*
X222181194Y-66505324D02*
X222181194Y-66451449D01*
X222181194Y-66451449D02*
X222154257Y-66370637D01*
X222154257Y-66370637D02*
X222046507Y-66262887D01*
X222046507Y-66262887D02*
X221965695Y-66235950D01*
X221965695Y-66235950D02*
X221911820Y-66235950D01*
X221911820Y-66235950D02*
X221831008Y-66262887D01*
X246164950Y-46777946D02*
X246084138Y-46804884D01*
X246084138Y-46804884D02*
X246003326Y-46885696D01*
X246003326Y-46885696D02*
X245949451Y-46993446D01*
X245949451Y-46993446D02*
X245949451Y-47101195D01*
X245949451Y-47101195D02*
X245976389Y-47182007D01*
X245976389Y-47182007D02*
X246057201Y-47316694D01*
X246057201Y-47316694D02*
X246138013Y-47397507D01*
X246138013Y-47397507D02*
X246272700Y-47478319D01*
X246272700Y-47478319D02*
X246353512Y-47505256D01*
X246353512Y-47505256D02*
X246461262Y-47505256D01*
X246461262Y-47505256D02*
X246569011Y-47451381D01*
X246569011Y-47451381D02*
X246622886Y-47397507D01*
X246622886Y-47397507D02*
X246676761Y-47289757D01*
X246676761Y-47289757D02*
X246676761Y-47235882D01*
X246676761Y-47235882D02*
X246488199Y-47047320D01*
X246488199Y-47047320D02*
X246380450Y-47155070D01*
X246973072Y-47047320D02*
X246407387Y-46481635D01*
X246407387Y-46481635D02*
X247296321Y-46724072D01*
X247296321Y-46724072D02*
X246730636Y-46158386D01*
X247565695Y-46454698D02*
X247000010Y-45889012D01*
X247000010Y-45889012D02*
X247134697Y-45754325D01*
X247134697Y-45754325D02*
X247242446Y-45700450D01*
X247242446Y-45700450D02*
X247350196Y-45700450D01*
X247350196Y-45700450D02*
X247431008Y-45727388D01*
X247431008Y-45727388D02*
X247565695Y-45808200D01*
X247565695Y-45808200D02*
X247646507Y-45889012D01*
X247646507Y-45889012D02*
X247727319Y-46023699D01*
X247727319Y-46023699D02*
X247754257Y-46104511D01*
X247754257Y-46104511D02*
X247754257Y-46212261D01*
X247754257Y-46212261D02*
X247700382Y-46320011D01*
X247700382Y-46320011D02*
X247565695Y-46454698D01*
X220591888Y-56911009D02*
X220511075Y-56937946D01*
X220511075Y-56937946D02*
X220430263Y-57018759D01*
X220430263Y-57018759D02*
X220376388Y-57126508D01*
X220376388Y-57126508D02*
X220376388Y-57234258D01*
X220376388Y-57234258D02*
X220403326Y-57315070D01*
X220403326Y-57315070D02*
X220484138Y-57449757D01*
X220484138Y-57449757D02*
X220564950Y-57530569D01*
X220564950Y-57530569D02*
X220699637Y-57611382D01*
X220699637Y-57611382D02*
X220780449Y-57638319D01*
X220780449Y-57638319D02*
X220888199Y-57638319D01*
X220888199Y-57638319D02*
X220995949Y-57584444D01*
X220995949Y-57584444D02*
X221049823Y-57530569D01*
X221049823Y-57530569D02*
X221103698Y-57422820D01*
X221103698Y-57422820D02*
X221103698Y-57368945D01*
X221103698Y-57368945D02*
X220915136Y-57180383D01*
X220915136Y-57180383D02*
X220807387Y-57288133D01*
X221400010Y-57180383D02*
X220834324Y-56614698D01*
X220834324Y-56614698D02*
X221049823Y-56399198D01*
X221049823Y-56399198D02*
X221130636Y-56372261D01*
X221130636Y-56372261D02*
X221184510Y-56372261D01*
X221184510Y-56372261D02*
X221265323Y-56399198D01*
X221265323Y-56399198D02*
X221346135Y-56480011D01*
X221346135Y-56480011D02*
X221373072Y-56560823D01*
X221373072Y-56560823D02*
X221373072Y-56614698D01*
X221373072Y-56614698D02*
X221346135Y-56695510D01*
X221346135Y-56695510D02*
X221130636Y-56911009D01*
X221669384Y-55779638D02*
X221400010Y-56049012D01*
X221400010Y-56049012D02*
X221642446Y-56345324D01*
X221642446Y-56345324D02*
X221642446Y-56291449D01*
X221642446Y-56291449D02*
X221669384Y-56210637D01*
X221669384Y-56210637D02*
X221804071Y-56075950D01*
X221804071Y-56075950D02*
X221884883Y-56049012D01*
X221884883Y-56049012D02*
X221938758Y-56049012D01*
X221938758Y-56049012D02*
X222019570Y-56075950D01*
X222019570Y-56075950D02*
X222154257Y-56210637D01*
X222154257Y-56210637D02*
X222181194Y-56291449D01*
X222181194Y-56291449D02*
X222181194Y-56345324D01*
X222181194Y-56345324D02*
X222154257Y-56426136D01*
X222154257Y-56426136D02*
X222019570Y-56560823D01*
X222019570Y-56560823D02*
X221938758Y-56587760D01*
X221938758Y-56587760D02*
X221884883Y-56587760D01*
X226563475Y-92206000D02*
X226677761Y-92244095D01*
X226677761Y-92244095D02*
X226868237Y-92244095D01*
X226868237Y-92244095D02*
X226944428Y-92206000D01*
X226944428Y-92206000D02*
X226982523Y-92167904D01*
X226982523Y-92167904D02*
X227020618Y-92091714D01*
X227020618Y-92091714D02*
X227020618Y-92015523D01*
X227020618Y-92015523D02*
X226982523Y-91939333D01*
X226982523Y-91939333D02*
X226944428Y-91901238D01*
X226944428Y-91901238D02*
X226868237Y-91863142D01*
X226868237Y-91863142D02*
X226715856Y-91825047D01*
X226715856Y-91825047D02*
X226639666Y-91786952D01*
X226639666Y-91786952D02*
X226601571Y-91748857D01*
X226601571Y-91748857D02*
X226563475Y-91672666D01*
X226563475Y-91672666D02*
X226563475Y-91596476D01*
X226563475Y-91596476D02*
X226601571Y-91520285D01*
X226601571Y-91520285D02*
X226639666Y-91482190D01*
X226639666Y-91482190D02*
X226715856Y-91444095D01*
X226715856Y-91444095D02*
X226906333Y-91444095D01*
X226906333Y-91444095D02*
X227020618Y-91482190D01*
X227287285Y-91444095D02*
X227477761Y-92244095D01*
X227477761Y-92244095D02*
X227630142Y-91672666D01*
X227630142Y-91672666D02*
X227782523Y-92244095D01*
X227782523Y-92244095D02*
X227973000Y-91444095D01*
X228734905Y-92167904D02*
X228696809Y-92206000D01*
X228696809Y-92206000D02*
X228582524Y-92244095D01*
X228582524Y-92244095D02*
X228506333Y-92244095D01*
X228506333Y-92244095D02*
X228392047Y-92206000D01*
X228392047Y-92206000D02*
X228315857Y-92129809D01*
X228315857Y-92129809D02*
X228277762Y-92053619D01*
X228277762Y-92053619D02*
X228239666Y-91901238D01*
X228239666Y-91901238D02*
X228239666Y-91786952D01*
X228239666Y-91786952D02*
X228277762Y-91634571D01*
X228277762Y-91634571D02*
X228315857Y-91558380D01*
X228315857Y-91558380D02*
X228392047Y-91482190D01*
X228392047Y-91482190D02*
X228506333Y-91444095D01*
X228506333Y-91444095D02*
X228582524Y-91444095D01*
X228582524Y-91444095D02*
X228696809Y-91482190D01*
X228696809Y-91482190D02*
X228734905Y-91520285D01*
X229458714Y-92244095D02*
X229077762Y-92244095D01*
X229077762Y-92244095D02*
X229077762Y-91444095D01*
X229725381Y-92244095D02*
X229725381Y-91444095D01*
X230182524Y-92244095D02*
X229839666Y-91786952D01*
X230182524Y-91444095D02*
X229725381Y-91901238D01*
X220591888Y-61991009D02*
X220511075Y-62017946D01*
X220511075Y-62017946D02*
X220430263Y-62098759D01*
X220430263Y-62098759D02*
X220376388Y-62206508D01*
X220376388Y-62206508D02*
X220376388Y-62314258D01*
X220376388Y-62314258D02*
X220403326Y-62395070D01*
X220403326Y-62395070D02*
X220484138Y-62529757D01*
X220484138Y-62529757D02*
X220564950Y-62610569D01*
X220564950Y-62610569D02*
X220699637Y-62691382D01*
X220699637Y-62691382D02*
X220780449Y-62718319D01*
X220780449Y-62718319D02*
X220888199Y-62718319D01*
X220888199Y-62718319D02*
X220995949Y-62664444D01*
X220995949Y-62664444D02*
X221049823Y-62610569D01*
X221049823Y-62610569D02*
X221103698Y-62502820D01*
X221103698Y-62502820D02*
X221103698Y-62448945D01*
X221103698Y-62448945D02*
X220915136Y-62260383D01*
X220915136Y-62260383D02*
X220807387Y-62368133D01*
X221400010Y-62260383D02*
X220834324Y-61694698D01*
X220834324Y-61694698D02*
X221049823Y-61479198D01*
X221049823Y-61479198D02*
X221130636Y-61452261D01*
X221130636Y-61452261D02*
X221184510Y-61452261D01*
X221184510Y-61452261D02*
X221265323Y-61479198D01*
X221265323Y-61479198D02*
X221346135Y-61560011D01*
X221346135Y-61560011D02*
X221373072Y-61640823D01*
X221373072Y-61640823D02*
X221373072Y-61694698D01*
X221373072Y-61694698D02*
X221346135Y-61775510D01*
X221346135Y-61775510D02*
X221130636Y-61991009D01*
X221642446Y-60886576D02*
X221534697Y-60994325D01*
X221534697Y-60994325D02*
X221507759Y-61075137D01*
X221507759Y-61075137D02*
X221507759Y-61129012D01*
X221507759Y-61129012D02*
X221534697Y-61263699D01*
X221534697Y-61263699D02*
X221615509Y-61398386D01*
X221615509Y-61398386D02*
X221831008Y-61613885D01*
X221831008Y-61613885D02*
X221911820Y-61640823D01*
X221911820Y-61640823D02*
X221965695Y-61640823D01*
X221965695Y-61640823D02*
X222046507Y-61613885D01*
X222046507Y-61613885D02*
X222154257Y-61506136D01*
X222154257Y-61506136D02*
X222181194Y-61425324D01*
X222181194Y-61425324D02*
X222181194Y-61371449D01*
X222181194Y-61371449D02*
X222154257Y-61290637D01*
X222154257Y-61290637D02*
X222019570Y-61155950D01*
X222019570Y-61155950D02*
X221938758Y-61129012D01*
X221938758Y-61129012D02*
X221884883Y-61129012D01*
X221884883Y-61129012D02*
X221804071Y-61155950D01*
X221804071Y-61155950D02*
X221696321Y-61263699D01*
X221696321Y-61263699D02*
X221669384Y-61344511D01*
X221669384Y-61344511D02*
X221669384Y-61398386D01*
X221669384Y-61398386D02*
X221696321Y-61479198D01*
X246176513Y-64800384D02*
X246095701Y-64827321D01*
X246095701Y-64827321D02*
X246014889Y-64908133D01*
X246014889Y-64908133D02*
X245961014Y-65015883D01*
X245961014Y-65015883D02*
X245961014Y-65123632D01*
X245961014Y-65123632D02*
X245987951Y-65204445D01*
X245987951Y-65204445D02*
X246068764Y-65339132D01*
X246068764Y-65339132D02*
X246149576Y-65419944D01*
X246149576Y-65419944D02*
X246284263Y-65500756D01*
X246284263Y-65500756D02*
X246365075Y-65527693D01*
X246365075Y-65527693D02*
X246472825Y-65527693D01*
X246472825Y-65527693D02*
X246580574Y-65473819D01*
X246580574Y-65473819D02*
X246634449Y-65419944D01*
X246634449Y-65419944D02*
X246688324Y-65312194D01*
X246688324Y-65312194D02*
X246688324Y-65258319D01*
X246688324Y-65258319D02*
X246499762Y-65069758D01*
X246499762Y-65069758D02*
X246392012Y-65177507D01*
X246984635Y-65069758D02*
X246418950Y-64504072D01*
X246418950Y-64504072D02*
X246634449Y-64288573D01*
X246634449Y-64288573D02*
X246715261Y-64261636D01*
X246715261Y-64261636D02*
X246769136Y-64261636D01*
X246769136Y-64261636D02*
X246849948Y-64288573D01*
X246849948Y-64288573D02*
X246930760Y-64369385D01*
X246930760Y-64369385D02*
X246957698Y-64450197D01*
X246957698Y-64450197D02*
X246957698Y-64504072D01*
X246957698Y-64504072D02*
X246930760Y-64584884D01*
X246930760Y-64584884D02*
X246715261Y-64800384D01*
X247011573Y-64019199D02*
X247011573Y-63965324D01*
X247011573Y-63965324D02*
X247038510Y-63884512D01*
X247038510Y-63884512D02*
X247173197Y-63749825D01*
X247173197Y-63749825D02*
X247254009Y-63722887D01*
X247254009Y-63722887D02*
X247307884Y-63722887D01*
X247307884Y-63722887D02*
X247388696Y-63749825D01*
X247388696Y-63749825D02*
X247442571Y-63803700D01*
X247442571Y-63803700D02*
X247496446Y-63911449D01*
X247496446Y-63911449D02*
X247496446Y-64557947D01*
X247496446Y-64557947D02*
X247846632Y-64207761D01*
X247765820Y-63157202D02*
X247658070Y-63264951D01*
X247658070Y-63264951D02*
X247631133Y-63345764D01*
X247631133Y-63345764D02*
X247631133Y-63399638D01*
X247631133Y-63399638D02*
X247658070Y-63534326D01*
X247658070Y-63534326D02*
X247738883Y-63669013D01*
X247738883Y-63669013D02*
X247954382Y-63884512D01*
X247954382Y-63884512D02*
X248035194Y-63911449D01*
X248035194Y-63911449D02*
X248089069Y-63911449D01*
X248089069Y-63911449D02*
X248169881Y-63884512D01*
X248169881Y-63884512D02*
X248277631Y-63776762D01*
X248277631Y-63776762D02*
X248304568Y-63695950D01*
X248304568Y-63695950D02*
X248304568Y-63642075D01*
X248304568Y-63642075D02*
X248277631Y-63561263D01*
X248277631Y-63561263D02*
X248142944Y-63426576D01*
X248142944Y-63426576D02*
X248062131Y-63399638D01*
X248062131Y-63399638D02*
X248008257Y-63399638D01*
X248008257Y-63399638D02*
X247927444Y-63426576D01*
X247927444Y-63426576D02*
X247819695Y-63534326D01*
X247819695Y-63534326D02*
X247792757Y-63615138D01*
X247792757Y-63615138D02*
X247792757Y-63669013D01*
X247792757Y-63669013D02*
X247819695Y-63749825D01*
X220022513Y-87660384D02*
X219941701Y-87687321D01*
X219941701Y-87687321D02*
X219860889Y-87768133D01*
X219860889Y-87768133D02*
X219807014Y-87875883D01*
X219807014Y-87875883D02*
X219807014Y-87983632D01*
X219807014Y-87983632D02*
X219833951Y-88064445D01*
X219833951Y-88064445D02*
X219914764Y-88199132D01*
X219914764Y-88199132D02*
X219995576Y-88279944D01*
X219995576Y-88279944D02*
X220130263Y-88360756D01*
X220130263Y-88360756D02*
X220211075Y-88387693D01*
X220211075Y-88387693D02*
X220318825Y-88387693D01*
X220318825Y-88387693D02*
X220426574Y-88333819D01*
X220426574Y-88333819D02*
X220480449Y-88279944D01*
X220480449Y-88279944D02*
X220534324Y-88172194D01*
X220534324Y-88172194D02*
X220534324Y-88118319D01*
X220534324Y-88118319D02*
X220345762Y-87929758D01*
X220345762Y-87929758D02*
X220238012Y-88037507D01*
X220830635Y-87929758D02*
X220264950Y-87364072D01*
X220264950Y-87364072D02*
X220480449Y-87148573D01*
X220480449Y-87148573D02*
X220561261Y-87121636D01*
X220561261Y-87121636D02*
X220615136Y-87121636D01*
X220615136Y-87121636D02*
X220695948Y-87148573D01*
X220695948Y-87148573D02*
X220776760Y-87229385D01*
X220776760Y-87229385D02*
X220803698Y-87310197D01*
X220803698Y-87310197D02*
X220803698Y-87364072D01*
X220803698Y-87364072D02*
X220776760Y-87444884D01*
X220776760Y-87444884D02*
X220561261Y-87660384D01*
X221692632Y-87067761D02*
X221369383Y-87391010D01*
X221531008Y-87229385D02*
X220965322Y-86663700D01*
X220965322Y-86663700D02*
X220992260Y-86798387D01*
X220992260Y-86798387D02*
X220992260Y-86906136D01*
X220992260Y-86906136D02*
X220965322Y-86986948D01*
X221800382Y-86205764D02*
X222177505Y-86582887D01*
X221450196Y-86124951D02*
X221719570Y-86663700D01*
X221719570Y-86663700D02*
X222069756Y-86313513D01*
X220564950Y-46777946D02*
X220484138Y-46804884D01*
X220484138Y-46804884D02*
X220403326Y-46885696D01*
X220403326Y-46885696D02*
X220349451Y-46993446D01*
X220349451Y-46993446D02*
X220349451Y-47101195D01*
X220349451Y-47101195D02*
X220376389Y-47182007D01*
X220376389Y-47182007D02*
X220457201Y-47316694D01*
X220457201Y-47316694D02*
X220538013Y-47397507D01*
X220538013Y-47397507D02*
X220672700Y-47478319D01*
X220672700Y-47478319D02*
X220753512Y-47505256D01*
X220753512Y-47505256D02*
X220861262Y-47505256D01*
X220861262Y-47505256D02*
X220969011Y-47451381D01*
X220969011Y-47451381D02*
X221022886Y-47397507D01*
X221022886Y-47397507D02*
X221076761Y-47289757D01*
X221076761Y-47289757D02*
X221076761Y-47235882D01*
X221076761Y-47235882D02*
X220888199Y-47047320D01*
X220888199Y-47047320D02*
X220780450Y-47155070D01*
X221373072Y-47047320D02*
X220807387Y-46481635D01*
X220807387Y-46481635D02*
X221696321Y-46724072D01*
X221696321Y-46724072D02*
X221130636Y-46158386D01*
X221965695Y-46454698D02*
X221400010Y-45889012D01*
X221400010Y-45889012D02*
X221534697Y-45754325D01*
X221534697Y-45754325D02*
X221642446Y-45700450D01*
X221642446Y-45700450D02*
X221750196Y-45700450D01*
X221750196Y-45700450D02*
X221831008Y-45727388D01*
X221831008Y-45727388D02*
X221965695Y-45808200D01*
X221965695Y-45808200D02*
X222046507Y-45889012D01*
X222046507Y-45889012D02*
X222127319Y-46023699D01*
X222127319Y-46023699D02*
X222154257Y-46104511D01*
X222154257Y-46104511D02*
X222154257Y-46212261D01*
X222154257Y-46212261D02*
X222100382Y-46320011D01*
X222100382Y-46320011D02*
X221965695Y-46454698D01*
X220591888Y-51831009D02*
X220511075Y-51857946D01*
X220511075Y-51857946D02*
X220430263Y-51938759D01*
X220430263Y-51938759D02*
X220376388Y-52046508D01*
X220376388Y-52046508D02*
X220376388Y-52154258D01*
X220376388Y-52154258D02*
X220403326Y-52235070D01*
X220403326Y-52235070D02*
X220484138Y-52369757D01*
X220484138Y-52369757D02*
X220564950Y-52450569D01*
X220564950Y-52450569D02*
X220699637Y-52531382D01*
X220699637Y-52531382D02*
X220780449Y-52558319D01*
X220780449Y-52558319D02*
X220888199Y-52558319D01*
X220888199Y-52558319D02*
X220995949Y-52504444D01*
X220995949Y-52504444D02*
X221049823Y-52450569D01*
X221049823Y-52450569D02*
X221103698Y-52342820D01*
X221103698Y-52342820D02*
X221103698Y-52288945D01*
X221103698Y-52288945D02*
X220915136Y-52100383D01*
X220915136Y-52100383D02*
X220807387Y-52208133D01*
X221400010Y-52100383D02*
X220834324Y-51534698D01*
X220834324Y-51534698D02*
X221049823Y-51319198D01*
X221049823Y-51319198D02*
X221130636Y-51292261D01*
X221130636Y-51292261D02*
X221184510Y-51292261D01*
X221184510Y-51292261D02*
X221265323Y-51319198D01*
X221265323Y-51319198D02*
X221346135Y-51400011D01*
X221346135Y-51400011D02*
X221373072Y-51480823D01*
X221373072Y-51480823D02*
X221373072Y-51534698D01*
X221373072Y-51534698D02*
X221346135Y-51615510D01*
X221346135Y-51615510D02*
X221130636Y-51831009D01*
X221346135Y-51022887D02*
X221696321Y-50672701D01*
X221696321Y-50672701D02*
X221723258Y-51076762D01*
X221723258Y-51076762D02*
X221804071Y-50995950D01*
X221804071Y-50995950D02*
X221884883Y-50969012D01*
X221884883Y-50969012D02*
X221938758Y-50969012D01*
X221938758Y-50969012D02*
X222019570Y-50995950D01*
X222019570Y-50995950D02*
X222154257Y-51130637D01*
X222154257Y-51130637D02*
X222181194Y-51211449D01*
X222181194Y-51211449D02*
X222181194Y-51265324D01*
X222181194Y-51265324D02*
X222154257Y-51346136D01*
X222154257Y-51346136D02*
X221992632Y-51507760D01*
X221992632Y-51507760D02*
X221911820Y-51534698D01*
X221911820Y-51534698D02*
X221857945Y-51534698D01*
X246176513Y-80040384D02*
X246095701Y-80067321D01*
X246095701Y-80067321D02*
X246014889Y-80148133D01*
X246014889Y-80148133D02*
X245961014Y-80255883D01*
X245961014Y-80255883D02*
X245961014Y-80363632D01*
X245961014Y-80363632D02*
X245987951Y-80444445D01*
X245987951Y-80444445D02*
X246068764Y-80579132D01*
X246068764Y-80579132D02*
X246149576Y-80659944D01*
X246149576Y-80659944D02*
X246284263Y-80740756D01*
X246284263Y-80740756D02*
X246365075Y-80767693D01*
X246365075Y-80767693D02*
X246472825Y-80767693D01*
X246472825Y-80767693D02*
X246580574Y-80713819D01*
X246580574Y-80713819D02*
X246634449Y-80659944D01*
X246634449Y-80659944D02*
X246688324Y-80552194D01*
X246688324Y-80552194D02*
X246688324Y-80498319D01*
X246688324Y-80498319D02*
X246499762Y-80309758D01*
X246499762Y-80309758D02*
X246392012Y-80417507D01*
X246984635Y-80309758D02*
X246418950Y-79744072D01*
X246418950Y-79744072D02*
X246634449Y-79528573D01*
X246634449Y-79528573D02*
X246715261Y-79501636D01*
X246715261Y-79501636D02*
X246769136Y-79501636D01*
X246769136Y-79501636D02*
X246849948Y-79528573D01*
X246849948Y-79528573D02*
X246930760Y-79609385D01*
X246930760Y-79609385D02*
X246957698Y-79690197D01*
X246957698Y-79690197D02*
X246957698Y-79744072D01*
X246957698Y-79744072D02*
X246930760Y-79824884D01*
X246930760Y-79824884D02*
X246715261Y-80040384D01*
X247846632Y-79447761D02*
X247523383Y-79771010D01*
X247685008Y-79609385D02*
X247119322Y-79043700D01*
X247119322Y-79043700D02*
X247146260Y-79178387D01*
X247146260Y-79178387D02*
X247146260Y-79286136D01*
X247146260Y-79286136D02*
X247119322Y-79366948D01*
X248116006Y-79178387D02*
X248223756Y-79070637D01*
X248223756Y-79070637D02*
X248250693Y-78989825D01*
X248250693Y-78989825D02*
X248250693Y-78935950D01*
X248250693Y-78935950D02*
X248223756Y-78801263D01*
X248223756Y-78801263D02*
X248142944Y-78666576D01*
X248142944Y-78666576D02*
X247927444Y-78451077D01*
X247927444Y-78451077D02*
X247846632Y-78424139D01*
X247846632Y-78424139D02*
X247792757Y-78424139D01*
X247792757Y-78424139D02*
X247711945Y-78451077D01*
X247711945Y-78451077D02*
X247604196Y-78558826D01*
X247604196Y-78558826D02*
X247577258Y-78639638D01*
X247577258Y-78639638D02*
X247577258Y-78693513D01*
X247577258Y-78693513D02*
X247604196Y-78774326D01*
X247604196Y-78774326D02*
X247738883Y-78909013D01*
X247738883Y-78909013D02*
X247819695Y-78935950D01*
X247819695Y-78935950D02*
X247873570Y-78935950D01*
X247873570Y-78935950D02*
X247954382Y-78909013D01*
X247954382Y-78909013D02*
X248062131Y-78801263D01*
X248062131Y-78801263D02*
X248089069Y-78720451D01*
X248089069Y-78720451D02*
X248089069Y-78666576D01*
X248089069Y-78666576D02*
X248062131Y-78585764D01*
X220691888Y-64501009D02*
X220611075Y-64527946D01*
X220611075Y-64527946D02*
X220530263Y-64608759D01*
X220530263Y-64608759D02*
X220476388Y-64716508D01*
X220476388Y-64716508D02*
X220476388Y-64824258D01*
X220476388Y-64824258D02*
X220503326Y-64905070D01*
X220503326Y-64905070D02*
X220584138Y-65039757D01*
X220584138Y-65039757D02*
X220664950Y-65120569D01*
X220664950Y-65120569D02*
X220799637Y-65201382D01*
X220799637Y-65201382D02*
X220880449Y-65228319D01*
X220880449Y-65228319D02*
X220988199Y-65228319D01*
X220988199Y-65228319D02*
X221095949Y-65174444D01*
X221095949Y-65174444D02*
X221149823Y-65120569D01*
X221149823Y-65120569D02*
X221203698Y-65012820D01*
X221203698Y-65012820D02*
X221203698Y-64958945D01*
X221203698Y-64958945D02*
X221015136Y-64770383D01*
X221015136Y-64770383D02*
X220907387Y-64878133D01*
X221500010Y-64770383D02*
X220934324Y-64204698D01*
X220934324Y-64204698D02*
X221149823Y-63989198D01*
X221149823Y-63989198D02*
X221230636Y-63962261D01*
X221230636Y-63962261D02*
X221284510Y-63962261D01*
X221284510Y-63962261D02*
X221365323Y-63989198D01*
X221365323Y-63989198D02*
X221446135Y-64070011D01*
X221446135Y-64070011D02*
X221473072Y-64150823D01*
X221473072Y-64150823D02*
X221473072Y-64204698D01*
X221473072Y-64204698D02*
X221446135Y-64285510D01*
X221446135Y-64285510D02*
X221230636Y-64501009D01*
X221446135Y-63692887D02*
X221823258Y-63315763D01*
X221823258Y-63315763D02*
X222146507Y-64123885D01*
X246176513Y-56926384D02*
X246095701Y-56953321D01*
X246095701Y-56953321D02*
X246014889Y-57034133D01*
X246014889Y-57034133D02*
X245961014Y-57141883D01*
X245961014Y-57141883D02*
X245961014Y-57249632D01*
X245961014Y-57249632D02*
X245987951Y-57330445D01*
X245987951Y-57330445D02*
X246068764Y-57465132D01*
X246068764Y-57465132D02*
X246149576Y-57545944D01*
X246149576Y-57545944D02*
X246284263Y-57626756D01*
X246284263Y-57626756D02*
X246365075Y-57653693D01*
X246365075Y-57653693D02*
X246472825Y-57653693D01*
X246472825Y-57653693D02*
X246580574Y-57599819D01*
X246580574Y-57599819D02*
X246634449Y-57545944D01*
X246634449Y-57545944D02*
X246688324Y-57438194D01*
X246688324Y-57438194D02*
X246688324Y-57384319D01*
X246688324Y-57384319D02*
X246499762Y-57195758D01*
X246499762Y-57195758D02*
X246392012Y-57303507D01*
X246984635Y-57195758D02*
X246418950Y-56630072D01*
X246418950Y-56630072D02*
X246634449Y-56414573D01*
X246634449Y-56414573D02*
X246715261Y-56387636D01*
X246715261Y-56387636D02*
X246769136Y-56387636D01*
X246769136Y-56387636D02*
X246849948Y-56414573D01*
X246849948Y-56414573D02*
X246930760Y-56495385D01*
X246930760Y-56495385D02*
X246957698Y-56576197D01*
X246957698Y-56576197D02*
X246957698Y-56630072D01*
X246957698Y-56630072D02*
X246930760Y-56710884D01*
X246930760Y-56710884D02*
X246715261Y-56926384D01*
X247011573Y-56145199D02*
X247011573Y-56091324D01*
X247011573Y-56091324D02*
X247038510Y-56010512D01*
X247038510Y-56010512D02*
X247173197Y-55875825D01*
X247173197Y-55875825D02*
X247254009Y-55848887D01*
X247254009Y-55848887D02*
X247307884Y-55848887D01*
X247307884Y-55848887D02*
X247388696Y-55875825D01*
X247388696Y-55875825D02*
X247442571Y-55929700D01*
X247442571Y-55929700D02*
X247496446Y-56037449D01*
X247496446Y-56037449D02*
X247496446Y-56683947D01*
X247496446Y-56683947D02*
X247846632Y-56333761D01*
X247846632Y-55687263D02*
X247765820Y-55714200D01*
X247765820Y-55714200D02*
X247711945Y-55714200D01*
X247711945Y-55714200D02*
X247631133Y-55687263D01*
X247631133Y-55687263D02*
X247604196Y-55660326D01*
X247604196Y-55660326D02*
X247577258Y-55579513D01*
X247577258Y-55579513D02*
X247577258Y-55525638D01*
X247577258Y-55525638D02*
X247604196Y-55444826D01*
X247604196Y-55444826D02*
X247711945Y-55337077D01*
X247711945Y-55337077D02*
X247792757Y-55310139D01*
X247792757Y-55310139D02*
X247846632Y-55310139D01*
X247846632Y-55310139D02*
X247927444Y-55337077D01*
X247927444Y-55337077D02*
X247954382Y-55364014D01*
X247954382Y-55364014D02*
X247981319Y-55444826D01*
X247981319Y-55444826D02*
X247981319Y-55498701D01*
X247981319Y-55498701D02*
X247954382Y-55579513D01*
X247954382Y-55579513D02*
X247846632Y-55687263D01*
X247846632Y-55687263D02*
X247819695Y-55768075D01*
X247819695Y-55768075D02*
X247819695Y-55821950D01*
X247819695Y-55821950D02*
X247846632Y-55902762D01*
X247846632Y-55902762D02*
X247954382Y-56010512D01*
X247954382Y-56010512D02*
X248035194Y-56037449D01*
X248035194Y-56037449D02*
X248089069Y-56037449D01*
X248089069Y-56037449D02*
X248169881Y-56010512D01*
X248169881Y-56010512D02*
X248277631Y-55902762D01*
X248277631Y-55902762D02*
X248304568Y-55821950D01*
X248304568Y-55821950D02*
X248304568Y-55768075D01*
X248304568Y-55768075D02*
X248277631Y-55687263D01*
X248277631Y-55687263D02*
X248169881Y-55579513D01*
X248169881Y-55579513D02*
X248089069Y-55552576D01*
X248089069Y-55552576D02*
X248035194Y-55552576D01*
X248035194Y-55552576D02*
X247954382Y-55579513D01*
X220068513Y-82580384D02*
X219987701Y-82607321D01*
X219987701Y-82607321D02*
X219906889Y-82688133D01*
X219906889Y-82688133D02*
X219853014Y-82795883D01*
X219853014Y-82795883D02*
X219853014Y-82903632D01*
X219853014Y-82903632D02*
X219879951Y-82984445D01*
X219879951Y-82984445D02*
X219960764Y-83119132D01*
X219960764Y-83119132D02*
X220041576Y-83199944D01*
X220041576Y-83199944D02*
X220176263Y-83280756D01*
X220176263Y-83280756D02*
X220257075Y-83307693D01*
X220257075Y-83307693D02*
X220364825Y-83307693D01*
X220364825Y-83307693D02*
X220472574Y-83253819D01*
X220472574Y-83253819D02*
X220526449Y-83199944D01*
X220526449Y-83199944D02*
X220580324Y-83092194D01*
X220580324Y-83092194D02*
X220580324Y-83038319D01*
X220580324Y-83038319D02*
X220391762Y-82849758D01*
X220391762Y-82849758D02*
X220284012Y-82957507D01*
X220876635Y-82849758D02*
X220310950Y-82284072D01*
X220310950Y-82284072D02*
X220526449Y-82068573D01*
X220526449Y-82068573D02*
X220607261Y-82041636D01*
X220607261Y-82041636D02*
X220661136Y-82041636D01*
X220661136Y-82041636D02*
X220741948Y-82068573D01*
X220741948Y-82068573D02*
X220822760Y-82149385D01*
X220822760Y-82149385D02*
X220849698Y-82230197D01*
X220849698Y-82230197D02*
X220849698Y-82284072D01*
X220849698Y-82284072D02*
X220822760Y-82364884D01*
X220822760Y-82364884D02*
X220607261Y-82580384D01*
X221738632Y-81987761D02*
X221415383Y-82311010D01*
X221577008Y-82149385D02*
X221011322Y-81583700D01*
X221011322Y-81583700D02*
X221038260Y-81718387D01*
X221038260Y-81718387D02*
X221038260Y-81826136D01*
X221038260Y-81826136D02*
X221011322Y-81906948D01*
X221361509Y-81233513D02*
X221711695Y-80883327D01*
X221711695Y-80883327D02*
X221738632Y-81287388D01*
X221738632Y-81287388D02*
X221819444Y-81206576D01*
X221819444Y-81206576D02*
X221900257Y-81179638D01*
X221900257Y-81179638D02*
X221954131Y-81179638D01*
X221954131Y-81179638D02*
X222034944Y-81206576D01*
X222034944Y-81206576D02*
X222169631Y-81341263D01*
X222169631Y-81341263D02*
X222196568Y-81422075D01*
X222196568Y-81422075D02*
X222196568Y-81475950D01*
X222196568Y-81475950D02*
X222169631Y-81556762D01*
X222169631Y-81556762D02*
X222008006Y-81718387D01*
X222008006Y-81718387D02*
X221927194Y-81745324D01*
X221927194Y-81745324D02*
X221873319Y-81745324D01*
X220491888Y-49291009D02*
X220411075Y-49317946D01*
X220411075Y-49317946D02*
X220330263Y-49398759D01*
X220330263Y-49398759D02*
X220276388Y-49506508D01*
X220276388Y-49506508D02*
X220276388Y-49614258D01*
X220276388Y-49614258D02*
X220303326Y-49695070D01*
X220303326Y-49695070D02*
X220384138Y-49829757D01*
X220384138Y-49829757D02*
X220464950Y-49910569D01*
X220464950Y-49910569D02*
X220599637Y-49991382D01*
X220599637Y-49991382D02*
X220680449Y-50018319D01*
X220680449Y-50018319D02*
X220788199Y-50018319D01*
X220788199Y-50018319D02*
X220895949Y-49964444D01*
X220895949Y-49964444D02*
X220949823Y-49910569D01*
X220949823Y-49910569D02*
X221003698Y-49802820D01*
X221003698Y-49802820D02*
X221003698Y-49748945D01*
X221003698Y-49748945D02*
X220815136Y-49560383D01*
X220815136Y-49560383D02*
X220707387Y-49668133D01*
X221300010Y-49560383D02*
X220734324Y-48994698D01*
X220734324Y-48994698D02*
X220949823Y-48779198D01*
X220949823Y-48779198D02*
X221030636Y-48752261D01*
X221030636Y-48752261D02*
X221084510Y-48752261D01*
X221084510Y-48752261D02*
X221165323Y-48779198D01*
X221165323Y-48779198D02*
X221246135Y-48860011D01*
X221246135Y-48860011D02*
X221273072Y-48940823D01*
X221273072Y-48940823D02*
X221273072Y-48994698D01*
X221273072Y-48994698D02*
X221246135Y-49075510D01*
X221246135Y-49075510D02*
X221030636Y-49291009D01*
X221326947Y-48509824D02*
X221326947Y-48455950D01*
X221326947Y-48455950D02*
X221353884Y-48375137D01*
X221353884Y-48375137D02*
X221488571Y-48240450D01*
X221488571Y-48240450D02*
X221569384Y-48213513D01*
X221569384Y-48213513D02*
X221623258Y-48213513D01*
X221623258Y-48213513D02*
X221704071Y-48240450D01*
X221704071Y-48240450D02*
X221757945Y-48294325D01*
X221757945Y-48294325D02*
X221811820Y-48402075D01*
X221811820Y-48402075D02*
X221811820Y-49048572D01*
X221811820Y-49048572D02*
X222162006Y-48698386D01*
X220068513Y-90200384D02*
X219987701Y-90227321D01*
X219987701Y-90227321D02*
X219906889Y-90308133D01*
X219906889Y-90308133D02*
X219853014Y-90415883D01*
X219853014Y-90415883D02*
X219853014Y-90523632D01*
X219853014Y-90523632D02*
X219879951Y-90604445D01*
X219879951Y-90604445D02*
X219960764Y-90739132D01*
X219960764Y-90739132D02*
X220041576Y-90819944D01*
X220041576Y-90819944D02*
X220176263Y-90900756D01*
X220176263Y-90900756D02*
X220257075Y-90927693D01*
X220257075Y-90927693D02*
X220364825Y-90927693D01*
X220364825Y-90927693D02*
X220472574Y-90873819D01*
X220472574Y-90873819D02*
X220526449Y-90819944D01*
X220526449Y-90819944D02*
X220580324Y-90712194D01*
X220580324Y-90712194D02*
X220580324Y-90658319D01*
X220580324Y-90658319D02*
X220391762Y-90469758D01*
X220391762Y-90469758D02*
X220284012Y-90577507D01*
X220876635Y-90469758D02*
X220310950Y-89904072D01*
X220310950Y-89904072D02*
X220526449Y-89688573D01*
X220526449Y-89688573D02*
X220607261Y-89661636D01*
X220607261Y-89661636D02*
X220661136Y-89661636D01*
X220661136Y-89661636D02*
X220741948Y-89688573D01*
X220741948Y-89688573D02*
X220822760Y-89769385D01*
X220822760Y-89769385D02*
X220849698Y-89850197D01*
X220849698Y-89850197D02*
X220849698Y-89904072D01*
X220849698Y-89904072D02*
X220822760Y-89984884D01*
X220822760Y-89984884D02*
X220607261Y-90200384D01*
X221738632Y-89607761D02*
X221415383Y-89931010D01*
X221577008Y-89769385D02*
X221011322Y-89203700D01*
X221011322Y-89203700D02*
X221038260Y-89338387D01*
X221038260Y-89338387D02*
X221038260Y-89446136D01*
X221038260Y-89446136D02*
X221011322Y-89526948D01*
X221684757Y-88530264D02*
X221415383Y-88799638D01*
X221415383Y-88799638D02*
X221657820Y-89095950D01*
X221657820Y-89095950D02*
X221657820Y-89042075D01*
X221657820Y-89042075D02*
X221684757Y-88961263D01*
X221684757Y-88961263D02*
X221819444Y-88826576D01*
X221819444Y-88826576D02*
X221900257Y-88799638D01*
X221900257Y-88799638D02*
X221954131Y-88799638D01*
X221954131Y-88799638D02*
X222034944Y-88826576D01*
X222034944Y-88826576D02*
X222169631Y-88961263D01*
X222169631Y-88961263D02*
X222196568Y-89042075D01*
X222196568Y-89042075D02*
X222196568Y-89095950D01*
X222196568Y-89095950D02*
X222169631Y-89176762D01*
X222169631Y-89176762D02*
X222034944Y-89311449D01*
X222034944Y-89311449D02*
X221954131Y-89338387D01*
X221954131Y-89338387D02*
X221900257Y-89338387D01*
X220491888Y-44201009D02*
X220411075Y-44227946D01*
X220411075Y-44227946D02*
X220330263Y-44308759D01*
X220330263Y-44308759D02*
X220276388Y-44416508D01*
X220276388Y-44416508D02*
X220276388Y-44524258D01*
X220276388Y-44524258D02*
X220303326Y-44605070D01*
X220303326Y-44605070D02*
X220384138Y-44739757D01*
X220384138Y-44739757D02*
X220464950Y-44820569D01*
X220464950Y-44820569D02*
X220599637Y-44901382D01*
X220599637Y-44901382D02*
X220680449Y-44928319D01*
X220680449Y-44928319D02*
X220788199Y-44928319D01*
X220788199Y-44928319D02*
X220895949Y-44874444D01*
X220895949Y-44874444D02*
X220949823Y-44820569D01*
X220949823Y-44820569D02*
X221003698Y-44712820D01*
X221003698Y-44712820D02*
X221003698Y-44658945D01*
X221003698Y-44658945D02*
X220815136Y-44470383D01*
X220815136Y-44470383D02*
X220707387Y-44578133D01*
X221300010Y-44470383D02*
X220734324Y-43904698D01*
X220734324Y-43904698D02*
X220949823Y-43689198D01*
X220949823Y-43689198D02*
X221030636Y-43662261D01*
X221030636Y-43662261D02*
X221084510Y-43662261D01*
X221084510Y-43662261D02*
X221165323Y-43689198D01*
X221165323Y-43689198D02*
X221246135Y-43770011D01*
X221246135Y-43770011D02*
X221273072Y-43850823D01*
X221273072Y-43850823D02*
X221273072Y-43904698D01*
X221273072Y-43904698D02*
X221246135Y-43985510D01*
X221246135Y-43985510D02*
X221030636Y-44201009D01*
X222162006Y-43608386D02*
X221838758Y-43931635D01*
X222000382Y-43770011D02*
X221434697Y-43204325D01*
X221434697Y-43204325D02*
X221461634Y-43339012D01*
X221461634Y-43339012D02*
X221461634Y-43446762D01*
X221461634Y-43446762D02*
X221434697Y-43527574D01*
X246176513Y-82580384D02*
X246095701Y-82607321D01*
X246095701Y-82607321D02*
X246014889Y-82688133D01*
X246014889Y-82688133D02*
X245961014Y-82795883D01*
X245961014Y-82795883D02*
X245961014Y-82903632D01*
X245961014Y-82903632D02*
X245987951Y-82984445D01*
X245987951Y-82984445D02*
X246068764Y-83119132D01*
X246068764Y-83119132D02*
X246149576Y-83199944D01*
X246149576Y-83199944D02*
X246284263Y-83280756D01*
X246284263Y-83280756D02*
X246365075Y-83307693D01*
X246365075Y-83307693D02*
X246472825Y-83307693D01*
X246472825Y-83307693D02*
X246580574Y-83253819D01*
X246580574Y-83253819D02*
X246634449Y-83199944D01*
X246634449Y-83199944D02*
X246688324Y-83092194D01*
X246688324Y-83092194D02*
X246688324Y-83038319D01*
X246688324Y-83038319D02*
X246499762Y-82849758D01*
X246499762Y-82849758D02*
X246392012Y-82957507D01*
X246984635Y-82849758D02*
X246418950Y-82284072D01*
X246418950Y-82284072D02*
X246634449Y-82068573D01*
X246634449Y-82068573D02*
X246715261Y-82041636D01*
X246715261Y-82041636D02*
X246769136Y-82041636D01*
X246769136Y-82041636D02*
X246849948Y-82068573D01*
X246849948Y-82068573D02*
X246930760Y-82149385D01*
X246930760Y-82149385D02*
X246957698Y-82230197D01*
X246957698Y-82230197D02*
X246957698Y-82284072D01*
X246957698Y-82284072D02*
X246930760Y-82364884D01*
X246930760Y-82364884D02*
X246715261Y-82580384D01*
X247846632Y-81987761D02*
X247523383Y-82311010D01*
X247685008Y-82149385D02*
X247119322Y-81583700D01*
X247119322Y-81583700D02*
X247146260Y-81718387D01*
X247146260Y-81718387D02*
X247146260Y-81826136D01*
X247146260Y-81826136D02*
X247119322Y-81906948D01*
X247846632Y-81341263D02*
X247765820Y-81368200D01*
X247765820Y-81368200D02*
X247711945Y-81368200D01*
X247711945Y-81368200D02*
X247631133Y-81341263D01*
X247631133Y-81341263D02*
X247604196Y-81314326D01*
X247604196Y-81314326D02*
X247577258Y-81233513D01*
X247577258Y-81233513D02*
X247577258Y-81179638D01*
X247577258Y-81179638D02*
X247604196Y-81098826D01*
X247604196Y-81098826D02*
X247711945Y-80991077D01*
X247711945Y-80991077D02*
X247792757Y-80964139D01*
X247792757Y-80964139D02*
X247846632Y-80964139D01*
X247846632Y-80964139D02*
X247927444Y-80991077D01*
X247927444Y-80991077D02*
X247954382Y-81018014D01*
X247954382Y-81018014D02*
X247981319Y-81098826D01*
X247981319Y-81098826D02*
X247981319Y-81152701D01*
X247981319Y-81152701D02*
X247954382Y-81233513D01*
X247954382Y-81233513D02*
X247846632Y-81341263D01*
X247846632Y-81341263D02*
X247819695Y-81422075D01*
X247819695Y-81422075D02*
X247819695Y-81475950D01*
X247819695Y-81475950D02*
X247846632Y-81556762D01*
X247846632Y-81556762D02*
X247954382Y-81664512D01*
X247954382Y-81664512D02*
X248035194Y-81691449D01*
X248035194Y-81691449D02*
X248089069Y-81691449D01*
X248089069Y-81691449D02*
X248169881Y-81664512D01*
X248169881Y-81664512D02*
X248277631Y-81556762D01*
X248277631Y-81556762D02*
X248304568Y-81475950D01*
X248304568Y-81475950D02*
X248304568Y-81422075D01*
X248304568Y-81422075D02*
X248277631Y-81341263D01*
X248277631Y-81341263D02*
X248169881Y-81233513D01*
X248169881Y-81233513D02*
X248089069Y-81206576D01*
X248089069Y-81206576D02*
X248035194Y-81206576D01*
X248035194Y-81206576D02*
X247954382Y-81233513D01*
X220564950Y-72177946D02*
X220484138Y-72204884D01*
X220484138Y-72204884D02*
X220403326Y-72285696D01*
X220403326Y-72285696D02*
X220349451Y-72393446D01*
X220349451Y-72393446D02*
X220349451Y-72501195D01*
X220349451Y-72501195D02*
X220376389Y-72582007D01*
X220376389Y-72582007D02*
X220457201Y-72716694D01*
X220457201Y-72716694D02*
X220538013Y-72797507D01*
X220538013Y-72797507D02*
X220672700Y-72878319D01*
X220672700Y-72878319D02*
X220753512Y-72905256D01*
X220753512Y-72905256D02*
X220861262Y-72905256D01*
X220861262Y-72905256D02*
X220969011Y-72851381D01*
X220969011Y-72851381D02*
X221022886Y-72797507D01*
X221022886Y-72797507D02*
X221076761Y-72689757D01*
X221076761Y-72689757D02*
X221076761Y-72635882D01*
X221076761Y-72635882D02*
X220888199Y-72447320D01*
X220888199Y-72447320D02*
X220780450Y-72555070D01*
X221373072Y-72447320D02*
X220807387Y-71881635D01*
X220807387Y-71881635D02*
X221696321Y-72124072D01*
X221696321Y-72124072D02*
X221130636Y-71558386D01*
X221965695Y-71854698D02*
X221400010Y-71289012D01*
X221400010Y-71289012D02*
X221534697Y-71154325D01*
X221534697Y-71154325D02*
X221642446Y-71100450D01*
X221642446Y-71100450D02*
X221750196Y-71100450D01*
X221750196Y-71100450D02*
X221831008Y-71127388D01*
X221831008Y-71127388D02*
X221965695Y-71208200D01*
X221965695Y-71208200D02*
X222046507Y-71289012D01*
X222046507Y-71289012D02*
X222127319Y-71423699D01*
X222127319Y-71423699D02*
X222154257Y-71504511D01*
X222154257Y-71504511D02*
X222154257Y-71612261D01*
X222154257Y-71612261D02*
X222100382Y-71720011D01*
X222100382Y-71720011D02*
X221965695Y-71854698D01*
X246176513Y-77500384D02*
X246095701Y-77527321D01*
X246095701Y-77527321D02*
X246014889Y-77608133D01*
X246014889Y-77608133D02*
X245961014Y-77715883D01*
X245961014Y-77715883D02*
X245961014Y-77823632D01*
X245961014Y-77823632D02*
X245987951Y-77904445D01*
X245987951Y-77904445D02*
X246068764Y-78039132D01*
X246068764Y-78039132D02*
X246149576Y-78119944D01*
X246149576Y-78119944D02*
X246284263Y-78200756D01*
X246284263Y-78200756D02*
X246365075Y-78227693D01*
X246365075Y-78227693D02*
X246472825Y-78227693D01*
X246472825Y-78227693D02*
X246580574Y-78173819D01*
X246580574Y-78173819D02*
X246634449Y-78119944D01*
X246634449Y-78119944D02*
X246688324Y-78012194D01*
X246688324Y-78012194D02*
X246688324Y-77958319D01*
X246688324Y-77958319D02*
X246499762Y-77769758D01*
X246499762Y-77769758D02*
X246392012Y-77877507D01*
X246984635Y-77769758D02*
X246418950Y-77204072D01*
X246418950Y-77204072D02*
X246634449Y-76988573D01*
X246634449Y-76988573D02*
X246715261Y-76961636D01*
X246715261Y-76961636D02*
X246769136Y-76961636D01*
X246769136Y-76961636D02*
X246849948Y-76988573D01*
X246849948Y-76988573D02*
X246930760Y-77069385D01*
X246930760Y-77069385D02*
X246957698Y-77150197D01*
X246957698Y-77150197D02*
X246957698Y-77204072D01*
X246957698Y-77204072D02*
X246930760Y-77284884D01*
X246930760Y-77284884D02*
X246715261Y-77500384D01*
X247011573Y-76719199D02*
X247011573Y-76665324D01*
X247011573Y-76665324D02*
X247038510Y-76584512D01*
X247038510Y-76584512D02*
X247173197Y-76449825D01*
X247173197Y-76449825D02*
X247254009Y-76422887D01*
X247254009Y-76422887D02*
X247307884Y-76422887D01*
X247307884Y-76422887D02*
X247388696Y-76449825D01*
X247388696Y-76449825D02*
X247442571Y-76503700D01*
X247442571Y-76503700D02*
X247496446Y-76611449D01*
X247496446Y-76611449D02*
X247496446Y-77257947D01*
X247496446Y-77257947D02*
X247846632Y-76907761D01*
X247631133Y-75991889D02*
X247685008Y-75938014D01*
X247685008Y-75938014D02*
X247765820Y-75911077D01*
X247765820Y-75911077D02*
X247819695Y-75911077D01*
X247819695Y-75911077D02*
X247900507Y-75938014D01*
X247900507Y-75938014D02*
X248035194Y-76018826D01*
X248035194Y-76018826D02*
X248169881Y-76153513D01*
X248169881Y-76153513D02*
X248250693Y-76288200D01*
X248250693Y-76288200D02*
X248277631Y-76369013D01*
X248277631Y-76369013D02*
X248277631Y-76422887D01*
X248277631Y-76422887D02*
X248250693Y-76503700D01*
X248250693Y-76503700D02*
X248196818Y-76557574D01*
X248196818Y-76557574D02*
X248116006Y-76584512D01*
X248116006Y-76584512D02*
X248062131Y-76584512D01*
X248062131Y-76584512D02*
X247981319Y-76557574D01*
X247981319Y-76557574D02*
X247846632Y-76476762D01*
X247846632Y-76476762D02*
X247711945Y-76342075D01*
X247711945Y-76342075D02*
X247631133Y-76207388D01*
X247631133Y-76207388D02*
X247604196Y-76126576D01*
X247604196Y-76126576D02*
X247604196Y-76072701D01*
X247604196Y-76072701D02*
X247631133Y-75991889D01*
X220564950Y-84877946D02*
X220484138Y-84904884D01*
X220484138Y-84904884D02*
X220403326Y-84985696D01*
X220403326Y-84985696D02*
X220349451Y-85093446D01*
X220349451Y-85093446D02*
X220349451Y-85201195D01*
X220349451Y-85201195D02*
X220376389Y-85282007D01*
X220376389Y-85282007D02*
X220457201Y-85416694D01*
X220457201Y-85416694D02*
X220538013Y-85497507D01*
X220538013Y-85497507D02*
X220672700Y-85578319D01*
X220672700Y-85578319D02*
X220753512Y-85605256D01*
X220753512Y-85605256D02*
X220861262Y-85605256D01*
X220861262Y-85605256D02*
X220969011Y-85551381D01*
X220969011Y-85551381D02*
X221022886Y-85497507D01*
X221022886Y-85497507D02*
X221076761Y-85389757D01*
X221076761Y-85389757D02*
X221076761Y-85335882D01*
X221076761Y-85335882D02*
X220888199Y-85147320D01*
X220888199Y-85147320D02*
X220780450Y-85255070D01*
X221373072Y-85147320D02*
X220807387Y-84581635D01*
X220807387Y-84581635D02*
X221696321Y-84824072D01*
X221696321Y-84824072D02*
X221130636Y-84258386D01*
X221965695Y-84554698D02*
X221400010Y-83989012D01*
X221400010Y-83989012D02*
X221534697Y-83854325D01*
X221534697Y-83854325D02*
X221642446Y-83800450D01*
X221642446Y-83800450D02*
X221750196Y-83800450D01*
X221750196Y-83800450D02*
X221831008Y-83827388D01*
X221831008Y-83827388D02*
X221965695Y-83908200D01*
X221965695Y-83908200D02*
X222046507Y-83989012D01*
X222046507Y-83989012D02*
X222127319Y-84123699D01*
X222127319Y-84123699D02*
X222154257Y-84204511D01*
X222154257Y-84204511D02*
X222154257Y-84312261D01*
X222154257Y-84312261D02*
X222100382Y-84420011D01*
X222100382Y-84420011D02*
X221965695Y-84554698D01*
X220591888Y-54371009D02*
X220511075Y-54397946D01*
X220511075Y-54397946D02*
X220430263Y-54478759D01*
X220430263Y-54478759D02*
X220376388Y-54586508D01*
X220376388Y-54586508D02*
X220376388Y-54694258D01*
X220376388Y-54694258D02*
X220403326Y-54775070D01*
X220403326Y-54775070D02*
X220484138Y-54909757D01*
X220484138Y-54909757D02*
X220564950Y-54990569D01*
X220564950Y-54990569D02*
X220699637Y-55071382D01*
X220699637Y-55071382D02*
X220780449Y-55098319D01*
X220780449Y-55098319D02*
X220888199Y-55098319D01*
X220888199Y-55098319D02*
X220995949Y-55044444D01*
X220995949Y-55044444D02*
X221049823Y-54990569D01*
X221049823Y-54990569D02*
X221103698Y-54882820D01*
X221103698Y-54882820D02*
X221103698Y-54828945D01*
X221103698Y-54828945D02*
X220915136Y-54640383D01*
X220915136Y-54640383D02*
X220807387Y-54748133D01*
X221400010Y-54640383D02*
X220834324Y-54074698D01*
X220834324Y-54074698D02*
X221049823Y-53859198D01*
X221049823Y-53859198D02*
X221130636Y-53832261D01*
X221130636Y-53832261D02*
X221184510Y-53832261D01*
X221184510Y-53832261D02*
X221265323Y-53859198D01*
X221265323Y-53859198D02*
X221346135Y-53940011D01*
X221346135Y-53940011D02*
X221373072Y-54020823D01*
X221373072Y-54020823D02*
X221373072Y-54074698D01*
X221373072Y-54074698D02*
X221346135Y-54155510D01*
X221346135Y-54155510D02*
X221130636Y-54371009D01*
X221831008Y-53455137D02*
X222208132Y-53832261D01*
X221480822Y-53374325D02*
X221750196Y-53913073D01*
X221750196Y-53913073D02*
X222100382Y-53562887D01*
X219922513Y-77500384D02*
X219841701Y-77527321D01*
X219841701Y-77527321D02*
X219760889Y-77608133D01*
X219760889Y-77608133D02*
X219707014Y-77715883D01*
X219707014Y-77715883D02*
X219707014Y-77823632D01*
X219707014Y-77823632D02*
X219733951Y-77904445D01*
X219733951Y-77904445D02*
X219814764Y-78039132D01*
X219814764Y-78039132D02*
X219895576Y-78119944D01*
X219895576Y-78119944D02*
X220030263Y-78200756D01*
X220030263Y-78200756D02*
X220111075Y-78227693D01*
X220111075Y-78227693D02*
X220218825Y-78227693D01*
X220218825Y-78227693D02*
X220326574Y-78173819D01*
X220326574Y-78173819D02*
X220380449Y-78119944D01*
X220380449Y-78119944D02*
X220434324Y-78012194D01*
X220434324Y-78012194D02*
X220434324Y-77958319D01*
X220434324Y-77958319D02*
X220245762Y-77769758D01*
X220245762Y-77769758D02*
X220138012Y-77877507D01*
X220730635Y-77769758D02*
X220164950Y-77204072D01*
X220164950Y-77204072D02*
X220380449Y-76988573D01*
X220380449Y-76988573D02*
X220461261Y-76961636D01*
X220461261Y-76961636D02*
X220515136Y-76961636D01*
X220515136Y-76961636D02*
X220595948Y-76988573D01*
X220595948Y-76988573D02*
X220676760Y-77069385D01*
X220676760Y-77069385D02*
X220703698Y-77150197D01*
X220703698Y-77150197D02*
X220703698Y-77204072D01*
X220703698Y-77204072D02*
X220676760Y-77284884D01*
X220676760Y-77284884D02*
X220461261Y-77500384D01*
X221592632Y-76907761D02*
X221269383Y-77231010D01*
X221431008Y-77069385D02*
X220865322Y-76503700D01*
X220865322Y-76503700D02*
X220892260Y-76638387D01*
X220892260Y-76638387D02*
X220892260Y-76746136D01*
X220892260Y-76746136D02*
X220865322Y-76826948D01*
X222131380Y-76369013D02*
X221808131Y-76692261D01*
X221969756Y-76530637D02*
X221404070Y-75964951D01*
X221404070Y-75964951D02*
X221431008Y-76099638D01*
X221431008Y-76099638D02*
X221431008Y-76207388D01*
X221431008Y-76207388D02*
X221404070Y-76288200D01*
X246176513Y-90200384D02*
X246095701Y-90227321D01*
X246095701Y-90227321D02*
X246014889Y-90308133D01*
X246014889Y-90308133D02*
X245961014Y-90415883D01*
X245961014Y-90415883D02*
X245961014Y-90523632D01*
X245961014Y-90523632D02*
X245987951Y-90604445D01*
X245987951Y-90604445D02*
X246068764Y-90739132D01*
X246068764Y-90739132D02*
X246149576Y-90819944D01*
X246149576Y-90819944D02*
X246284263Y-90900756D01*
X246284263Y-90900756D02*
X246365075Y-90927693D01*
X246365075Y-90927693D02*
X246472825Y-90927693D01*
X246472825Y-90927693D02*
X246580574Y-90873819D01*
X246580574Y-90873819D02*
X246634449Y-90819944D01*
X246634449Y-90819944D02*
X246688324Y-90712194D01*
X246688324Y-90712194D02*
X246688324Y-90658319D01*
X246688324Y-90658319D02*
X246499762Y-90469758D01*
X246499762Y-90469758D02*
X246392012Y-90577507D01*
X246984635Y-90469758D02*
X246418950Y-89904072D01*
X246418950Y-89904072D02*
X246634449Y-89688573D01*
X246634449Y-89688573D02*
X246715261Y-89661636D01*
X246715261Y-89661636D02*
X246769136Y-89661636D01*
X246769136Y-89661636D02*
X246849948Y-89688573D01*
X246849948Y-89688573D02*
X246930760Y-89769385D01*
X246930760Y-89769385D02*
X246957698Y-89850197D01*
X246957698Y-89850197D02*
X246957698Y-89904072D01*
X246957698Y-89904072D02*
X246930760Y-89984884D01*
X246930760Y-89984884D02*
X246715261Y-90200384D01*
X247846632Y-89607761D02*
X247523383Y-89931010D01*
X247685008Y-89769385D02*
X247119322Y-89203700D01*
X247119322Y-89203700D02*
X247146260Y-89338387D01*
X247146260Y-89338387D02*
X247146260Y-89446136D01*
X247146260Y-89446136D02*
X247119322Y-89526948D01*
X247765820Y-88557202D02*
X247658070Y-88664951D01*
X247658070Y-88664951D02*
X247631133Y-88745764D01*
X247631133Y-88745764D02*
X247631133Y-88799638D01*
X247631133Y-88799638D02*
X247658070Y-88934326D01*
X247658070Y-88934326D02*
X247738883Y-89069013D01*
X247738883Y-89069013D02*
X247954382Y-89284512D01*
X247954382Y-89284512D02*
X248035194Y-89311449D01*
X248035194Y-89311449D02*
X248089069Y-89311449D01*
X248089069Y-89311449D02*
X248169881Y-89284512D01*
X248169881Y-89284512D02*
X248277631Y-89176762D01*
X248277631Y-89176762D02*
X248304568Y-89095950D01*
X248304568Y-89095950D02*
X248304568Y-89042075D01*
X248304568Y-89042075D02*
X248277631Y-88961263D01*
X248277631Y-88961263D02*
X248142944Y-88826576D01*
X248142944Y-88826576D02*
X248062131Y-88799638D01*
X248062131Y-88799638D02*
X248008257Y-88799638D01*
X248008257Y-88799638D02*
X247927444Y-88826576D01*
X247927444Y-88826576D02*
X247819695Y-88934326D01*
X247819695Y-88934326D02*
X247792757Y-89015138D01*
X247792757Y-89015138D02*
X247792757Y-89069013D01*
X247792757Y-89069013D02*
X247819695Y-89149825D01*
X246176513Y-74970384D02*
X246095701Y-74997321D01*
X246095701Y-74997321D02*
X246014889Y-75078133D01*
X246014889Y-75078133D02*
X245961014Y-75185883D01*
X245961014Y-75185883D02*
X245961014Y-75293632D01*
X245961014Y-75293632D02*
X245987951Y-75374445D01*
X245987951Y-75374445D02*
X246068764Y-75509132D01*
X246068764Y-75509132D02*
X246149576Y-75589944D01*
X246149576Y-75589944D02*
X246284263Y-75670756D01*
X246284263Y-75670756D02*
X246365075Y-75697693D01*
X246365075Y-75697693D02*
X246472825Y-75697693D01*
X246472825Y-75697693D02*
X246580574Y-75643819D01*
X246580574Y-75643819D02*
X246634449Y-75589944D01*
X246634449Y-75589944D02*
X246688324Y-75482194D01*
X246688324Y-75482194D02*
X246688324Y-75428319D01*
X246688324Y-75428319D02*
X246499762Y-75239758D01*
X246499762Y-75239758D02*
X246392012Y-75347507D01*
X246984635Y-75239758D02*
X246418950Y-74674072D01*
X246418950Y-74674072D02*
X246634449Y-74458573D01*
X246634449Y-74458573D02*
X246715261Y-74431636D01*
X246715261Y-74431636D02*
X246769136Y-74431636D01*
X246769136Y-74431636D02*
X246849948Y-74458573D01*
X246849948Y-74458573D02*
X246930760Y-74539385D01*
X246930760Y-74539385D02*
X246957698Y-74620197D01*
X246957698Y-74620197D02*
X246957698Y-74674072D01*
X246957698Y-74674072D02*
X246930760Y-74754884D01*
X246930760Y-74754884D02*
X246715261Y-74970384D01*
X247011573Y-74189199D02*
X247011573Y-74135324D01*
X247011573Y-74135324D02*
X247038510Y-74054512D01*
X247038510Y-74054512D02*
X247173197Y-73919825D01*
X247173197Y-73919825D02*
X247254009Y-73892887D01*
X247254009Y-73892887D02*
X247307884Y-73892887D01*
X247307884Y-73892887D02*
X247388696Y-73919825D01*
X247388696Y-73919825D02*
X247442571Y-73973700D01*
X247442571Y-73973700D02*
X247496446Y-74081449D01*
X247496446Y-74081449D02*
X247496446Y-74727947D01*
X247496446Y-74727947D02*
X247846632Y-74377761D01*
X248385380Y-73839013D02*
X248062131Y-74162261D01*
X248223756Y-74000637D02*
X247658070Y-73434951D01*
X247658070Y-73434951D02*
X247685008Y-73569638D01*
X247685008Y-73569638D02*
X247685008Y-73677388D01*
X247685008Y-73677388D02*
X247658070Y-73758200D01*
X237977761Y-92206000D02*
X238092047Y-92244095D01*
X238092047Y-92244095D02*
X238282523Y-92244095D01*
X238282523Y-92244095D02*
X238358714Y-92206000D01*
X238358714Y-92206000D02*
X238396809Y-92167904D01*
X238396809Y-92167904D02*
X238434904Y-92091714D01*
X238434904Y-92091714D02*
X238434904Y-92015523D01*
X238434904Y-92015523D02*
X238396809Y-91939333D01*
X238396809Y-91939333D02*
X238358714Y-91901238D01*
X238358714Y-91901238D02*
X238282523Y-91863142D01*
X238282523Y-91863142D02*
X238130142Y-91825047D01*
X238130142Y-91825047D02*
X238053952Y-91786952D01*
X238053952Y-91786952D02*
X238015857Y-91748857D01*
X238015857Y-91748857D02*
X237977761Y-91672666D01*
X237977761Y-91672666D02*
X237977761Y-91596476D01*
X237977761Y-91596476D02*
X238015857Y-91520285D01*
X238015857Y-91520285D02*
X238053952Y-91482190D01*
X238053952Y-91482190D02*
X238130142Y-91444095D01*
X238130142Y-91444095D02*
X238320619Y-91444095D01*
X238320619Y-91444095D02*
X238434904Y-91482190D01*
X238701571Y-91444095D02*
X238892047Y-92244095D01*
X238892047Y-92244095D02*
X239044428Y-91672666D01*
X239044428Y-91672666D02*
X239196809Y-92244095D01*
X239196809Y-92244095D02*
X239387286Y-91444095D01*
X239692048Y-92244095D02*
X239692048Y-91444095D01*
X239692048Y-91444095D02*
X239882524Y-91444095D01*
X239882524Y-91444095D02*
X239996810Y-91482190D01*
X239996810Y-91482190D02*
X240073000Y-91558380D01*
X240073000Y-91558380D02*
X240111095Y-91634571D01*
X240111095Y-91634571D02*
X240149191Y-91786952D01*
X240149191Y-91786952D02*
X240149191Y-91901238D01*
X240149191Y-91901238D02*
X240111095Y-92053619D01*
X240111095Y-92053619D02*
X240073000Y-92129809D01*
X240073000Y-92129809D02*
X239996810Y-92206000D01*
X239996810Y-92206000D02*
X239882524Y-92244095D01*
X239882524Y-92244095D02*
X239692048Y-92244095D01*
X240492048Y-92244095D02*
X240492048Y-91444095D01*
X241025381Y-91444095D02*
X241177762Y-91444095D01*
X241177762Y-91444095D02*
X241253952Y-91482190D01*
X241253952Y-91482190D02*
X241330143Y-91558380D01*
X241330143Y-91558380D02*
X241368238Y-91710761D01*
X241368238Y-91710761D02*
X241368238Y-91977428D01*
X241368238Y-91977428D02*
X241330143Y-92129809D01*
X241330143Y-92129809D02*
X241253952Y-92206000D01*
X241253952Y-92206000D02*
X241177762Y-92244095D01*
X241177762Y-92244095D02*
X241025381Y-92244095D01*
X241025381Y-92244095D02*
X240949190Y-92206000D01*
X240949190Y-92206000D02*
X240873000Y-92129809D01*
X240873000Y-92129809D02*
X240834904Y-91977428D01*
X240834904Y-91977428D02*
X240834904Y-91710761D01*
X240834904Y-91710761D02*
X240873000Y-91558380D01*
X240873000Y-91558380D02*
X240949190Y-91482190D01*
X240949190Y-91482190D02*
X241025381Y-91444095D01*
X246164950Y-84877946D02*
X246084138Y-84904884D01*
X246084138Y-84904884D02*
X246003326Y-84985696D01*
X246003326Y-84985696D02*
X245949451Y-85093446D01*
X245949451Y-85093446D02*
X245949451Y-85201195D01*
X245949451Y-85201195D02*
X245976389Y-85282007D01*
X245976389Y-85282007D02*
X246057201Y-85416694D01*
X246057201Y-85416694D02*
X246138013Y-85497507D01*
X246138013Y-85497507D02*
X246272700Y-85578319D01*
X246272700Y-85578319D02*
X246353512Y-85605256D01*
X246353512Y-85605256D02*
X246461262Y-85605256D01*
X246461262Y-85605256D02*
X246569011Y-85551381D01*
X246569011Y-85551381D02*
X246622886Y-85497507D01*
X246622886Y-85497507D02*
X246676761Y-85389757D01*
X246676761Y-85389757D02*
X246676761Y-85335882D01*
X246676761Y-85335882D02*
X246488199Y-85147320D01*
X246488199Y-85147320D02*
X246380450Y-85255070D01*
X246973072Y-85147320D02*
X246407387Y-84581635D01*
X246407387Y-84581635D02*
X247296321Y-84824072D01*
X247296321Y-84824072D02*
X246730636Y-84258386D01*
X247565695Y-84554698D02*
X247000010Y-83989012D01*
X247000010Y-83989012D02*
X247134697Y-83854325D01*
X247134697Y-83854325D02*
X247242446Y-83800450D01*
X247242446Y-83800450D02*
X247350196Y-83800450D01*
X247350196Y-83800450D02*
X247431008Y-83827388D01*
X247431008Y-83827388D02*
X247565695Y-83908200D01*
X247565695Y-83908200D02*
X247646507Y-83989012D01*
X247646507Y-83989012D02*
X247727319Y-84123699D01*
X247727319Y-84123699D02*
X247754257Y-84204511D01*
X247754257Y-84204511D02*
X247754257Y-84312261D01*
X247754257Y-84312261D02*
X247700382Y-84420011D01*
X247700382Y-84420011D02*
X247565695Y-84554698D01*
X246176513Y-62270384D02*
X246095701Y-62297321D01*
X246095701Y-62297321D02*
X246014889Y-62378133D01*
X246014889Y-62378133D02*
X245961014Y-62485883D01*
X245961014Y-62485883D02*
X245961014Y-62593632D01*
X245961014Y-62593632D02*
X245987951Y-62674445D01*
X245987951Y-62674445D02*
X246068764Y-62809132D01*
X246068764Y-62809132D02*
X246149576Y-62889944D01*
X246149576Y-62889944D02*
X246284263Y-62970756D01*
X246284263Y-62970756D02*
X246365075Y-62997693D01*
X246365075Y-62997693D02*
X246472825Y-62997693D01*
X246472825Y-62997693D02*
X246580574Y-62943819D01*
X246580574Y-62943819D02*
X246634449Y-62889944D01*
X246634449Y-62889944D02*
X246688324Y-62782194D01*
X246688324Y-62782194D02*
X246688324Y-62728319D01*
X246688324Y-62728319D02*
X246499762Y-62539758D01*
X246499762Y-62539758D02*
X246392012Y-62647507D01*
X246984635Y-62539758D02*
X246418950Y-61974072D01*
X246418950Y-61974072D02*
X246634449Y-61758573D01*
X246634449Y-61758573D02*
X246715261Y-61731636D01*
X246715261Y-61731636D02*
X246769136Y-61731636D01*
X246769136Y-61731636D02*
X246849948Y-61758573D01*
X246849948Y-61758573D02*
X246930760Y-61839385D01*
X246930760Y-61839385D02*
X246957698Y-61920197D01*
X246957698Y-61920197D02*
X246957698Y-61974072D01*
X246957698Y-61974072D02*
X246930760Y-62054884D01*
X246930760Y-62054884D02*
X246715261Y-62270384D01*
X247011573Y-61489199D02*
X247011573Y-61435324D01*
X247011573Y-61435324D02*
X247038510Y-61354512D01*
X247038510Y-61354512D02*
X247173197Y-61219825D01*
X247173197Y-61219825D02*
X247254009Y-61192887D01*
X247254009Y-61192887D02*
X247307884Y-61192887D01*
X247307884Y-61192887D02*
X247388696Y-61219825D01*
X247388696Y-61219825D02*
X247442571Y-61273700D01*
X247442571Y-61273700D02*
X247496446Y-61381449D01*
X247496446Y-61381449D02*
X247496446Y-62027947D01*
X247496446Y-62027947D02*
X247846632Y-61677761D01*
X247469509Y-60923513D02*
X247846632Y-60546390D01*
X247846632Y-60546390D02*
X248169881Y-61354512D01*
X245999265Y-44749757D02*
X246753512Y-45126881D01*
X246753512Y-45126881D02*
X246376388Y-44372634D01*
X247076760Y-44749758D02*
X247184510Y-44695883D01*
X247184510Y-44695883D02*
X247319197Y-44561196D01*
X247319197Y-44561196D02*
X247346134Y-44480384D01*
X247346134Y-44480384D02*
X247346134Y-44426509D01*
X247346134Y-44426509D02*
X247319197Y-44345697D01*
X247319197Y-44345697D02*
X247265322Y-44291822D01*
X247265322Y-44291822D02*
X247184510Y-44264884D01*
X247184510Y-44264884D02*
X247130635Y-44264884D01*
X247130635Y-44264884D02*
X247049823Y-44291822D01*
X247049823Y-44291822D02*
X246915136Y-44372634D01*
X246915136Y-44372634D02*
X246834324Y-44399571D01*
X246834324Y-44399571D02*
X246780449Y-44399571D01*
X246780449Y-44399571D02*
X246699637Y-44372634D01*
X246699637Y-44372634D02*
X246645762Y-44318759D01*
X246645762Y-44318759D02*
X246618825Y-44237947D01*
X246618825Y-44237947D02*
X246618825Y-44184072D01*
X246618825Y-44184072D02*
X246645762Y-44103260D01*
X246645762Y-44103260D02*
X246780449Y-43968573D01*
X246780449Y-43968573D02*
X246888199Y-43914698D01*
X247507759Y-43833886D02*
X247777133Y-44103260D01*
X247022886Y-43726136D02*
X247507759Y-43833886D01*
X247507759Y-43833886D02*
X247400009Y-43349013D01*
X248100382Y-43726136D02*
X248208131Y-43672262D01*
X248208131Y-43672262D02*
X248342818Y-43537575D01*
X248342818Y-43537575D02*
X248369756Y-43456762D01*
X248369756Y-43456762D02*
X248369756Y-43402888D01*
X248369756Y-43402888D02*
X248342818Y-43322075D01*
X248342818Y-43322075D02*
X248288943Y-43268201D01*
X248288943Y-43268201D02*
X248208131Y-43241263D01*
X248208131Y-43241263D02*
X248154256Y-43241263D01*
X248154256Y-43241263D02*
X248073444Y-43268201D01*
X248073444Y-43268201D02*
X247938757Y-43349013D01*
X247938757Y-43349013D02*
X247857945Y-43375950D01*
X247857945Y-43375950D02*
X247804070Y-43375950D01*
X247804070Y-43375950D02*
X247723258Y-43349013D01*
X247723258Y-43349013D02*
X247669383Y-43295138D01*
X247669383Y-43295138D02*
X247642446Y-43214326D01*
X247642446Y-43214326D02*
X247642446Y-43160451D01*
X247642446Y-43160451D02*
X247669383Y-43079639D01*
X247669383Y-43079639D02*
X247804070Y-42944952D01*
X247804070Y-42944952D02*
X247911820Y-42891077D01*
X220591888Y-41671009D02*
X220511075Y-41697946D01*
X220511075Y-41697946D02*
X220430263Y-41778759D01*
X220430263Y-41778759D02*
X220376388Y-41886508D01*
X220376388Y-41886508D02*
X220376388Y-41994258D01*
X220376388Y-41994258D02*
X220403326Y-42075070D01*
X220403326Y-42075070D02*
X220484138Y-42209757D01*
X220484138Y-42209757D02*
X220564950Y-42290569D01*
X220564950Y-42290569D02*
X220699637Y-42371382D01*
X220699637Y-42371382D02*
X220780449Y-42398319D01*
X220780449Y-42398319D02*
X220888199Y-42398319D01*
X220888199Y-42398319D02*
X220995949Y-42344444D01*
X220995949Y-42344444D02*
X221049823Y-42290569D01*
X221049823Y-42290569D02*
X221103698Y-42182820D01*
X221103698Y-42182820D02*
X221103698Y-42128945D01*
X221103698Y-42128945D02*
X220915136Y-41940383D01*
X220915136Y-41940383D02*
X220807387Y-42048133D01*
X221400010Y-41940383D02*
X220834324Y-41374698D01*
X220834324Y-41374698D02*
X221049823Y-41159198D01*
X221049823Y-41159198D02*
X221130636Y-41132261D01*
X221130636Y-41132261D02*
X221184510Y-41132261D01*
X221184510Y-41132261D02*
X221265323Y-41159198D01*
X221265323Y-41159198D02*
X221346135Y-41240011D01*
X221346135Y-41240011D02*
X221373072Y-41320823D01*
X221373072Y-41320823D02*
X221373072Y-41374698D01*
X221373072Y-41374698D02*
X221346135Y-41455510D01*
X221346135Y-41455510D02*
X221130636Y-41671009D01*
X221507759Y-40701263D02*
X221561634Y-40647388D01*
X221561634Y-40647388D02*
X221642446Y-40620450D01*
X221642446Y-40620450D02*
X221696321Y-40620450D01*
X221696321Y-40620450D02*
X221777133Y-40647388D01*
X221777133Y-40647388D02*
X221911820Y-40728200D01*
X221911820Y-40728200D02*
X222046507Y-40862887D01*
X222046507Y-40862887D02*
X222127319Y-40997574D01*
X222127319Y-40997574D02*
X222154257Y-41078386D01*
X222154257Y-41078386D02*
X222154257Y-41132261D01*
X222154257Y-41132261D02*
X222127319Y-41213073D01*
X222127319Y-41213073D02*
X222073445Y-41266948D01*
X222073445Y-41266948D02*
X221992632Y-41293885D01*
X221992632Y-41293885D02*
X221938758Y-41293885D01*
X221938758Y-41293885D02*
X221857945Y-41266948D01*
X221857945Y-41266948D02*
X221723258Y-41186136D01*
X221723258Y-41186136D02*
X221588571Y-41051449D01*
X221588571Y-41051449D02*
X221507759Y-40916762D01*
X221507759Y-40916762D02*
X221480822Y-40835950D01*
X221480822Y-40835950D02*
X221480822Y-40782075D01*
X221480822Y-40782075D02*
X221507759Y-40701263D01*
X245968638Y-52170383D02*
X246318825Y-51820197D01*
X246318825Y-51820197D02*
X246345762Y-52224258D01*
X246345762Y-52224258D02*
X246426574Y-52143446D01*
X246426574Y-52143446D02*
X246507386Y-52116509D01*
X246507386Y-52116509D02*
X246561261Y-52116509D01*
X246561261Y-52116509D02*
X246642073Y-52143446D01*
X246642073Y-52143446D02*
X246776760Y-52278133D01*
X246776760Y-52278133D02*
X246803698Y-52358945D01*
X246803698Y-52358945D02*
X246803698Y-52412820D01*
X246803698Y-52412820D02*
X246776760Y-52493632D01*
X246776760Y-52493632D02*
X246615136Y-52655257D01*
X246615136Y-52655257D02*
X246534324Y-52682194D01*
X246534324Y-52682194D02*
X246480449Y-52682194D01*
X246480449Y-51658573D02*
X247234696Y-52035696D01*
X247234696Y-52035696D02*
X246857573Y-51281449D01*
X246992260Y-51146762D02*
X247342446Y-50796576D01*
X247342446Y-50796576D02*
X247369383Y-51200637D01*
X247369383Y-51200637D02*
X247450195Y-51119825D01*
X247450195Y-51119825D02*
X247531008Y-51092887D01*
X247531008Y-51092887D02*
X247584882Y-51092887D01*
X247584882Y-51092887D02*
X247665695Y-51119825D01*
X247665695Y-51119825D02*
X247800382Y-51254512D01*
X247800382Y-51254512D02*
X247827319Y-51335324D01*
X247827319Y-51335324D02*
X247827319Y-51389199D01*
X247827319Y-51389199D02*
X247800382Y-51470011D01*
X247800382Y-51470011D02*
X247638757Y-51631635D01*
X247638757Y-51631635D02*
X247557945Y-51658573D01*
X247557945Y-51658573D02*
X247504070Y-51658573D01*
X246230389Y-60420755D02*
X246499763Y-60151381D01*
X246338138Y-60636254D02*
X245961015Y-59882007D01*
X245961015Y-59882007D02*
X246715262Y-60259131D01*
X246661387Y-59235510D02*
X246580575Y-59262447D01*
X246580575Y-59262447D02*
X246499762Y-59343259D01*
X246499762Y-59343259D02*
X246445888Y-59451009D01*
X246445888Y-59451009D02*
X246445888Y-59558759D01*
X246445888Y-59558759D02*
X246472825Y-59639571D01*
X246472825Y-59639571D02*
X246553637Y-59774258D01*
X246553637Y-59774258D02*
X246634449Y-59855070D01*
X246634449Y-59855070D02*
X246769136Y-59935882D01*
X246769136Y-59935882D02*
X246849949Y-59962820D01*
X246849949Y-59962820D02*
X246957698Y-59962820D01*
X246957698Y-59962820D02*
X247065448Y-59908945D01*
X247065448Y-59908945D02*
X247119323Y-59855070D01*
X247119323Y-59855070D02*
X247173197Y-59747320D01*
X247173197Y-59747320D02*
X247173197Y-59693446D01*
X247173197Y-59693446D02*
X246984636Y-59504884D01*
X246984636Y-59504884D02*
X246876886Y-59612633D01*
X247469509Y-59504884D02*
X246903823Y-58939198D01*
X246903823Y-58939198D02*
X247792758Y-59181635D01*
X247792758Y-59181635D02*
X247227072Y-58615950D01*
X248062132Y-58912261D02*
X247496446Y-58346576D01*
X247496446Y-58346576D02*
X247631133Y-58211889D01*
X247631133Y-58211889D02*
X247738883Y-58158014D01*
X247738883Y-58158014D02*
X247846632Y-58158014D01*
X247846632Y-58158014D02*
X247927445Y-58184951D01*
X247927445Y-58184951D02*
X248062132Y-58265764D01*
X248062132Y-58265764D02*
X248142944Y-58346576D01*
X248142944Y-58346576D02*
X248223756Y-58481263D01*
X248223756Y-58481263D02*
X248250693Y-58562075D01*
X248250693Y-58562075D02*
X248250693Y-58669825D01*
X248250693Y-58669825D02*
X248196819Y-58777574D01*
X248196819Y-58777574D02*
X248062132Y-58912261D01*
X246176513Y-69880384D02*
X246095701Y-69907321D01*
X246095701Y-69907321D02*
X246014889Y-69988133D01*
X246014889Y-69988133D02*
X245961014Y-70095883D01*
X245961014Y-70095883D02*
X245961014Y-70203632D01*
X245961014Y-70203632D02*
X245987951Y-70284445D01*
X245987951Y-70284445D02*
X246068764Y-70419132D01*
X246068764Y-70419132D02*
X246149576Y-70499944D01*
X246149576Y-70499944D02*
X246284263Y-70580756D01*
X246284263Y-70580756D02*
X246365075Y-70607693D01*
X246365075Y-70607693D02*
X246472825Y-70607693D01*
X246472825Y-70607693D02*
X246580574Y-70553819D01*
X246580574Y-70553819D02*
X246634449Y-70499944D01*
X246634449Y-70499944D02*
X246688324Y-70392194D01*
X246688324Y-70392194D02*
X246688324Y-70338319D01*
X246688324Y-70338319D02*
X246499762Y-70149758D01*
X246499762Y-70149758D02*
X246392012Y-70257507D01*
X246984635Y-70149758D02*
X246418950Y-69584072D01*
X246418950Y-69584072D02*
X246634449Y-69368573D01*
X246634449Y-69368573D02*
X246715261Y-69341636D01*
X246715261Y-69341636D02*
X246769136Y-69341636D01*
X246769136Y-69341636D02*
X246849948Y-69368573D01*
X246849948Y-69368573D02*
X246930760Y-69449385D01*
X246930760Y-69449385D02*
X246957698Y-69530197D01*
X246957698Y-69530197D02*
X246957698Y-69584072D01*
X246957698Y-69584072D02*
X246930760Y-69664884D01*
X246930760Y-69664884D02*
X246715261Y-69880384D01*
X247011573Y-69099199D02*
X247011573Y-69045324D01*
X247011573Y-69045324D02*
X247038510Y-68964512D01*
X247038510Y-68964512D02*
X247173197Y-68829825D01*
X247173197Y-68829825D02*
X247254009Y-68802887D01*
X247254009Y-68802887D02*
X247307884Y-68802887D01*
X247307884Y-68802887D02*
X247388696Y-68829825D01*
X247388696Y-68829825D02*
X247442571Y-68883700D01*
X247442571Y-68883700D02*
X247496446Y-68991449D01*
X247496446Y-68991449D02*
X247496446Y-69637947D01*
X247496446Y-69637947D02*
X247846632Y-69287761D01*
X247550321Y-68560451D02*
X247550321Y-68506576D01*
X247550321Y-68506576D02*
X247577258Y-68425764D01*
X247577258Y-68425764D02*
X247711945Y-68291077D01*
X247711945Y-68291077D02*
X247792757Y-68264139D01*
X247792757Y-68264139D02*
X247846632Y-68264139D01*
X247846632Y-68264139D02*
X247927444Y-68291077D01*
X247927444Y-68291077D02*
X247981319Y-68344951D01*
X247981319Y-68344951D02*
X248035194Y-68452701D01*
X248035194Y-68452701D02*
X248035194Y-69099199D01*
X248035194Y-69099199D02*
X248385380Y-68749013D01*
%TO.C,J1*%
X251936666Y-41132619D02*
X251936666Y-41846904D01*
X251936666Y-41846904D02*
X251889047Y-41989761D01*
X251889047Y-41989761D02*
X251793809Y-42085000D01*
X251793809Y-42085000D02*
X251650952Y-42132619D01*
X251650952Y-42132619D02*
X251555714Y-42132619D01*
X252936666Y-42132619D02*
X252365238Y-42132619D01*
X252650952Y-42132619D02*
X252650952Y-41132619D01*
X252650952Y-41132619D02*
X252555714Y-41275476D01*
X252555714Y-41275476D02*
X252460476Y-41370714D01*
X252460476Y-41370714D02*
X252365238Y-41418333D01*
%TO.C,REF\u002A\u002A*%
X167666666Y-43262619D02*
X167333333Y-42786428D01*
X167095238Y-43262619D02*
X167095238Y-42262619D01*
X167095238Y-42262619D02*
X167476190Y-42262619D01*
X167476190Y-42262619D02*
X167571428Y-42310238D01*
X167571428Y-42310238D02*
X167619047Y-42357857D01*
X167619047Y-42357857D02*
X167666666Y-42453095D01*
X167666666Y-42453095D02*
X167666666Y-42595952D01*
X167666666Y-42595952D02*
X167619047Y-42691190D01*
X167619047Y-42691190D02*
X167571428Y-42738809D01*
X167571428Y-42738809D02*
X167476190Y-42786428D01*
X167476190Y-42786428D02*
X167095238Y-42786428D01*
X168095238Y-42738809D02*
X168428571Y-42738809D01*
X168571428Y-43262619D02*
X168095238Y-43262619D01*
X168095238Y-43262619D02*
X168095238Y-42262619D01*
X168095238Y-42262619D02*
X168571428Y-42262619D01*
X169333333Y-42738809D02*
X169000000Y-42738809D01*
X169000000Y-43262619D02*
X169000000Y-42262619D01*
X169000000Y-42262619D02*
X169476190Y-42262619D01*
X170000000Y-42262619D02*
X170000000Y-42500714D01*
X169761905Y-42405476D02*
X170000000Y-42500714D01*
X170000000Y-42500714D02*
X170238095Y-42405476D01*
X169857143Y-42691190D02*
X170000000Y-42500714D01*
X170000000Y-42500714D02*
X170142857Y-42691190D01*
X170761905Y-42262619D02*
X170761905Y-42500714D01*
X170523810Y-42405476D02*
X170761905Y-42500714D01*
X170761905Y-42500714D02*
X171000000Y-42405476D01*
X170619048Y-42691190D02*
X170761905Y-42500714D01*
X170761905Y-42500714D02*
X170904762Y-42691190D01*
%TO.C,SW2*%
X154801879Y-49635245D02*
X154952193Y-49644267D01*
X154952193Y-49644267D02*
X155182175Y-49582643D01*
X155182175Y-49582643D02*
X155261843Y-49511997D01*
X155261843Y-49511997D02*
X155295515Y-49453676D01*
X155295515Y-49453676D02*
X155316862Y-49349359D01*
X155316862Y-49349359D02*
X155292213Y-49257366D01*
X155292213Y-49257366D02*
X155221567Y-49177697D01*
X155221567Y-49177697D02*
X155163246Y-49144026D01*
X155163246Y-49144026D02*
X155058928Y-49122679D01*
X155058928Y-49122679D02*
X154862618Y-49125981D01*
X154862618Y-49125981D02*
X154758300Y-49104634D01*
X154758300Y-49104634D02*
X154699979Y-49070962D01*
X154699979Y-49070962D02*
X154629333Y-48991294D01*
X154629333Y-48991294D02*
X154604683Y-48899301D01*
X154604683Y-48899301D02*
X154626030Y-48794984D01*
X154626030Y-48794984D02*
X154659702Y-48736662D01*
X154659702Y-48736662D02*
X154739370Y-48666016D01*
X154739370Y-48666016D02*
X154969353Y-48604393D01*
X154969353Y-48604393D02*
X155119667Y-48613415D01*
X155429317Y-48481146D02*
X155918119Y-49385448D01*
X155918119Y-49385448D02*
X155917234Y-48646202D01*
X155917234Y-48646202D02*
X156286091Y-49286850D01*
X156286091Y-49286850D02*
X156257254Y-48259301D01*
X156603878Y-48265021D02*
X156637550Y-48206700D01*
X156637550Y-48206700D02*
X156717218Y-48136054D01*
X156717218Y-48136054D02*
X156947201Y-48074430D01*
X156947201Y-48074430D02*
X157051518Y-48095777D01*
X157051518Y-48095777D02*
X157109840Y-48129449D01*
X157109840Y-48129449D02*
X157180485Y-48209117D01*
X157180485Y-48209117D02*
X157205135Y-48301110D01*
X157205135Y-48301110D02*
X157196113Y-48451424D01*
X157196113Y-48451424D02*
X156792052Y-49151278D01*
X156792052Y-49151278D02*
X157390006Y-48991057D01*
%TO.C,REF\u002A\u002A*%
X147666666Y-121262619D02*
X147333333Y-120786428D01*
X147095238Y-121262619D02*
X147095238Y-120262619D01*
X147095238Y-120262619D02*
X147476190Y-120262619D01*
X147476190Y-120262619D02*
X147571428Y-120310238D01*
X147571428Y-120310238D02*
X147619047Y-120357857D01*
X147619047Y-120357857D02*
X147666666Y-120453095D01*
X147666666Y-120453095D02*
X147666666Y-120595952D01*
X147666666Y-120595952D02*
X147619047Y-120691190D01*
X147619047Y-120691190D02*
X147571428Y-120738809D01*
X147571428Y-120738809D02*
X147476190Y-120786428D01*
X147476190Y-120786428D02*
X147095238Y-120786428D01*
X148095238Y-120738809D02*
X148428571Y-120738809D01*
X148571428Y-121262619D02*
X148095238Y-121262619D01*
X148095238Y-121262619D02*
X148095238Y-120262619D01*
X148095238Y-120262619D02*
X148571428Y-120262619D01*
X149333333Y-120738809D02*
X149000000Y-120738809D01*
X149000000Y-121262619D02*
X149000000Y-120262619D01*
X149000000Y-120262619D02*
X149476190Y-120262619D01*
X150000000Y-120262619D02*
X150000000Y-120500714D01*
X149761905Y-120405476D02*
X150000000Y-120500714D01*
X150000000Y-120500714D02*
X150238095Y-120405476D01*
X149857143Y-120691190D02*
X150000000Y-120500714D01*
X150000000Y-120500714D02*
X150142857Y-120691190D01*
X150761905Y-120262619D02*
X150761905Y-120500714D01*
X150523810Y-120405476D02*
X150761905Y-120500714D01*
X150761905Y-120500714D02*
X151000000Y-120405476D01*
X150619048Y-120691190D02*
X150761905Y-120500714D01*
X150761905Y-120500714D02*
X150904762Y-120691190D01*
%TO.C,SW4*%
X207564023Y-47324798D02*
X207707250Y-47371293D01*
X207707250Y-47371293D02*
X207945338Y-47369423D01*
X207945338Y-47369423D02*
X208040199Y-47321058D01*
X208040199Y-47321058D02*
X208087443Y-47273066D01*
X208087443Y-47273066D02*
X208134312Y-47177457D01*
X208134312Y-47177457D02*
X208133564Y-47082222D01*
X208133564Y-47082222D02*
X208085199Y-46987361D01*
X208085199Y-46987361D02*
X208037207Y-46940117D01*
X208037207Y-46940117D02*
X207941598Y-46893247D01*
X207941598Y-46893247D02*
X207750754Y-46847126D01*
X207750754Y-46847126D02*
X207655144Y-46800256D01*
X207655144Y-46800256D02*
X207607153Y-46753013D01*
X207607153Y-46753013D02*
X207558787Y-46658151D01*
X207558787Y-46658151D02*
X207558039Y-46562916D01*
X207558039Y-46562916D02*
X207604909Y-46467307D01*
X207604909Y-46467307D02*
X207652152Y-46419316D01*
X207652152Y-46419316D02*
X207747014Y-46370950D01*
X207747014Y-46370950D02*
X207985101Y-46369080D01*
X207985101Y-46369080D02*
X208128328Y-46415576D01*
X208461277Y-46365340D02*
X208707219Y-47363439D01*
X208707219Y-47363439D02*
X208892080Y-46647680D01*
X208892080Y-46647680D02*
X209088160Y-47360447D01*
X209088160Y-47360447D02*
X209318394Y-46358608D01*
X210130510Y-46685573D02*
X210135746Y-47352219D01*
X209889431Y-46306503D02*
X209656953Y-47022636D01*
X209656953Y-47022636D02*
X210275981Y-47017774D01*
%TO.C,SW6*%
X159978260Y-68953760D02*
X160128574Y-68962782D01*
X160128574Y-68962782D02*
X160358556Y-68901158D01*
X160358556Y-68901158D02*
X160438224Y-68830512D01*
X160438224Y-68830512D02*
X160471896Y-68772191D01*
X160471896Y-68772191D02*
X160493243Y-68667874D01*
X160493243Y-68667874D02*
X160468594Y-68575881D01*
X160468594Y-68575881D02*
X160397948Y-68496212D01*
X160397948Y-68496212D02*
X160339627Y-68462541D01*
X160339627Y-68462541D02*
X160235309Y-68441194D01*
X160235309Y-68441194D02*
X160038999Y-68444496D01*
X160038999Y-68444496D02*
X159934681Y-68423149D01*
X159934681Y-68423149D02*
X159876360Y-68389477D01*
X159876360Y-68389477D02*
X159805714Y-68309809D01*
X159805714Y-68309809D02*
X159781064Y-68217816D01*
X159781064Y-68217816D02*
X159802411Y-68113499D01*
X159802411Y-68113499D02*
X159836083Y-68055177D01*
X159836083Y-68055177D02*
X159915751Y-67984531D01*
X159915751Y-67984531D02*
X160145734Y-67922908D01*
X160145734Y-67922908D02*
X160296048Y-67931930D01*
X160605698Y-67799661D02*
X161094500Y-68703963D01*
X161094500Y-68703963D02*
X161093615Y-67964717D01*
X161093615Y-67964717D02*
X161462472Y-68605365D01*
X161462472Y-68605365D02*
X161433635Y-67577816D01*
X162215575Y-67368296D02*
X162031589Y-67417594D01*
X162031589Y-67417594D02*
X161951921Y-67488240D01*
X161951921Y-67488240D02*
X161918249Y-67546562D01*
X161918249Y-67546562D02*
X161863230Y-67709200D01*
X161863230Y-67709200D02*
X161866532Y-67905511D01*
X161866532Y-67905511D02*
X161965130Y-68273483D01*
X161965130Y-68273483D02*
X162035776Y-68353151D01*
X162035776Y-68353151D02*
X162094097Y-68386823D01*
X162094097Y-68386823D02*
X162198415Y-68408170D01*
X162198415Y-68408170D02*
X162382401Y-68358871D01*
X162382401Y-68358871D02*
X162462069Y-68288225D01*
X162462069Y-68288225D02*
X162495741Y-68229904D01*
X162495741Y-68229904D02*
X162517088Y-68125586D01*
X162517088Y-68125586D02*
X162455464Y-67895604D01*
X162455464Y-67895604D02*
X162384818Y-67815936D01*
X162384818Y-67815936D02*
X162326497Y-67782264D01*
X162326497Y-67782264D02*
X162222179Y-67760917D01*
X162222179Y-67760917D02*
X162038194Y-67810216D01*
X162038194Y-67810216D02*
X161958525Y-67880862D01*
X161958525Y-67880862D02*
X161924854Y-67939183D01*
X161924854Y-67939183D02*
X161903507Y-68043500D01*
%TO.C,REF\u002A\u002A*%
X132666666Y-56262619D02*
X132333333Y-55786428D01*
X132095238Y-56262619D02*
X132095238Y-55262619D01*
X132095238Y-55262619D02*
X132476190Y-55262619D01*
X132476190Y-55262619D02*
X132571428Y-55310238D01*
X132571428Y-55310238D02*
X132619047Y-55357857D01*
X132619047Y-55357857D02*
X132666666Y-55453095D01*
X132666666Y-55453095D02*
X132666666Y-55595952D01*
X132666666Y-55595952D02*
X132619047Y-55691190D01*
X132619047Y-55691190D02*
X132571428Y-55738809D01*
X132571428Y-55738809D02*
X132476190Y-55786428D01*
X132476190Y-55786428D02*
X132095238Y-55786428D01*
X133095238Y-55738809D02*
X133428571Y-55738809D01*
X133571428Y-56262619D02*
X133095238Y-56262619D01*
X133095238Y-56262619D02*
X133095238Y-55262619D01*
X133095238Y-55262619D02*
X133571428Y-55262619D01*
X134333333Y-55738809D02*
X134000000Y-55738809D01*
X134000000Y-56262619D02*
X134000000Y-55262619D01*
X134000000Y-55262619D02*
X134476190Y-55262619D01*
X135000000Y-55262619D02*
X135000000Y-55500714D01*
X134761905Y-55405476D02*
X135000000Y-55500714D01*
X135000000Y-55500714D02*
X135238095Y-55405476D01*
X134857143Y-55691190D02*
X135000000Y-55500714D01*
X135000000Y-55500714D02*
X135142857Y-55691190D01*
X135761905Y-55262619D02*
X135761905Y-55500714D01*
X135523810Y-55405476D02*
X135761905Y-55500714D01*
X135761905Y-55500714D02*
X136000000Y-55405476D01*
X135619048Y-55691190D02*
X135761905Y-55500714D01*
X135761905Y-55500714D02*
X135904762Y-55691190D01*
X168732070Y-105204212D02*
X168398737Y-104728021D01*
X168160642Y-105204212D02*
X168160642Y-104204212D01*
X168160642Y-104204212D02*
X168541594Y-104204212D01*
X168541594Y-104204212D02*
X168636832Y-104251831D01*
X168636832Y-104251831D02*
X168684451Y-104299450D01*
X168684451Y-104299450D02*
X168732070Y-104394688D01*
X168732070Y-104394688D02*
X168732070Y-104537545D01*
X168732070Y-104537545D02*
X168684451Y-104632783D01*
X168684451Y-104632783D02*
X168636832Y-104680402D01*
X168636832Y-104680402D02*
X168541594Y-104728021D01*
X168541594Y-104728021D02*
X168160642Y-104728021D01*
X169160642Y-104680402D02*
X169493975Y-104680402D01*
X169636832Y-105204212D02*
X169160642Y-105204212D01*
X169160642Y-105204212D02*
X169160642Y-104204212D01*
X169160642Y-104204212D02*
X169636832Y-104204212D01*
X170398737Y-104680402D02*
X170065404Y-104680402D01*
X170065404Y-105204212D02*
X170065404Y-104204212D01*
X170065404Y-104204212D02*
X170541594Y-104204212D01*
X171065404Y-104204212D02*
X171065404Y-104442307D01*
X170827309Y-104347069D02*
X171065404Y-104442307D01*
X171065404Y-104442307D02*
X171303499Y-104347069D01*
X170922547Y-104632783D02*
X171065404Y-104442307D01*
X171065404Y-104442307D02*
X171208261Y-104632783D01*
X171827309Y-104204212D02*
X171827309Y-104442307D01*
X171589214Y-104347069D02*
X171827309Y-104442307D01*
X171827309Y-104442307D02*
X172065404Y-104347069D01*
X171684452Y-104632783D02*
X171827309Y-104442307D01*
X171827309Y-104442307D02*
X171970166Y-104632783D01*
X256666666Y-117262619D02*
X256333333Y-116786428D01*
X256095238Y-117262619D02*
X256095238Y-116262619D01*
X256095238Y-116262619D02*
X256476190Y-116262619D01*
X256476190Y-116262619D02*
X256571428Y-116310238D01*
X256571428Y-116310238D02*
X256619047Y-116357857D01*
X256619047Y-116357857D02*
X256666666Y-116453095D01*
X256666666Y-116453095D02*
X256666666Y-116595952D01*
X256666666Y-116595952D02*
X256619047Y-116691190D01*
X256619047Y-116691190D02*
X256571428Y-116738809D01*
X256571428Y-116738809D02*
X256476190Y-116786428D01*
X256476190Y-116786428D02*
X256095238Y-116786428D01*
X257095238Y-116738809D02*
X257428571Y-116738809D01*
X257571428Y-117262619D02*
X257095238Y-117262619D01*
X257095238Y-117262619D02*
X257095238Y-116262619D01*
X257095238Y-116262619D02*
X257571428Y-116262619D01*
X258333333Y-116738809D02*
X258000000Y-116738809D01*
X258000000Y-117262619D02*
X258000000Y-116262619D01*
X258000000Y-116262619D02*
X258476190Y-116262619D01*
X259000000Y-116262619D02*
X259000000Y-116500714D01*
X258761905Y-116405476D02*
X259000000Y-116500714D01*
X259000000Y-116500714D02*
X259238095Y-116405476D01*
X258857143Y-116691190D02*
X259000000Y-116500714D01*
X259000000Y-116500714D02*
X259142857Y-116691190D01*
X259761905Y-116262619D02*
X259761905Y-116500714D01*
X259523810Y-116405476D02*
X259761905Y-116500714D01*
X259761905Y-116500714D02*
X260000000Y-116405476D01*
X259619048Y-116691190D02*
X259761905Y-116500714D01*
X259761905Y-116500714D02*
X259904762Y-116691190D01*
%TO.C,SW8*%
X207913071Y-67321752D02*
X208056298Y-67368247D01*
X208056298Y-67368247D02*
X208294386Y-67366377D01*
X208294386Y-67366377D02*
X208389247Y-67318012D01*
X208389247Y-67318012D02*
X208436491Y-67270020D01*
X208436491Y-67270020D02*
X208483360Y-67174411D01*
X208483360Y-67174411D02*
X208482612Y-67079176D01*
X208482612Y-67079176D02*
X208434247Y-66984315D01*
X208434247Y-66984315D02*
X208386255Y-66937071D01*
X208386255Y-66937071D02*
X208290646Y-66890201D01*
X208290646Y-66890201D02*
X208099802Y-66844080D01*
X208099802Y-66844080D02*
X208004192Y-66797210D01*
X208004192Y-66797210D02*
X207956201Y-66749967D01*
X207956201Y-66749967D02*
X207907835Y-66655105D01*
X207907835Y-66655105D02*
X207907087Y-66559870D01*
X207907087Y-66559870D02*
X207953957Y-66464261D01*
X207953957Y-66464261D02*
X208001200Y-66416270D01*
X208001200Y-66416270D02*
X208096062Y-66367904D01*
X208096062Y-66367904D02*
X208334149Y-66366034D01*
X208334149Y-66366034D02*
X208477376Y-66412530D01*
X208810325Y-66362294D02*
X209056267Y-67360393D01*
X209056267Y-67360393D02*
X209241128Y-66644634D01*
X209241128Y-66644634D02*
X209437208Y-67357401D01*
X209437208Y-67357401D02*
X209667442Y-66355562D01*
X210194601Y-66780006D02*
X210098992Y-66733137D01*
X210098992Y-66733137D02*
X210051000Y-66685893D01*
X210051000Y-66685893D02*
X210002635Y-66591032D01*
X210002635Y-66591032D02*
X210002261Y-66543415D01*
X210002261Y-66543415D02*
X210049130Y-66447805D01*
X210049130Y-66447805D02*
X210096374Y-66399814D01*
X210096374Y-66399814D02*
X210191235Y-66351448D01*
X210191235Y-66351448D02*
X210381705Y-66349952D01*
X210381705Y-66349952D02*
X210477314Y-66396822D01*
X210477314Y-66396822D02*
X210525306Y-66444065D01*
X210525306Y-66444065D02*
X210573672Y-66538927D01*
X210573672Y-66538927D02*
X210574046Y-66586544D01*
X210574046Y-66586544D02*
X210527176Y-66682153D01*
X210527176Y-66682153D02*
X210479932Y-66730145D01*
X210479932Y-66730145D02*
X210385071Y-66778510D01*
X210385071Y-66778510D02*
X210194601Y-66780006D01*
X210194601Y-66780006D02*
X210099740Y-66828372D01*
X210099740Y-66828372D02*
X210052496Y-66876364D01*
X210052496Y-66876364D02*
X210005627Y-66971973D01*
X210005627Y-66971973D02*
X210007123Y-67162443D01*
X210007123Y-67162443D02*
X210055488Y-67257304D01*
X210055488Y-67257304D02*
X210103480Y-67304548D01*
X210103480Y-67304548D02*
X210199089Y-67351417D01*
X210199089Y-67351417D02*
X210389559Y-67349921D01*
X210389559Y-67349921D02*
X210484420Y-67301556D01*
X210484420Y-67301556D02*
X210531664Y-67253564D01*
X210531664Y-67253564D02*
X210578534Y-67157955D01*
X210578534Y-67157955D02*
X210577038Y-66967485D01*
X210577038Y-66967485D02*
X210528672Y-66872624D01*
X210528672Y-66872624D02*
X210480680Y-66825380D01*
X210480680Y-66825380D02*
X210385071Y-66778510D01*
%TO.C,SW7*%
X182606631Y-60982160D02*
X182755587Y-61004248D01*
X182755587Y-61004248D02*
X182990065Y-60962903D01*
X182990065Y-60962903D02*
X183075587Y-60899470D01*
X183075587Y-60899470D02*
X183114214Y-60844305D01*
X183114214Y-60844305D02*
X183144571Y-60742245D01*
X183144571Y-60742245D02*
X183128033Y-60648454D01*
X183128033Y-60648454D02*
X183064600Y-60562932D01*
X183064600Y-60562932D02*
X183009435Y-60524305D01*
X183009435Y-60524305D02*
X182907375Y-60493947D01*
X182907375Y-60493947D02*
X182711524Y-60480128D01*
X182711524Y-60480128D02*
X182609464Y-60449770D01*
X182609464Y-60449770D02*
X182554299Y-60411143D01*
X182554299Y-60411143D02*
X182490866Y-60325621D01*
X182490866Y-60325621D02*
X182474328Y-60231830D01*
X182474328Y-60231830D02*
X182504685Y-60129770D01*
X182504685Y-60129770D02*
X182543312Y-60074605D01*
X182543312Y-60074605D02*
X182628834Y-60011172D01*
X182628834Y-60011172D02*
X182863312Y-59969827D01*
X182863312Y-59969827D02*
X183012268Y-59991915D01*
X183332268Y-59887137D02*
X183740395Y-60830600D01*
X183740395Y-60830600D02*
X183803943Y-60094090D01*
X183803943Y-60094090D02*
X184115559Y-60764448D01*
X184115559Y-60764448D02*
X184176389Y-59738296D01*
X184457763Y-59688682D02*
X185114301Y-59572917D01*
X185114301Y-59572917D02*
X184865889Y-60632145D01*
%TO.C,J3*%
X253366666Y-75432619D02*
X253366666Y-76146904D01*
X253366666Y-76146904D02*
X253319047Y-76289761D01*
X253319047Y-76289761D02*
X253223809Y-76385000D01*
X253223809Y-76385000D02*
X253080952Y-76432619D01*
X253080952Y-76432619D02*
X252985714Y-76432619D01*
X253747619Y-75432619D02*
X254366666Y-75432619D01*
X254366666Y-75432619D02*
X254033333Y-75813571D01*
X254033333Y-75813571D02*
X254176190Y-75813571D01*
X254176190Y-75813571D02*
X254271428Y-75861190D01*
X254271428Y-75861190D02*
X254319047Y-75908809D01*
X254319047Y-75908809D02*
X254366666Y-76004047D01*
X254366666Y-76004047D02*
X254366666Y-76242142D01*
X254366666Y-76242142D02*
X254319047Y-76337380D01*
X254319047Y-76337380D02*
X254271428Y-76385000D01*
X254271428Y-76385000D02*
X254176190Y-76432619D01*
X254176190Y-76432619D02*
X253890476Y-76432619D01*
X253890476Y-76432619D02*
X253795238Y-76385000D01*
X253795238Y-76385000D02*
X253747619Y-76337380D01*
%TO.C,SW11*%
X185068825Y-80849902D02*
X185217781Y-80871991D01*
X185217781Y-80871991D02*
X185452259Y-80830646D01*
X185452259Y-80830646D02*
X185537781Y-80767213D01*
X185537781Y-80767213D02*
X185576408Y-80712048D01*
X185576408Y-80712048D02*
X185606766Y-80609988D01*
X185606766Y-80609988D02*
X185590228Y-80516197D01*
X185590228Y-80516197D02*
X185526794Y-80430674D01*
X185526794Y-80430674D02*
X185471630Y-80392048D01*
X185471630Y-80392048D02*
X185369570Y-80361690D01*
X185369570Y-80361690D02*
X185173718Y-80347870D01*
X185173718Y-80347870D02*
X185071658Y-80317513D01*
X185071658Y-80317513D02*
X185016493Y-80278886D01*
X185016493Y-80278886D02*
X184953060Y-80193364D01*
X184953060Y-80193364D02*
X184936522Y-80099573D01*
X184936522Y-80099573D02*
X184966880Y-79997512D01*
X184966880Y-79997512D02*
X185005506Y-79942348D01*
X185005506Y-79942348D02*
X185091029Y-79878914D01*
X185091029Y-79878914D02*
X185325507Y-79837569D01*
X185325507Y-79837569D02*
X185474462Y-79859658D01*
X185794463Y-79754880D02*
X186202589Y-80698343D01*
X186202589Y-80698343D02*
X186266137Y-79961833D01*
X186266137Y-79961833D02*
X186577754Y-80632191D01*
X186577754Y-80632191D02*
X186638584Y-79606039D01*
X187703248Y-80433736D02*
X187140501Y-80532964D01*
X187421875Y-80483350D02*
X187248226Y-79498542D01*
X187248226Y-79498542D02*
X187179242Y-79655767D01*
X187179242Y-79655767D02*
X187101989Y-79766096D01*
X187101989Y-79766096D02*
X187016467Y-79829529D01*
X188641160Y-80268357D02*
X188078413Y-80367584D01*
X188359787Y-80317971D02*
X188186139Y-79333163D01*
X188186139Y-79333163D02*
X188117154Y-79490388D01*
X188117154Y-79490388D02*
X188039901Y-79600717D01*
X188039901Y-79600717D02*
X187954379Y-79664150D01*
D12*
%TO.C,SW01*%
X128827879Y-66945257D02*
X141955385Y-62167236D01*
X133605901Y-80072763D02*
X128827879Y-66945257D01*
X141955385Y-62167236D02*
X146733407Y-75294742D01*
X146733407Y-75294742D02*
X133605901Y-80072763D01*
%TO.C,SW3*%
X174191983Y-42645306D02*
X187949748Y-40219441D01*
X176617848Y-56403070D02*
X174191983Y-42645306D01*
X187949748Y-40219441D02*
X190375613Y-53977205D01*
X190375613Y-53977205D02*
X176617848Y-56403070D01*
%TO.C,SW14*%
X255476163Y-130364434D02*
X266309839Y-139184433D01*
X246656165Y-141198110D02*
X255476163Y-130364434D01*
X266309839Y-139184433D02*
X257489840Y-150018108D01*
X257489840Y-150018108D02*
X246656165Y-141198110D01*
%TO.C,SW13*%
X238157470Y-118064630D02*
X249704929Y-125927014D01*
X230295085Y-129612088D02*
X238157470Y-118064630D01*
X249704929Y-125927014D02*
X241842544Y-137474473D01*
X241842544Y-137474473D02*
X230295085Y-129612088D01*
%TO.C,SW10*%
X159818230Y-90192885D02*
X173312214Y-86577183D01*
X163433932Y-103686868D02*
X159818230Y-90192885D01*
X173312214Y-86577183D02*
X176927916Y-100071166D01*
X176927916Y-100071166D02*
X163433932Y-103686868D01*
%TO.C,J2*%
X252370000Y-59430000D02*
X253700000Y-59430000D01*
X252370000Y-60760000D02*
X252370000Y-59430000D01*
X252370000Y-62030000D02*
X252370000Y-72250000D01*
X252370000Y-62030000D02*
X255030000Y-62030000D01*
X252370000Y-72250000D02*
X255030000Y-72250000D01*
X255030000Y-62030000D02*
X255030000Y-72250000D01*
%TO.C,SW5*%
X135705469Y-85685626D02*
X148832975Y-80907605D01*
X140483491Y-98813132D02*
X135705469Y-85685626D01*
X148832975Y-80907605D02*
X153610997Y-94035111D01*
X153610997Y-94035111D02*
X140483491Y-98813132D01*
%TO.C,SW12*%
X202614349Y-87837079D02*
X216583918Y-87727360D01*
X202724068Y-101806648D02*
X202614349Y-87837079D01*
X216583918Y-87727360D02*
X216693637Y-101696929D01*
X216693637Y-101696929D02*
X202724068Y-101806648D01*
%TO.C,SW9*%
X142545872Y-104479478D02*
X155673378Y-99701457D01*
X147323894Y-117606984D02*
X142545872Y-104479478D01*
X155673378Y-99701457D02*
X160451400Y-112828963D01*
X160451400Y-112828963D02*
X147323894Y-117606984D01*
%TO.C,U1*%
X223573000Y-40174000D02*
X223573000Y-40474000D01*
X223573000Y-40174000D02*
X244573000Y-40174000D01*
X223573000Y-42574000D02*
X223573000Y-42974000D01*
X223573000Y-42841000D02*
X226580000Y-42841000D01*
X223573000Y-45174000D02*
X223573000Y-45574000D01*
X223573000Y-47674000D02*
X223573000Y-48074000D01*
X223573000Y-50274000D02*
X223573000Y-50674000D01*
X223573000Y-52774000D02*
X223573000Y-53174000D01*
X223573000Y-55274000D02*
X223573000Y-55674000D01*
X223573000Y-57874000D02*
X223573000Y-58274000D01*
X223573000Y-60374000D02*
X223573000Y-60774000D01*
X223573000Y-62974000D02*
X223573000Y-63374000D01*
X223573000Y-65474000D02*
X223573000Y-65874000D01*
X223573000Y-67974000D02*
X223573000Y-68374000D01*
X223573000Y-70574000D02*
X223573000Y-70974000D01*
X223573000Y-73074000D02*
X223573000Y-73474000D01*
X223573000Y-75674000D02*
X223573000Y-76074000D01*
X223573000Y-78174000D02*
X223573000Y-78574000D01*
X223573000Y-80774000D02*
X223573000Y-81174000D01*
X223573000Y-83274000D02*
X223573000Y-83674000D01*
X223573000Y-85774000D02*
X223573000Y-86174000D01*
X223573000Y-88374000D02*
X223573000Y-88774000D01*
X226580000Y-42841000D02*
X226580000Y-40174000D01*
X230373000Y-91174000D02*
X223573000Y-91174000D01*
X232573000Y-91174000D02*
X232973000Y-91174000D01*
X235173000Y-91174000D02*
X235573000Y-91174000D01*
X244573000Y-40174000D02*
X244573000Y-40474000D01*
X244573000Y-42574000D02*
X244573000Y-42974000D01*
X244573000Y-45174000D02*
X244573000Y-45574000D01*
X244573000Y-47674000D02*
X244573000Y-48074000D01*
X244573000Y-50274000D02*
X244573000Y-50674000D01*
X244573000Y-52774000D02*
X244573000Y-53174000D01*
X244573000Y-55274000D02*
X244573000Y-55674000D01*
X244573000Y-57874000D02*
X244573000Y-58274000D01*
X244573000Y-60374000D02*
X244573000Y-60774000D01*
X244573000Y-62974000D02*
X244573000Y-63374000D01*
X244573000Y-65474000D02*
X244573000Y-65874000D01*
X244573000Y-67974000D02*
X244573000Y-68374000D01*
X244573000Y-70574000D02*
X244573000Y-70974000D01*
X244573000Y-73074000D02*
X244573000Y-73474000D01*
X244573000Y-75674000D02*
X244573000Y-76074000D01*
X244573000Y-78174000D02*
X244573000Y-78574000D01*
X244573000Y-80774000D02*
X244573000Y-81174000D01*
X244573000Y-83274000D02*
X244573000Y-83674000D01*
X244573000Y-85774000D02*
X244573000Y-86174000D01*
X244573000Y-88374000D02*
X244573000Y-88774000D01*
X244573000Y-91174000D02*
X237773000Y-91174000D01*
%TO.C,J1*%
X249670000Y-42670000D02*
X251000000Y-42670000D01*
X249670000Y-44000000D02*
X249670000Y-42670000D01*
X249670000Y-45270000D02*
X249670000Y-52950000D01*
X249670000Y-45270000D02*
X252270000Y-45270000D01*
X249670000Y-52950000D02*
X254870000Y-52950000D01*
X252270000Y-42670000D02*
X254870000Y-42670000D01*
X252270000Y-45270000D02*
X252270000Y-42670000D01*
X254870000Y-42670000D02*
X254870000Y-52950000D01*
%TO.C,SW2*%
X149465468Y-51555853D02*
X162959452Y-47940151D01*
X153081170Y-65049836D02*
X149465468Y-51555853D01*
X162959452Y-47940151D02*
X166575154Y-61434134D01*
X166575154Y-61434134D02*
X153081170Y-65049836D01*
%TO.C,SW4*%
X201916253Y-47843171D02*
X215885822Y-47733452D01*
X202025972Y-61812740D02*
X201916253Y-47843171D01*
X215885822Y-47733452D02*
X215995541Y-61703021D01*
X215995541Y-61703021D02*
X202025972Y-61812740D01*
%TO.C,SW6*%
X154641849Y-70874368D02*
X168135833Y-67258666D01*
X158257551Y-84368351D02*
X154641849Y-70874368D01*
X168135833Y-67258666D02*
X171751535Y-80752649D01*
X171751535Y-80752649D02*
X158257551Y-84368351D01*
%TO.C,SW8*%
X202265301Y-67840125D02*
X216234870Y-67730406D01*
X202375020Y-81809694D02*
X202265301Y-67840125D01*
X216234870Y-67730406D02*
X216344589Y-81699975D01*
X216344589Y-81699975D02*
X202375020Y-81809694D01*
%TO.C,SW7*%
X177123135Y-62430360D02*
X190880900Y-60004495D01*
X179549000Y-76188124D02*
X177123135Y-62430360D01*
X190880900Y-60004495D02*
X193306765Y-73762259D01*
X193306765Y-73762259D02*
X179549000Y-76188124D01*
%TO.C,J3*%
X252370000Y-76970000D02*
X253700000Y-76970000D01*
X252370000Y-78300000D02*
X252370000Y-76970000D01*
X252370000Y-79570000D02*
X252370000Y-89790000D01*
X252370000Y-79570000D02*
X255030000Y-79570000D01*
X252370000Y-89790000D02*
X255030000Y-89790000D01*
X255030000Y-79570000D02*
X255030000Y-89790000D01*
%TO.C,SW11*%
X196237916Y-93547312D02*
X182480151Y-95973177D01*
X193812051Y-79789548D02*
X196237916Y-93547312D01*
X182480151Y-95973177D02*
X180054286Y-82215413D01*
X180054286Y-82215413D02*
X193812051Y-79789548D01*
%TD*%
M02*
