M48
; DRILL file {KiCad 7.0.2} date Sun Jun  4 21:48:05 2023
; FORMAT={-:-/ absolute / metric / decimal}
; #@! TF.CreationDate,2023-06-04T21:48:05+09:00
; #@! TF.GenerationSoftware,Kicad,Pcbnew,7.0.2
; #@! TF.FileFunction,Plated,1,2,PTH
FMAT,2
METRIC
; #@! TA.AperFunction,Plated,PTH,ViaDrill
T1C0.400
; #@! TA.AperFunction,Plated,PTH,ComponentDrill
T2C0.800
; #@! TA.AperFunction,Plated,PTH,ComponentDrill
T3C1.000
; #@! TA.AperFunction,Plated,PTH,ComponentDrill
T4C1.020
; #@! TA.AperFunction,Plated,PTH,ComponentDrill
T5C1.500
%
G90
G05
T1
X228.0Y-85.0
X230.0Y-85.0
T2
X143.7Y-63.1
X146.306Y-70.26
X149.394Y-78.84
X152.0Y-86.0
X155.394Y-94.84
X158.0Y-102.0
X164.7Y-49.3
X166.672Y-56.66
X168.028Y-61.64
X170.0Y-69.0
X173.028Y-80.64
X175.0Y-88.0
X189.6Y-41.7
X190.923Y-49.204
X192.338Y-59.248
X193.662Y-66.752
X195.677Y-81.0
X197.0Y-88.504
X216.94Y-42.38
X217.0Y-50.0
X217.434Y-66.19
X217.494Y-73.81
X217.94Y-82.38
X218.0Y-90.0
X250.0Y-129.0
X253.723Y-122.352
X265.138Y-143.324
X268.862Y-136.676
T3
X251.0Y-44.0
X251.0Y-46.54
X251.0Y-49.08
X251.0Y-51.62
X253.54Y-44.0
X253.54Y-46.54
X253.54Y-49.08
X253.54Y-51.62
X253.7Y-60.76
X253.7Y-63.3
X253.7Y-65.84
X253.7Y-68.38
X253.7Y-70.92
X253.7Y-78.3
X253.7Y-80.84
X253.7Y-83.38
X253.7Y-85.92
X253.7Y-88.46
T4
X225.183Y-41.544
X225.183Y-44.084
X225.183Y-46.624
X225.183Y-49.164
X225.183Y-51.704
X225.183Y-54.244
X225.183Y-56.784
X225.183Y-59.324
X225.183Y-61.864
X225.183Y-64.404
X225.183Y-66.944
X225.183Y-69.484
X225.183Y-72.024
X225.183Y-74.564
X225.183Y-77.104
X225.183Y-79.644
X225.183Y-82.184
X225.183Y-84.724
X225.183Y-87.264
X225.183Y-89.804
X231.533Y-89.574
X234.073Y-89.574
X236.613Y-89.574
X242.963Y-41.544
X242.963Y-44.084
X242.963Y-46.624
X242.963Y-49.164
X242.963Y-51.704
X242.963Y-54.244
X242.963Y-56.784
X242.963Y-59.324
X242.963Y-61.864
X242.963Y-64.404
X242.963Y-66.944
X242.963Y-69.484
X242.963Y-72.024
X242.963Y-74.564
X242.963Y-77.104
X242.963Y-79.644
X242.963Y-82.184
X242.963Y-84.724
X242.963Y-87.264
X242.963Y-89.804
T5
X133.332Y-70.036
X138.43Y-65.478
X140.209Y-88.777
X145.308Y-84.218
X147.05Y-107.57
X152.148Y-103.012
X153.683Y-55.028
X158.859Y-74.346
X159.159Y-50.931
X164.035Y-93.665
X164.335Y-70.249
X169.512Y-89.568
X178.091Y-46.471
X181.022Y-66.256
X183.903Y-42.867
X183.953Y-86.042
X186.834Y-62.652
X189.765Y-82.437
X205.126Y-52.263
X205.475Y-72.26
X205.824Y-92.257
X211.456Y-49.673
X211.805Y-69.67
X212.154Y-89.667
X238.28Y-123.526
X244.959Y-125.0
X255.132Y-135.816
X261.66Y-137.855
T0
M30
