M48
; DRILL file {KiCad 7.0.2} date Sun Jun  4 21:48:05 2023
; FORMAT={-:-/ absolute / metric / decimal}
; #@! TF.CreationDate,2023-06-04T21:48:05+09:00
; #@! TF.GenerationSoftware,Kicad,Pcbnew,7.0.2
; #@! TF.FileFunction,NonPlated,1,2,NPTH
FMAT,2
METRIC
; #@! TA.AperFunction,NonPlated,NPTH,ComponentDrill
T1C1.500
; #@! TA.AperFunction,NonPlated,NPTH,ComponentDrill
T2C1.700
; #@! TA.AperFunction,NonPlated,NPTH,ComponentDrill
T3C1.800
; #@! TA.AperFunction,NonPlated,NPTH,ComponentDrill
T4C2.100
; #@! TA.AperFunction,NonPlated,NPTH,ComponentDrill
T5C4.000
%
G90
G05
T1
X231.648Y-44.704
X236.498Y-44.704
T2
X133.007Y-72.857
X139.885Y-91.598
X142.554Y-69.383
X146.725Y-110.392
X149.432Y-88.123
X153.113Y-57.81
X156.272Y-106.917
X158.29Y-77.128
X162.927Y-55.18
X163.466Y-96.447
X168.104Y-74.499
X173.28Y-93.817
X177.281Y-49.193
X180.212Y-68.978
X183.143Y-88.763
X187.287Y-47.429
X190.218Y-67.214
X193.149Y-86.999
X203.876Y-54.813
X204.225Y-74.81
X204.574Y-94.807
X214.036Y-54.733
X214.385Y-74.73
X214.734Y-94.727
X235.801Y-124.911
X244.199Y-130.629
X252.543Y-136.984
X260.423Y-143.399
T3
X231.348Y-41.674
X236.798Y-41.674
T4
X134.0Y-59.0
X149.0Y-124.0
X169.0Y-46.0
X170.065Y-107.942
X172.14Y-62.922
X193.036Y-104.096
X196.0Y-50.0
X197.0Y-65.5
X217.323Y-106.93
X229.466Y-119.275
X258.0Y-39.0
X258.0Y-120.0
X258.0Y-158.0
X258.5Y-95.0
T5
X137.781Y-71.12
X144.658Y-89.86
X151.499Y-108.654
X158.02Y-56.495
X163.197Y-75.814
X168.373Y-95.132
X182.284Y-48.311
X185.215Y-68.096
X188.146Y-87.881
X208.956Y-54.773
X209.305Y-74.77
X209.654Y-94.767
X240.0Y-127.77
X256.483Y-140.191
T0
M30
