0
SECTION
2
HEADER
9
$INSUNITS
70
4
0
ENDSEC
0
SECTION
2
TABLES
0
TABLE
2
LTYPE
0
LTYPE
72
65
70
64
2
CONTINUOUS
3
______
73
0
40
0
0
ENDTAB
0
TABLE
2
LAYER
0
ENDTAB
0
ENDSEC
0
SECTION
2
ENTITIES
0
LINE
8
0
10
-17.3497573
20
4.3538269
11
-0.4352901
21
10.5101895
0
LINE
8
0
10
-0.4352901
20
10.5101895
11
5.7210725
21
-6.4042777
0
LINE
8
0
10
5.7210725
20
-6.4042777
11
-11.1933947
21
-12.5606403
0
LINE
8
0
10
-11.1933947
20
-12.5606403
11
-17.3497573
21
4.3538269
0
LINE
8
0
10
-24.1901602
20
23.1476793
11
-7.275693
21
29.3040419
0
LINE
8
0
10
-7.275693
20
29.3040419
11
-1.1193304
21
12.3895747
0
LINE
8
0
10
-1.1193304
20
12.3895747
11
-18.0337976
21
6.2332121
0
LINE
8
0
10
-18.0337976
20
6.2332121
11
-24.1901602
21
23.1476793
0
LINE
8
0
10
-31.0305631
20
41.9415317
11
-14.1160959
21
48.0978943
0
LINE
8
0
10
-14.1160959
20
48.0978943
11
-7.9597333
21
31.1834271
0
LINE
8
0
10
-7.9597333
20
31.1834271
11
-24.8742005
21
25.0270645
0
LINE
8
0
10
-24.8742005
20
25.0270645
11
-31.0305631
21
41.9415317
0
LINE
8
0
10
0.0373913
20
18.8609311
11
17.4240561
21
23.5196739
0
LINE
8
0
10
17.4240561
20
23.5196739
11
22.0827989
21
6.1330091
0
LINE
8
0
10
22.0827989
20
6.1330091
11
4.6961341
21
1.4742663
0
LINE
8
0
10
4.6961341
20
1.4742663
11
0.0373913
21
18.8609311
0
LINE
8
0
10
-5.1389896
20
38.1794476
11
12.2476752
21
42.8381904
0
LINE
8
0
10
12.2476752
20
42.8381904
11
16.906418
21
25.4515256
0
LINE
8
0
10
16.906418
20
25.4515256
11
-0.4802468
21
20.7927828
0
LINE
8
0
10
-0.4802468
20
20.7927828
11
-5.1389896
21
38.1794476
0
LINE
8
0
10
-10.3153705
20
57.4979641
11
7.0712943
21
62.1567069
0
LINE
8
0
10
7.0712943
20
62.1567069
11
11.7300371
21
44.7700421
0
LINE
8
0
10
11.7300371
20
44.7700421
11
-5.6566277
21
40.1112993
0
LINE
8
0
10
-5.6566277
20
40.1112993
11
-10.3153705
21
57.4979641
0
LINE
8
0
10
20.536018
20
27.2289181
11
38.3144082
21
30.0447385
0
LINE
8
0
10
38.3144082
20
30.0447385
11
41.1302286
21
12.2663483
0
LINE
8
0
10
41.1302286
20
12.2663483
11
23.3518384
21
9.4505279
0
LINE
8
0
10
23.3518384
20
9.4505279
11
20.536018
21
27.2289181
0
LINE
8
0
10
17.6048664
20
47.0139718
11
35.3832566
21
49.8297922
0
LINE
8
0
10
35.3832566
20
49.8297922
11
38.199077
21
32.051402
0
LINE
8
0
10
38.199077
20
32.051402
11
20.4206868
21
29.2355816
0
LINE
8
0
10
20.4206868
20
29.2355816
11
17.6048664
21
47.0139718
0
LINE
8
0
10
14.6737148
20
66.7990255
11
32.452105
21
69.6148459
0
LINE
8
0
10
32.452105
20
69.6148459
11
35.2679254
21
51.8364557
0
LINE
8
0
10
35.2679254
20
51.8364557
11
17.4895352
21
49.0206353
0
LINE
8
0
10
17.4895352
20
49.0206353
11
14.6737148
21
66.7990255
0
LINE
8
0
10
43.1853144
20
21.70355
11
61.1825729
21
22.0176933
0
LINE
8
0
10
61.1825729
20
22.0176933
11
61.4967162
21
4.0204348
0
LINE
8
0
10
61.4967162
20
4.0204348
11
43.4994577
21
3.7062915
0
LINE
8
0
10
43.4994577
20
3.7062915
11
43.1853144
21
21.70355
0
LINE
8
0
10
42.8362663
20
41.7005039
11
60.8335248
21
42.0146472
0
LINE
8
0
10
60.8335248
20
42.0146472
11
61.1476681
21
24.0173887
0
LINE
8
0
10
61.1476681
20
24.0173887
11
43.1504096
21
23.7032454
0
LINE
8
0
10
43.1504096
20
23.7032454
11
42.8362663
21
41.7005039
0
LINE
8
0
10
42.4872182
20
61.6974578
11
60.4844767
21
62.0116011
0
LINE
8
0
10
60.4844767
20
62.0116011
11
60.79862
21
44.0143426
0
LINE
8
0
10
60.79862
20
44.0143426
11
42.8013615
21
43.7001993
0
LINE
8
0
10
42.8013615
20
43.7001993
11
42.4872182
21
61.6974578
0
LINE
8
0
10
79.4389896
20
-9.3742408
11
95.1821443
21
-18.1008139
0
LINE
8
0
10
95.1821443
20
-18.1008139
11
86.4555712
21
-33.8439686
0
LINE
8
0
10
86.4555712
20
-33.8439686
11
70.7124165
21
-25.1173955
0
LINE
8
0
10
70.7124165
20
-25.1173955
11
79.4389896
21
-9.3742408
0
LINE
8
0
10
97.8555936
20
-19.9040782
11
111.8442209
21
-31.2318453
0
LINE
8
0
10
111.8442209
20
-31.2318453
11
100.5164538
21
-45.2204726
0
LINE
8
0
10
100.5164538
20
-45.2204726
11
86.5278265
21
-33.8927055
0
LINE
8
0
10
86.5278265
20
-33.8927055
11
97.8555936
21
-19.9040782
0
ENDSEC
0
EOF