%TF.GenerationSoftware,KiCad,Pcbnew,7.0.2*%
%TF.CreationDate,2023-05-19T20:53:45+09:00*%
%TF.ProjectId,555_practice,3535355f-7072-4616-9374-6963652e6b69,rev?*%
%TF.SameCoordinates,Original*%
%TF.FileFunction,Copper,L2,Bot*%
%TF.FilePolarity,Positive*%
%FSLAX46Y46*%
G04 Gerber Fmt 4.6, Leading zero omitted, Abs format (unit mm)*
G04 Created by KiCad (PCBNEW 7.0.2) date 2023-05-19 20:53:45*
%MOMM*%
%LPD*%
G01*
G04 APERTURE LIST*
%TA.AperFunction,ComponentPad*%
%ADD10R,1.600000X1.600000*%
%TD*%
%TA.AperFunction,ComponentPad*%
%ADD11C,1.600000*%
%TD*%
%TA.AperFunction,ComponentPad*%
%ADD12C,1.524000*%
%TD*%
%TA.AperFunction,ComponentPad*%
%ADD13O,1.600000X1.600000*%
%TD*%
%TA.AperFunction,ComponentPad*%
%ADD14R,1.800000X1.800000*%
%TD*%
%TA.AperFunction,ComponentPad*%
%ADD15C,1.800000*%
%TD*%
%TA.AperFunction,ComponentPad*%
%ADD16R,1.900000X1.900000*%
%TD*%
%TA.AperFunction,ComponentPad*%
%ADD17C,1.900000*%
%TD*%
%TA.AperFunction,Conductor*%
%ADD18C,0.250000*%
%TD*%
G04 APERTURE END LIST*
D10*
%TO.P,C2,1*%
%TO.N,Net-(U1-THRES)*%
X83820000Y-96520000D03*
D11*
%TO.P,C2,2*%
%TO.N,GND*%
X86320000Y-96520000D03*
%TD*%
D12*
%TO.P,U1,1,GND*%
%TO.N,GND*%
X81280000Y-116840000D03*
%TO.P,U1,2,TRIG*%
%TO.N,Net-(U1-THRES)*%
X81280000Y-114300000D03*
%TO.P,U1,3,OUT*%
%TO.N,Net-(U1-OUT)*%
X81280000Y-111760000D03*
%TO.P,U1,4,~RESET*%
%TO.N,VCC*%
X81280000Y-109220000D03*
%TO.P,U1,5,CV*%
%TO.N,unconnected-(U1-CV-Pad5)*%
X73660000Y-109220000D03*
%TO.P,U1,6,THRES*%
%TO.N,Net-(U1-THRES)*%
X73660000Y-111760000D03*
%TO.P,U1,7,DIS*%
%TO.N,Net-(U1-DIS)*%
X73660000Y-114300000D03*
%TO.P,U1,8,VDD*%
%TO.N,VCC*%
X73660000Y-116840000D03*
%TD*%
D11*
%TO.P,R1,1*%
%TO.N,VCC*%
X69596000Y-110744000D03*
D13*
%TO.P,R1,2*%
%TO.N,Net-(U1-DIS)*%
X69596000Y-103124000D03*
%TD*%
D11*
%TO.P,R2,1*%
%TO.N,Net-(U1-DIS)*%
X72390000Y-96520000D03*
D13*
%TO.P,R2,2*%
%TO.N,Net-(U1-THRES)*%
X80010000Y-96520000D03*
%TD*%
D11*
%TO.P,Q1,1,E*%
%TO.N,GND*%
X90170000Y-96520000D03*
D13*
%TO.P,Q1,2,B*%
%TO.N,Net-(Q1-B)*%
X97790000Y-96520000D03*
%TD*%
D11*
%TO.P,R5,1*%
%TO.N,Net-(C1-Pad1)*%
X90076200Y-123273000D03*
D13*
%TO.P,R5,2*%
%TO.N,Net-(Q1-B)*%
X97696200Y-123273000D03*
%TD*%
D11*
%TO.P,R4,1*%
%TO.N,Net-(C1-Pad1)*%
X90076200Y-119223000D03*
D13*
%TO.P,R4,2*%
%TO.N,GND*%
X97696200Y-119223000D03*
%TD*%
D14*
%TO.P,BAT1,1*%
%TO.N,N/C*%
X101341000Y-97028000D03*
D15*
%TO.P,BAT1,2*%
X103881000Y-97028000D03*
%TD*%
D11*
%TO.P,R6,1*%
%TO.N,VCC*%
X90076200Y-127323000D03*
D13*
%TO.P,R6,2*%
%TO.N,Net-(D1-A)*%
X97696200Y-127323000D03*
%TD*%
D10*
%TO.P,C1,1*%
%TO.N,Net-(C1-Pad1)*%
X96580888Y-108204000D03*
D11*
%TO.P,C1,2*%
%TO.N,GND*%
X94580888Y-108204000D03*
%TD*%
%TO.P,R3,1*%
%TO.N,Net-(U1-OUT)*%
X90076200Y-115173000D03*
D13*
%TO.P,R3,2*%
%TO.N,Net-(C1-Pad1)*%
X97696200Y-115173000D03*
%TD*%
D14*
%TO.P,D1,1,K*%
%TO.N,Net-(D1-K)*%
X102108000Y-124709000D03*
D15*
%TO.P,D1,2,A*%
%TO.N,Net-(D1-A)*%
X102108000Y-127249000D03*
%TD*%
D11*
%TO.P,R7,1*%
%TO.N,VCC*%
X90076200Y-131373000D03*
D13*
%TO.P,R7,2*%
%TO.N,Net-(D2-A)*%
X97696200Y-131373000D03*
%TD*%
D14*
%TO.P,D2,1,K*%
%TO.N,Net-(D1-K)*%
X100946200Y-114873000D03*
D15*
%TO.P,D2,2,A*%
%TO.N,Net-(D2-A)*%
X103486200Y-114873000D03*
%TD*%
D16*
%TO.P,S1,1*%
%TO.N,unconnected-(S1-Pad1)*%
X103466200Y-120423000D03*
D17*
%TO.P,S1,2*%
%TO.N,VCC*%
X105966200Y-120423000D03*
%TO.P,S1,3*%
%TO.N,Net-(BAT1-PadNeg)*%
X108466200Y-120423000D03*
%TD*%
D18*
%TO.N,VCC*%
X73660000Y-116840000D02*
X81280000Y-109220000D01*
X84143000Y-127323000D02*
X73660000Y-116840000D01*
X90076200Y-127323000D02*
X84143000Y-127323000D01*
%TD*%
%TA.AperFunction,Conductor*%
%TO.N,GND*%
G36*
X105607039Y-90443685D02*
G01*
X105652794Y-90496489D01*
X105664000Y-90548000D01*
X105664000Y-111760000D01*
X112739680Y-118835680D01*
X112773165Y-118897003D01*
X112775999Y-118923361D01*
X112776000Y-122376638D01*
X112756315Y-122443677D01*
X112739681Y-122464319D01*
X100620319Y-134583681D01*
X100558996Y-134617166D01*
X100532638Y-134620000D01*
X87936070Y-134620000D01*
X87869031Y-134600315D01*
X87848389Y-134583681D01*
X84637708Y-131373000D01*
X88770731Y-131373000D01*
X88790564Y-131599689D01*
X88849461Y-131819497D01*
X88945632Y-132025735D01*
X89076153Y-132212140D01*
X89237059Y-132373046D01*
X89423464Y-132503567D01*
X89423465Y-132503567D01*
X89423466Y-132503568D01*
X89629704Y-132599739D01*
X89849508Y-132658635D01*
X90076200Y-132678468D01*
X90302892Y-132658635D01*
X90522696Y-132599739D01*
X90728934Y-132503568D01*
X90915339Y-132373047D01*
X91076247Y-132212139D01*
X91206768Y-132025734D01*
X91302939Y-131819496D01*
X91361835Y-131599692D01*
X91381668Y-131373000D01*
X96390731Y-131373000D01*
X96410564Y-131599689D01*
X96469461Y-131819497D01*
X96565632Y-132025735D01*
X96696153Y-132212140D01*
X96857059Y-132373046D01*
X97043464Y-132503567D01*
X97043465Y-132503567D01*
X97043466Y-132503568D01*
X97249704Y-132599739D01*
X97469508Y-132658635D01*
X97696200Y-132678468D01*
X97922892Y-132658635D01*
X98142696Y-132599739D01*
X98348934Y-132503568D01*
X98535339Y-132373047D01*
X98696247Y-132212139D01*
X98826768Y-132025734D01*
X98922939Y-131819496D01*
X98981835Y-131599692D01*
X99001668Y-131373000D01*
X98981835Y-131146308D01*
X98922939Y-130926504D01*
X98826768Y-130720266D01*
X98696247Y-130533861D01*
X98696246Y-130533859D01*
X98535340Y-130372953D01*
X98348935Y-130242432D01*
X98142697Y-130146261D01*
X97922889Y-130087364D01*
X97696200Y-130067531D01*
X97469510Y-130087364D01*
X97249702Y-130146261D01*
X97043464Y-130242432D01*
X96857059Y-130372953D01*
X96696153Y-130533859D01*
X96565632Y-130720264D01*
X96469461Y-130926502D01*
X96410564Y-131146310D01*
X96390731Y-131373000D01*
X91381668Y-131373000D01*
X91361835Y-131146308D01*
X91302939Y-130926504D01*
X91206768Y-130720266D01*
X91076247Y-130533861D01*
X91076246Y-130533859D01*
X90915340Y-130372953D01*
X90728935Y-130242432D01*
X90522697Y-130146261D01*
X90302889Y-130087364D01*
X90076199Y-130067531D01*
X89849510Y-130087364D01*
X89629702Y-130146261D01*
X89423464Y-130242432D01*
X89237059Y-130372953D01*
X89076153Y-130533859D01*
X88945632Y-130720264D01*
X88849461Y-130926502D01*
X88790564Y-131146310D01*
X88770731Y-131373000D01*
X84637708Y-131373000D01*
X70104708Y-116840000D01*
X72392676Y-116840000D01*
X72411929Y-117060065D01*
X72469060Y-117273281D01*
X72469106Y-117273450D01*
X72562466Y-117473662D01*
X72689174Y-117654620D01*
X72845380Y-117810826D01*
X73026338Y-117937534D01*
X73226550Y-118030894D01*
X73439932Y-118088070D01*
X73660000Y-118107323D01*
X73880068Y-118088070D01*
X73924019Y-118076293D01*
X73993869Y-118077954D01*
X74043796Y-118108386D01*
X83642197Y-127706787D01*
X83655098Y-127722889D01*
X83657212Y-127724874D01*
X83657214Y-127724877D01*
X83704561Y-127769339D01*
X83706240Y-127770916D01*
X83709036Y-127773626D01*
X83728530Y-127793120D01*
X83731615Y-127795513D01*
X83731701Y-127795580D01*
X83740573Y-127803158D01*
X83772418Y-127833062D01*
X83789974Y-127842714D01*
X83806231Y-127853392D01*
X83822064Y-127865674D01*
X83838185Y-127872649D01*
X83862156Y-127883023D01*
X83872643Y-127888160D01*
X83910908Y-127909197D01*
X83930316Y-127914180D01*
X83948710Y-127920478D01*
X83967105Y-127928438D01*
X84010254Y-127935271D01*
X84021680Y-127937638D01*
X84037222Y-127941629D01*
X84063980Y-127948500D01*
X84063981Y-127948500D01*
X84084016Y-127948500D01*
X84103413Y-127950026D01*
X84123196Y-127953160D01*
X84166674Y-127949050D01*
X84178344Y-127948500D01*
X88862012Y-127948500D01*
X88929051Y-127968185D01*
X88963587Y-128001377D01*
X89076153Y-128162140D01*
X89237059Y-128323046D01*
X89423464Y-128453567D01*
X89423465Y-128453567D01*
X89423466Y-128453568D01*
X89629704Y-128549739D01*
X89849508Y-128608635D01*
X90076200Y-128628468D01*
X90302892Y-128608635D01*
X90522696Y-128549739D01*
X90728934Y-128453568D01*
X90915339Y-128323047D01*
X91076247Y-128162139D01*
X91206768Y-127975734D01*
X91302939Y-127769496D01*
X91361835Y-127549692D01*
X91381668Y-127323000D01*
X96390731Y-127323000D01*
X96410564Y-127549689D01*
X96469461Y-127769497D01*
X96565632Y-127975735D01*
X96696153Y-128162140D01*
X96857059Y-128323046D01*
X97043464Y-128453567D01*
X97043465Y-128453567D01*
X97043466Y-128453568D01*
X97249704Y-128549739D01*
X97469508Y-128608635D01*
X97696200Y-128628468D01*
X97922892Y-128608635D01*
X98142696Y-128549739D01*
X98348934Y-128453568D01*
X98535339Y-128323047D01*
X98696247Y-128162139D01*
X98826768Y-127975734D01*
X98922939Y-127769496D01*
X98981835Y-127549692D01*
X99001668Y-127323000D01*
X98995194Y-127249000D01*
X100702699Y-127249000D01*
X100721865Y-127480299D01*
X100721865Y-127480301D01*
X100721866Y-127480305D01*
X100778843Y-127705300D01*
X100778844Y-127705303D01*
X100841180Y-127847413D01*
X100872076Y-127917849D01*
X100999021Y-128112153D01*
X101156216Y-128282913D01*
X101339374Y-128425470D01*
X101543497Y-128535936D01*
X101583704Y-128549739D01*
X101763015Y-128611297D01*
X101763017Y-128611297D01*
X101763019Y-128611298D01*
X101991951Y-128649500D01*
X101991952Y-128649500D01*
X102224048Y-128649500D01*
X102224049Y-128649500D01*
X102452981Y-128611298D01*
X102672503Y-128535936D01*
X102876626Y-128425470D01*
X103059784Y-128282913D01*
X103216979Y-128112153D01*
X103343924Y-127917849D01*
X103437157Y-127705300D01*
X103494134Y-127480305D01*
X103513300Y-127249000D01*
X103494134Y-127017695D01*
X103437157Y-126792700D01*
X103343924Y-126580151D01*
X103216979Y-126385847D01*
X103122195Y-126282884D01*
X103091275Y-126220232D01*
X103099135Y-126150806D01*
X103143282Y-126096651D01*
X103170091Y-126082723D01*
X103250331Y-126052796D01*
X103365546Y-125966546D01*
X103451796Y-125851331D01*
X103502091Y-125716483D01*
X103508500Y-125656873D01*
X103508499Y-123761128D01*
X103502091Y-123701517D01*
X103451796Y-123566669D01*
X103365546Y-123451454D01*
X103250331Y-123365204D01*
X103115483Y-123314909D01*
X103055873Y-123308500D01*
X103052550Y-123308500D01*
X101163439Y-123308500D01*
X101163420Y-123308500D01*
X101160128Y-123308501D01*
X101156848Y-123308853D01*
X101156840Y-123308854D01*
X101100515Y-123314909D01*
X100965669Y-123365204D01*
X100850454Y-123451454D01*
X100764204Y-123566668D01*
X100713910Y-123701515D01*
X100713909Y-123701517D01*
X100707500Y-123761127D01*
X100707500Y-123764448D01*
X100707500Y-123764449D01*
X100707500Y-125653560D01*
X100707500Y-125653578D01*
X100707501Y-125656872D01*
X100713909Y-125716483D01*
X100764204Y-125851331D01*
X100850454Y-125966546D01*
X100965669Y-126052796D01*
X101045905Y-126082722D01*
X101101839Y-126124593D01*
X101126256Y-126190058D01*
X101111404Y-126258331D01*
X101093802Y-126282887D01*
X100999020Y-126385848D01*
X100872076Y-126580150D01*
X100778844Y-126792696D01*
X100721865Y-127017700D01*
X100702699Y-127249000D01*
X98995194Y-127249000D01*
X98981835Y-127096308D01*
X98922939Y-126876504D01*
X98826768Y-126670266D01*
X98763670Y-126580151D01*
X98696246Y-126483859D01*
X98535340Y-126322953D01*
X98348935Y-126192432D01*
X98142697Y-126096261D01*
X97922889Y-126037364D01*
X97696200Y-126017531D01*
X97469510Y-126037364D01*
X97249702Y-126096261D01*
X97043464Y-126192432D01*
X96857059Y-126322953D01*
X96696153Y-126483859D01*
X96565632Y-126670264D01*
X96469461Y-126876502D01*
X96410564Y-127096310D01*
X96390731Y-127323000D01*
X91381668Y-127323000D01*
X91361835Y-127096308D01*
X91302939Y-126876504D01*
X91206768Y-126670266D01*
X91143670Y-126580151D01*
X91076246Y-126483859D01*
X90915340Y-126322953D01*
X90728935Y-126192432D01*
X90522697Y-126096261D01*
X90302889Y-126037364D01*
X90076200Y-126017531D01*
X89849510Y-126037364D01*
X89629702Y-126096261D01*
X89423464Y-126192432D01*
X89237059Y-126322953D01*
X89076153Y-126483859D01*
X88963587Y-126644623D01*
X88909011Y-126688248D01*
X88862012Y-126697500D01*
X84453452Y-126697500D01*
X84386413Y-126677815D01*
X84365771Y-126661181D01*
X80977590Y-123273000D01*
X88770731Y-123273000D01*
X88790564Y-123499689D01*
X88849461Y-123719497D01*
X88945632Y-123925735D01*
X89076153Y-124112140D01*
X89237059Y-124273046D01*
X89423464Y-124403567D01*
X89423465Y-124403567D01*
X89423466Y-124403568D01*
X89629704Y-124499739D01*
X89849508Y-124558635D01*
X90076200Y-124578468D01*
X90302892Y-124558635D01*
X90522696Y-124499739D01*
X90728934Y-124403568D01*
X90915339Y-124273047D01*
X91076247Y-124112139D01*
X91206768Y-123925734D01*
X91302939Y-123719496D01*
X91361835Y-123499692D01*
X91381668Y-123273000D01*
X96390731Y-123273000D01*
X96410564Y-123499689D01*
X96469461Y-123719497D01*
X96565632Y-123925735D01*
X96696153Y-124112140D01*
X96857059Y-124273046D01*
X97043464Y-124403567D01*
X97043465Y-124403567D01*
X97043466Y-124403568D01*
X97249704Y-124499739D01*
X97469508Y-124558635D01*
X97696200Y-124578468D01*
X97922892Y-124558635D01*
X98142696Y-124499739D01*
X98348934Y-124403568D01*
X98535339Y-124273047D01*
X98696247Y-124112139D01*
X98826768Y-123925734D01*
X98922939Y-123719496D01*
X98981835Y-123499692D01*
X99001668Y-123273000D01*
X98981835Y-123046308D01*
X98922939Y-122826504D01*
X98826768Y-122620266D01*
X98703121Y-122443677D01*
X98696246Y-122433859D01*
X98535340Y-122272953D01*
X98348935Y-122142432D01*
X98142697Y-122046261D01*
X97922889Y-121987364D01*
X97696200Y-121967531D01*
X97469510Y-121987364D01*
X97249702Y-122046261D01*
X97043464Y-122142432D01*
X96857059Y-122272953D01*
X96696153Y-122433859D01*
X96565632Y-122620264D01*
X96469461Y-122826502D01*
X96410564Y-123046310D01*
X96390731Y-123273000D01*
X91381668Y-123273000D01*
X91361835Y-123046308D01*
X91302939Y-122826504D01*
X91206768Y-122620266D01*
X91083121Y-122443677D01*
X91076246Y-122433859D01*
X90915340Y-122272953D01*
X90728935Y-122142432D01*
X90522697Y-122046261D01*
X90302889Y-121987364D01*
X90076200Y-121967531D01*
X89849510Y-121987364D01*
X89629702Y-122046261D01*
X89423464Y-122142432D01*
X89237059Y-122272953D01*
X89076153Y-122433859D01*
X88945632Y-122620264D01*
X88849461Y-122826502D01*
X88790564Y-123046310D01*
X88770731Y-123273000D01*
X80977590Y-123273000D01*
X79122168Y-121417578D01*
X102015700Y-121417578D01*
X102015701Y-121420872D01*
X102016053Y-121424152D01*
X102016054Y-121424159D01*
X102022109Y-121480483D01*
X102072404Y-121615331D01*
X102158654Y-121730546D01*
X102273869Y-121816796D01*
X102408717Y-121867091D01*
X102468327Y-121873500D01*
X104464072Y-121873499D01*
X104523683Y-121867091D01*
X104658531Y-121816796D01*
X104773746Y-121730546D01*
X104859996Y-121615331D01*
X104863182Y-121606787D01*
X104905050Y-121550857D01*
X104970514Y-121526438D01*
X105038787Y-121541288D01*
X105055519Y-121552264D01*
X105170133Y-121641472D01*
X105381544Y-121755882D01*
X105381547Y-121755883D01*
X105558978Y-121816795D01*
X105608903Y-121833934D01*
X105846008Y-121873500D01*
X105846009Y-121873500D01*
X106086391Y-121873500D01*
X106086392Y-121873500D01*
X106323497Y-121833934D01*
X106550856Y-121755882D01*
X106762267Y-121641472D01*
X106951964Y-121493825D01*
X107114771Y-121316969D01*
X107114772Y-121316967D01*
X107121730Y-121309409D01*
X107123554Y-121311088D01*
X107165512Y-121275265D01*
X107234741Y-121265826D01*
X107298084Y-121295314D01*
X107310464Y-121309598D01*
X107310670Y-121309409D01*
X107317627Y-121316967D01*
X107317629Y-121316969D01*
X107480436Y-121493825D01*
X107480439Y-121493827D01*
X107670127Y-121641468D01*
X107670129Y-121641469D01*
X107670133Y-121641472D01*
X107881544Y-121755882D01*
X107881547Y-121755883D01*
X108058978Y-121816795D01*
X108108903Y-121833934D01*
X108346008Y-121873500D01*
X108346009Y-121873500D01*
X108586391Y-121873500D01*
X108586392Y-121873500D01*
X108823497Y-121833934D01*
X109050856Y-121755882D01*
X109262267Y-121641472D01*
X109451964Y-121493825D01*
X109614771Y-121316969D01*
X109746249Y-121115728D01*
X109842810Y-120895591D01*
X109901820Y-120662563D01*
X109921671Y-120423000D01*
X109901820Y-120183437D01*
X109842810Y-119950409D01*
X109746249Y-119730272D01*
X109614771Y-119529031D01*
X109451964Y-119352175D01*
X109376875Y-119293731D01*
X109262272Y-119204531D01*
X109262268Y-119204528D01*
X109262267Y-119204528D01*
X109050856Y-119090118D01*
X109050855Y-119090117D01*
X109050852Y-119090116D01*
X108823499Y-119012066D01*
X108661030Y-118984955D01*
X108586392Y-118972500D01*
X108346008Y-118972500D01*
X108307601Y-118978909D01*
X108108900Y-119012066D01*
X107881547Y-119090116D01*
X107670127Y-119204531D01*
X107480439Y-119352172D01*
X107310670Y-119536590D01*
X107308847Y-119534912D01*
X107266860Y-119570745D01*
X107197629Y-119580167D01*
X107134294Y-119550665D01*
X107121934Y-119536401D01*
X107121730Y-119536590D01*
X107063191Y-119473000D01*
X106951964Y-119352175D01*
X106876875Y-119293731D01*
X106762272Y-119204531D01*
X106762268Y-119204528D01*
X106762267Y-119204528D01*
X106550856Y-119090118D01*
X106550855Y-119090117D01*
X106550852Y-119090116D01*
X106323499Y-119012066D01*
X106161030Y-118984955D01*
X106086392Y-118972500D01*
X105846008Y-118972500D01*
X105807601Y-118978909D01*
X105608900Y-119012066D01*
X105381547Y-119090116D01*
X105170131Y-119204529D01*
X105055525Y-119293731D01*
X104990531Y-119319373D01*
X104921991Y-119305806D01*
X104871666Y-119257338D01*
X104863181Y-119239209D01*
X104859996Y-119230670D01*
X104859996Y-119230669D01*
X104773746Y-119115454D01*
X104658531Y-119029204D01*
X104523683Y-118978909D01*
X104523682Y-118978909D01*
X104467366Y-118972854D01*
X104467365Y-118972853D01*
X104464073Y-118972500D01*
X104460750Y-118972500D01*
X102471639Y-118972500D01*
X102471620Y-118972500D01*
X102468328Y-118972501D01*
X102465048Y-118972853D01*
X102465040Y-118972854D01*
X102408715Y-118978909D01*
X102273869Y-119029204D01*
X102158654Y-119115454D01*
X102072404Y-119230668D01*
X102039320Y-119319373D01*
X102022109Y-119365517D01*
X102015700Y-119425127D01*
X102015700Y-119428448D01*
X102015700Y-119428449D01*
X102015700Y-121417560D01*
X102015700Y-121417578D01*
X79122168Y-121417578D01*
X76927590Y-119222999D01*
X88770731Y-119222999D01*
X88790564Y-119449689D01*
X88849461Y-119669497D01*
X88945632Y-119875735D01*
X89076153Y-120062140D01*
X89237059Y-120223046D01*
X89423464Y-120353567D01*
X89423465Y-120353567D01*
X89423466Y-120353568D01*
X89629704Y-120449739D01*
X89849508Y-120508635D01*
X90000635Y-120521857D01*
X90076199Y-120528468D01*
X90076199Y-120528467D01*
X90076200Y-120528468D01*
X90302892Y-120508635D01*
X90522696Y-120449739D01*
X90728934Y-120353568D01*
X90915339Y-120223047D01*
X91076247Y-120062139D01*
X91206768Y-119875734D01*
X91302939Y-119669496D01*
X91355590Y-119473000D01*
X96417328Y-119473000D01*
X96469933Y-119669326D01*
X96566065Y-119875480D01*
X96696541Y-120061819D01*
X96857380Y-120222658D01*
X97043719Y-120353134D01*
X97249873Y-120449266D01*
X97446199Y-120501871D01*
X97446200Y-120501871D01*
X97446200Y-119538685D01*
X97458155Y-119550641D01*
X97571052Y-119608165D01*
X97664719Y-119623000D01*
X97727681Y-119623000D01*
X97821348Y-119608165D01*
X97934245Y-119550641D01*
X97946200Y-119538685D01*
X97946200Y-120501871D01*
X98142526Y-120449266D01*
X98348680Y-120353134D01*
X98535019Y-120222658D01*
X98695858Y-120061819D01*
X98826334Y-119875480D01*
X98922466Y-119669326D01*
X98975072Y-119473000D01*
X98011886Y-119473000D01*
X98023841Y-119461045D01*
X98081365Y-119348148D01*
X98101186Y-119223000D01*
X98081365Y-119097852D01*
X98023841Y-118984955D01*
X98011886Y-118973000D01*
X98975072Y-118973000D01*
X98975071Y-118972999D01*
X98922466Y-118776673D01*
X98826334Y-118570519D01*
X98695858Y-118384180D01*
X98535019Y-118223341D01*
X98348680Y-118092865D01*
X98142526Y-117996733D01*
X97946200Y-117944126D01*
X97946200Y-118907314D01*
X97934245Y-118895359D01*
X97821348Y-118837835D01*
X97727681Y-118823000D01*
X97664719Y-118823000D01*
X97571052Y-118837835D01*
X97458155Y-118895359D01*
X97446199Y-118907314D01*
X97446199Y-117944127D01*
X97446199Y-117944126D01*
X97249873Y-117996733D01*
X97043719Y-118092865D01*
X96857380Y-118223341D01*
X96696541Y-118384180D01*
X96566065Y-118570519D01*
X96469933Y-118776673D01*
X96417328Y-118972999D01*
X96417328Y-118973000D01*
X97380514Y-118973000D01*
X97368559Y-118984955D01*
X97311035Y-119097852D01*
X97291214Y-119223000D01*
X97311035Y-119348148D01*
X97368559Y-119461045D01*
X97380514Y-119473000D01*
X96417328Y-119473000D01*
X91355590Y-119473000D01*
X91361835Y-119449692D01*
X91381668Y-119223000D01*
X91361835Y-118996308D01*
X91302939Y-118776504D01*
X91206768Y-118570266D01*
X91076471Y-118384180D01*
X91076246Y-118383859D01*
X90915340Y-118222953D01*
X90728935Y-118092432D01*
X90522697Y-117996261D01*
X90302889Y-117937364D01*
X90076199Y-117917531D01*
X89849510Y-117937364D01*
X89629702Y-117996261D01*
X89423464Y-118092432D01*
X89237059Y-118222953D01*
X89076153Y-118383859D01*
X88945632Y-118570264D01*
X88849461Y-118776502D01*
X88790564Y-118996310D01*
X88770731Y-119222999D01*
X76927590Y-119222999D01*
X74928386Y-117223795D01*
X74894901Y-117162472D01*
X74896293Y-117104018D01*
X74908070Y-117060067D01*
X74927323Y-116840000D01*
X74908070Y-116619934D01*
X74908070Y-116619932D01*
X74896292Y-116575976D01*
X74897955Y-116506128D01*
X74928384Y-116456204D01*
X79808985Y-111575603D01*
X79870306Y-111542120D01*
X79939998Y-111547104D01*
X79995931Y-111588976D01*
X80020348Y-111654440D01*
X80020192Y-111674093D01*
X80012676Y-111759999D01*
X80031929Y-111980065D01*
X80045211Y-112029635D01*
X80089106Y-112193450D01*
X80182466Y-112393662D01*
X80309174Y-112574620D01*
X80465380Y-112730826D01*
X80646338Y-112857534D01*
X80765748Y-112913215D01*
X80775189Y-112917618D01*
X80827628Y-112963790D01*
X80846780Y-113030984D01*
X80826564Y-113097865D01*
X80775189Y-113142382D01*
X80646338Y-113202466D01*
X80465379Y-113329174D01*
X80309174Y-113485379D01*
X80182466Y-113666338D01*
X80089106Y-113866548D01*
X80031929Y-114079934D01*
X80012676Y-114300000D01*
X80031929Y-114520065D01*
X80031982Y-114520264D01*
X80089106Y-114733450D01*
X80182466Y-114933662D01*
X80309174Y-115114620D01*
X80465380Y-115270826D01*
X80646338Y-115397534D01*
X80716173Y-115430098D01*
X80775780Y-115457894D01*
X80828219Y-115504066D01*
X80847371Y-115571260D01*
X80827155Y-115638141D01*
X80775780Y-115682658D01*
X80646589Y-115742900D01*
X80581812Y-115788258D01*
X80581811Y-115788258D01*
X81252554Y-116459000D01*
X81248431Y-116459000D01*
X81154579Y-116474661D01*
X81042749Y-116535180D01*
X80956629Y-116628731D01*
X80905552Y-116745177D01*
X80899894Y-116813446D01*
X80228258Y-116141812D01*
X80182900Y-116206589D01*
X80089578Y-116406719D01*
X80032424Y-116620021D01*
X80013178Y-116840000D01*
X80032424Y-117059978D01*
X80089579Y-117273281D01*
X80182898Y-117473406D01*
X80228258Y-117538187D01*
X80895096Y-116871348D01*
X80895051Y-116871898D01*
X80926266Y-116995162D01*
X80995813Y-117101612D01*
X81096157Y-117179713D01*
X81216422Y-117221000D01*
X81252553Y-117221000D01*
X80581812Y-117891740D01*
X80646593Y-117937101D01*
X80846718Y-118030420D01*
X81060021Y-118087575D01*
X81280000Y-118106821D01*
X81499978Y-118087575D01*
X81713281Y-118030420D01*
X81913408Y-117937100D01*
X81978187Y-117891740D01*
X81307448Y-117221000D01*
X81311569Y-117221000D01*
X81405421Y-117205339D01*
X81517251Y-117144820D01*
X81603371Y-117051269D01*
X81654448Y-116934823D01*
X81660105Y-116866552D01*
X82331740Y-117538186D01*
X82377100Y-117473408D01*
X82470420Y-117273281D01*
X82527575Y-117059978D01*
X82546821Y-116840000D01*
X82527575Y-116620021D01*
X82470421Y-116406720D01*
X82377098Y-116206589D01*
X82331740Y-116141811D01*
X81664903Y-116808648D01*
X81664949Y-116808102D01*
X81633734Y-116684838D01*
X81564187Y-116578388D01*
X81463843Y-116500287D01*
X81343578Y-116459000D01*
X81307447Y-116459000D01*
X81978187Y-115788258D01*
X81913406Y-115742898D01*
X81784219Y-115682658D01*
X81731779Y-115636486D01*
X81712627Y-115569293D01*
X81732843Y-115502411D01*
X81784219Y-115457894D01*
X81784811Y-115457618D01*
X81913662Y-115397534D01*
X82094620Y-115270826D01*
X82192446Y-115173000D01*
X88770731Y-115173000D01*
X88790564Y-115399689D01*
X88849461Y-115619497D01*
X88945632Y-115825735D01*
X89076153Y-116012140D01*
X89237059Y-116173046D01*
X89423464Y-116303567D01*
X89423465Y-116303567D01*
X89423466Y-116303568D01*
X89629704Y-116399739D01*
X89849508Y-116458635D01*
X90000636Y-116471857D01*
X90076199Y-116478468D01*
X90076199Y-116478467D01*
X90076200Y-116478468D01*
X90302892Y-116458635D01*
X90522696Y-116399739D01*
X90728934Y-116303568D01*
X90915339Y-116173047D01*
X91076247Y-116012139D01*
X91206768Y-115825734D01*
X91302939Y-115619496D01*
X91361835Y-115399692D01*
X91381668Y-115173000D01*
X91381668Y-115172999D01*
X96390731Y-115172999D01*
X96410564Y-115399689D01*
X96469461Y-115619497D01*
X96565632Y-115825735D01*
X96696153Y-116012140D01*
X96857059Y-116173046D01*
X97043464Y-116303567D01*
X97043465Y-116303567D01*
X97043466Y-116303568D01*
X97249704Y-116399739D01*
X97469508Y-116458635D01*
X97696200Y-116478468D01*
X97922892Y-116458635D01*
X98142696Y-116399739D01*
X98348934Y-116303568D01*
X98535339Y-116173047D01*
X98696247Y-116012139D01*
X98826768Y-115825734D01*
X98830571Y-115817578D01*
X99545700Y-115817578D01*
X99545701Y-115820872D01*
X99546053Y-115824152D01*
X99546054Y-115824159D01*
X99549707Y-115858141D01*
X99552109Y-115880483D01*
X99602404Y-116015331D01*
X99688654Y-116130546D01*
X99803869Y-116216796D01*
X99938717Y-116267091D01*
X99998327Y-116273500D01*
X101894072Y-116273499D01*
X101953683Y-116267091D01*
X102088531Y-116216796D01*
X102203746Y-116130546D01*
X102289996Y-116015331D01*
X102318655Y-115938491D01*
X102360525Y-115882559D01*
X102425989Y-115858141D01*
X102494262Y-115872992D01*
X102526064Y-115897840D01*
X102534416Y-115906913D01*
X102717574Y-116049470D01*
X102921697Y-116159936D01*
X103031457Y-116197616D01*
X103141215Y-116235297D01*
X103141217Y-116235297D01*
X103141219Y-116235298D01*
X103370151Y-116273500D01*
X103370152Y-116273500D01*
X103602248Y-116273500D01*
X103602249Y-116273500D01*
X103831181Y-116235298D01*
X104050703Y-116159936D01*
X104254826Y-116049470D01*
X104437984Y-115906913D01*
X104595179Y-115736153D01*
X104722124Y-115541849D01*
X104815357Y-115329300D01*
X104872334Y-115104305D01*
X104891500Y-114873000D01*
X104872334Y-114641695D01*
X104815357Y-114416700D01*
X104722124Y-114204151D01*
X104595179Y-114009847D01*
X104437984Y-113839087D01*
X104254826Y-113696530D01*
X104050703Y-113586064D01*
X104050699Y-113586062D01*
X104050698Y-113586062D01*
X103831184Y-113510702D01*
X103640656Y-113478909D01*
X103602249Y-113472500D01*
X103370151Y-113472500D01*
X103331744Y-113478909D01*
X103141215Y-113510702D01*
X102921701Y-113586062D01*
X102717572Y-113696531D01*
X102534413Y-113839089D01*
X102526063Y-113848160D01*
X102466175Y-113884148D01*
X102396337Y-113882046D01*
X102338722Y-113842520D01*
X102318655Y-113807510D01*
X102289996Y-113730669D01*
X102203746Y-113615454D01*
X102088531Y-113529204D01*
X101953683Y-113478909D01*
X101894073Y-113472500D01*
X101890750Y-113472500D01*
X100001639Y-113472500D01*
X100001620Y-113472500D01*
X99998328Y-113472501D01*
X99995048Y-113472853D01*
X99995040Y-113472854D01*
X99938715Y-113478909D01*
X99803869Y-113529204D01*
X99688654Y-113615454D01*
X99602404Y-113730668D01*
X99558583Y-113848160D01*
X99552109Y-113865517D01*
X99545700Y-113925127D01*
X99545700Y-113928448D01*
X99545700Y-113928449D01*
X99545700Y-115817560D01*
X99545700Y-115817578D01*
X98830571Y-115817578D01*
X98922939Y-115619496D01*
X98981835Y-115399692D01*
X99001668Y-115173000D01*
X98981835Y-114946308D01*
X98922939Y-114726504D01*
X98826768Y-114520266D01*
X98826630Y-114520068D01*
X98696246Y-114333859D01*
X98535340Y-114172953D01*
X98348935Y-114042432D01*
X98142697Y-113946261D01*
X97922889Y-113887364D01*
X97696199Y-113867531D01*
X97469510Y-113887364D01*
X97249702Y-113946261D01*
X97043464Y-114042432D01*
X96857059Y-114172953D01*
X96696153Y-114333859D01*
X96565632Y-114520264D01*
X96469461Y-114726502D01*
X96410564Y-114946310D01*
X96390731Y-115172999D01*
X91381668Y-115172999D01*
X91361835Y-114946308D01*
X91302939Y-114726504D01*
X91206768Y-114520266D01*
X91206630Y-114520068D01*
X91076246Y-114333859D01*
X90915340Y-114172953D01*
X90728935Y-114042432D01*
X90522697Y-113946261D01*
X90302889Y-113887364D01*
X90076199Y-113867531D01*
X89849510Y-113887364D01*
X89629702Y-113946261D01*
X89423464Y-114042432D01*
X89237059Y-114172953D01*
X89076153Y-114333859D01*
X88945632Y-114520264D01*
X88849461Y-114726502D01*
X88790564Y-114946310D01*
X88770731Y-115173000D01*
X82192446Y-115173000D01*
X82250826Y-115114620D01*
X82377534Y-114933662D01*
X82470894Y-114733450D01*
X82528070Y-114520068D01*
X82547323Y-114300000D01*
X82528070Y-114079932D01*
X82470894Y-113866550D01*
X82377534Y-113666339D01*
X82250826Y-113485380D01*
X82094620Y-113329174D01*
X81913662Y-113202466D01*
X81784811Y-113142382D01*
X81732372Y-113096210D01*
X81713220Y-113029016D01*
X81733436Y-112962135D01*
X81784811Y-112917618D01*
X81790027Y-112915185D01*
X81913662Y-112857534D01*
X82094620Y-112730826D01*
X82250826Y-112574620D01*
X82377534Y-112393662D01*
X82470894Y-112193450D01*
X82528070Y-111980068D01*
X82547323Y-111760000D01*
X82528070Y-111539932D01*
X82470894Y-111326550D01*
X82377534Y-111126339D01*
X82250826Y-110945380D01*
X82094620Y-110789174D01*
X81913662Y-110662466D01*
X81784811Y-110602382D01*
X81732372Y-110556210D01*
X81713220Y-110489016D01*
X81733436Y-110422135D01*
X81784811Y-110377618D01*
X81790027Y-110375185D01*
X81913662Y-110317534D01*
X82094620Y-110190826D01*
X82250826Y-110034620D01*
X82377534Y-109853662D01*
X82470894Y-109653450D01*
X82528070Y-109440068D01*
X82547323Y-109220000D01*
X82528070Y-108999932D01*
X82470894Y-108786550D01*
X82377534Y-108586339D01*
X82250826Y-108405380D01*
X82094620Y-108249174D01*
X82030105Y-108204000D01*
X93275921Y-108204000D01*
X93295746Y-108430602D01*
X93354621Y-108650326D01*
X93450754Y-108856484D01*
X93501860Y-108929471D01*
X93501862Y-108929472D01*
X94182934Y-108248399D01*
X94195723Y-108329148D01*
X94253247Y-108442045D01*
X94342843Y-108531641D01*
X94455740Y-108589165D01*
X94536485Y-108601953D01*
X93855414Y-109283025D01*
X93855414Y-109283026D01*
X93928403Y-109334133D01*
X94134561Y-109430266D01*
X94354285Y-109489141D01*
X94580887Y-109508966D01*
X94807490Y-109489141D01*
X95027214Y-109430266D01*
X95233369Y-109334134D01*
X95246143Y-109325190D01*
X95312349Y-109302862D01*
X95380116Y-109319871D01*
X95416534Y-109352452D01*
X95423342Y-109361546D01*
X95538557Y-109447796D01*
X95673405Y-109498091D01*
X95733015Y-109504500D01*
X97428760Y-109504499D01*
X97488371Y-109498091D01*
X97623219Y-109447796D01*
X97738434Y-109361546D01*
X97824684Y-109246331D01*
X97874979Y-109111483D01*
X97881388Y-109051873D01*
X97881387Y-107356128D01*
X97874979Y-107296517D01*
X97824684Y-107161669D01*
X97738434Y-107046454D01*
X97623219Y-106960204D01*
X97488371Y-106909909D01*
X97428761Y-106903500D01*
X97425438Y-106903500D01*
X95736327Y-106903500D01*
X95736308Y-106903500D01*
X95733016Y-106903501D01*
X95729736Y-106903853D01*
X95729728Y-106903854D01*
X95673403Y-106909909D01*
X95538557Y-106960204D01*
X95423339Y-107046455D01*
X95416533Y-107055548D01*
X95360599Y-107097418D01*
X95290907Y-107102401D01*
X95246146Y-107082811D01*
X95233371Y-107073866D01*
X95027214Y-106977733D01*
X94807490Y-106918858D01*
X94580887Y-106899033D01*
X94354285Y-106918858D01*
X94134560Y-106977733D01*
X93928404Y-107073865D01*
X93855414Y-107124973D01*
X94536487Y-107806046D01*
X94455740Y-107818835D01*
X94342843Y-107876359D01*
X94253247Y-107965955D01*
X94195723Y-108078852D01*
X94182934Y-108159599D01*
X93501861Y-107478526D01*
X93501861Y-107478527D01*
X93450753Y-107551516D01*
X93354621Y-107757672D01*
X93295746Y-107977397D01*
X93275921Y-108204000D01*
X82030105Y-108204000D01*
X81913662Y-108122466D01*
X81900478Y-108116318D01*
X81713451Y-108029106D01*
X81500065Y-107971929D01*
X81280000Y-107952676D01*
X81059934Y-107971929D01*
X80846548Y-108029106D01*
X80646338Y-108122466D01*
X80465379Y-108249174D01*
X80309174Y-108405379D01*
X80182466Y-108586338D01*
X80089106Y-108786548D01*
X80031929Y-108999934D01*
X80012676Y-109219999D01*
X80031929Y-109440064D01*
X80031929Y-109440067D01*
X80031930Y-109440068D01*
X80036832Y-109458364D01*
X80043707Y-109484019D01*
X80042044Y-109553869D01*
X80011613Y-109603794D01*
X75131017Y-114484390D01*
X75069694Y-114517875D01*
X75000002Y-114512891D01*
X74944069Y-114471019D01*
X74919652Y-114405555D01*
X74919808Y-114385902D01*
X74927323Y-114299999D01*
X74908070Y-114079934D01*
X74908070Y-114079932D01*
X74850894Y-113866550D01*
X74757534Y-113666339D01*
X74630826Y-113485380D01*
X74474620Y-113329174D01*
X74293662Y-113202466D01*
X74164811Y-113142382D01*
X74112372Y-113096210D01*
X74093220Y-113029016D01*
X74113436Y-112962135D01*
X74164811Y-112917618D01*
X74170027Y-112915185D01*
X74293662Y-112857534D01*
X74474620Y-112730826D01*
X74630826Y-112574620D01*
X74757534Y-112393662D01*
X74850894Y-112193450D01*
X74908070Y-111980068D01*
X74927323Y-111760000D01*
X74908070Y-111539932D01*
X74850894Y-111326550D01*
X74757534Y-111126339D01*
X74630826Y-110945380D01*
X74474620Y-110789174D01*
X74293662Y-110662466D01*
X74164811Y-110602382D01*
X74112372Y-110556210D01*
X74093220Y-110489016D01*
X74113436Y-110422135D01*
X74164811Y-110377618D01*
X74170027Y-110375185D01*
X74293662Y-110317534D01*
X74474620Y-110190826D01*
X74630826Y-110034620D01*
X74757534Y-109853662D01*
X74850894Y-109653450D01*
X74908070Y-109440068D01*
X74927323Y-109220000D01*
X74908070Y-108999932D01*
X74850894Y-108786550D01*
X74757534Y-108586339D01*
X74630826Y-108405380D01*
X74474620Y-108249174D01*
X74293662Y-108122466D01*
X74280478Y-108116318D01*
X74093451Y-108029106D01*
X73880065Y-107971929D01*
X73659999Y-107952676D01*
X73439934Y-107971929D01*
X73226548Y-108029106D01*
X73026338Y-108122466D01*
X72845379Y-108249174D01*
X72689174Y-108405379D01*
X72562466Y-108586338D01*
X72469106Y-108786548D01*
X72411929Y-108999934D01*
X72392676Y-109220000D01*
X72411929Y-109440065D01*
X72455800Y-109603794D01*
X72469106Y-109653450D01*
X72562466Y-109853662D01*
X72689174Y-110034620D01*
X72845380Y-110190826D01*
X73026338Y-110317534D01*
X73145748Y-110373215D01*
X73155189Y-110377618D01*
X73207628Y-110423790D01*
X73226780Y-110490984D01*
X73206564Y-110557865D01*
X73155189Y-110602382D01*
X73026338Y-110662466D01*
X72845379Y-110789174D01*
X72689174Y-110945379D01*
X72562466Y-111126338D01*
X72469106Y-111326548D01*
X72411929Y-111539934D01*
X72392676Y-111760000D01*
X72411929Y-111980065D01*
X72425211Y-112029635D01*
X72469106Y-112193450D01*
X72562466Y-112393662D01*
X72689174Y-112574620D01*
X72845380Y-112730826D01*
X73026338Y-112857534D01*
X73145748Y-112913215D01*
X73155189Y-112917618D01*
X73207628Y-112963790D01*
X73226780Y-113030984D01*
X73206564Y-113097865D01*
X73155189Y-113142382D01*
X73026338Y-113202466D01*
X72845379Y-113329174D01*
X72689174Y-113485379D01*
X72562466Y-113666338D01*
X72469106Y-113866548D01*
X72411929Y-114079934D01*
X72392676Y-114299999D01*
X72411929Y-114520065D01*
X72411982Y-114520264D01*
X72469106Y-114733450D01*
X72562466Y-114933662D01*
X72689174Y-115114620D01*
X72845380Y-115270826D01*
X73026338Y-115397534D01*
X73145748Y-115453215D01*
X73155189Y-115457618D01*
X73207628Y-115503790D01*
X73226780Y-115570984D01*
X73206564Y-115637865D01*
X73155189Y-115682382D01*
X73026338Y-115742466D01*
X72845379Y-115869174D01*
X72689174Y-116025379D01*
X72562466Y-116206338D01*
X72469106Y-116406548D01*
X72411929Y-116619934D01*
X72392676Y-116840000D01*
X70104708Y-116840000D01*
X65060319Y-111795611D01*
X65026834Y-111734288D01*
X65024000Y-111707930D01*
X65024000Y-110743999D01*
X68290531Y-110743999D01*
X68310364Y-110970689D01*
X68369261Y-111190497D01*
X68465432Y-111396735D01*
X68595953Y-111583140D01*
X68756859Y-111744046D01*
X68943264Y-111874567D01*
X68943265Y-111874567D01*
X68943266Y-111874568D01*
X69149504Y-111970739D01*
X69369308Y-112029635D01*
X69596000Y-112049468D01*
X69822692Y-112029635D01*
X70042496Y-111970739D01*
X70248734Y-111874568D01*
X70435139Y-111744047D01*
X70596047Y-111583139D01*
X70726568Y-111396734D01*
X70822739Y-111190496D01*
X70881635Y-110970692D01*
X70901468Y-110744000D01*
X70881635Y-110517308D01*
X70822739Y-110297504D01*
X70726568Y-110091266D01*
X70686905Y-110034620D01*
X70596046Y-109904859D01*
X70435140Y-109743953D01*
X70248735Y-109613432D01*
X70042497Y-109517261D01*
X69822689Y-109458364D01*
X69596000Y-109438531D01*
X69369310Y-109458364D01*
X69149502Y-109517261D01*
X68943264Y-109613432D01*
X68756859Y-109743953D01*
X68595953Y-109904859D01*
X68465432Y-110091264D01*
X68369261Y-110297502D01*
X68310364Y-110517310D01*
X68290531Y-110743999D01*
X65024000Y-110743999D01*
X65024000Y-103123999D01*
X68290531Y-103123999D01*
X68310364Y-103350689D01*
X68369261Y-103570497D01*
X68465432Y-103776735D01*
X68595953Y-103963140D01*
X68756859Y-104124046D01*
X68943264Y-104254567D01*
X68943265Y-104254567D01*
X68943266Y-104254568D01*
X69149504Y-104350739D01*
X69369308Y-104409635D01*
X69596000Y-104429468D01*
X69822692Y-104409635D01*
X70042496Y-104350739D01*
X70248734Y-104254568D01*
X70435139Y-104124047D01*
X70596047Y-103963139D01*
X70726568Y-103776734D01*
X70822739Y-103570496D01*
X70881635Y-103350692D01*
X70901468Y-103124000D01*
X70881635Y-102897308D01*
X70822739Y-102677504D01*
X70726568Y-102471266D01*
X70596047Y-102284861D01*
X70596046Y-102284859D01*
X70435140Y-102123953D01*
X70248735Y-101993432D01*
X70042497Y-101897261D01*
X69822689Y-101838364D01*
X69596000Y-101818531D01*
X69369310Y-101838364D01*
X69149502Y-101897261D01*
X68943264Y-101993432D01*
X68756859Y-102123953D01*
X68595953Y-102284859D01*
X68465432Y-102471264D01*
X68369261Y-102677502D01*
X68310364Y-102897310D01*
X68290531Y-103123999D01*
X65024000Y-103123999D01*
X65024000Y-97972578D01*
X99940500Y-97972578D01*
X99940501Y-97975872D01*
X99946909Y-98035483D01*
X99997204Y-98170331D01*
X100083454Y-98285546D01*
X100198669Y-98371796D01*
X100333517Y-98422091D01*
X100393127Y-98428500D01*
X102288872Y-98428499D01*
X102348483Y-98422091D01*
X102483331Y-98371796D01*
X102598546Y-98285546D01*
X102684796Y-98170331D01*
X102713455Y-98093491D01*
X102755325Y-98037559D01*
X102820789Y-98013141D01*
X102889062Y-98027992D01*
X102920864Y-98052840D01*
X102929216Y-98061913D01*
X103112374Y-98204470D01*
X103316497Y-98314936D01*
X103426258Y-98352616D01*
X103536015Y-98390297D01*
X103536017Y-98390297D01*
X103536019Y-98390298D01*
X103764951Y-98428500D01*
X103764952Y-98428500D01*
X103997048Y-98428500D01*
X103997049Y-98428500D01*
X104225981Y-98390298D01*
X104445503Y-98314936D01*
X104649626Y-98204470D01*
X104832784Y-98061913D01*
X104989979Y-97891153D01*
X105116924Y-97696849D01*
X105210157Y-97484300D01*
X105267134Y-97259305D01*
X105286300Y-97028000D01*
X105267134Y-96796695D01*
X105210157Y-96571700D01*
X105116924Y-96359151D01*
X104989979Y-96164847D01*
X104832784Y-95994087D01*
X104649626Y-95851530D01*
X104445503Y-95741064D01*
X104445499Y-95741062D01*
X104445498Y-95741062D01*
X104225984Y-95665702D01*
X104035456Y-95633909D01*
X103997049Y-95627500D01*
X103764951Y-95627500D01*
X103726544Y-95633909D01*
X103536015Y-95665702D01*
X103316501Y-95741062D01*
X103112372Y-95851531D01*
X102929213Y-95994089D01*
X102920863Y-96003160D01*
X102860975Y-96039148D01*
X102791137Y-96037046D01*
X102733522Y-95997520D01*
X102713455Y-95962510D01*
X102684796Y-95885669D01*
X102598546Y-95770454D01*
X102483331Y-95684204D01*
X102348483Y-95633909D01*
X102288873Y-95627500D01*
X102285550Y-95627500D01*
X100396439Y-95627500D01*
X100396420Y-95627500D01*
X100393128Y-95627501D01*
X100389848Y-95627853D01*
X100389840Y-95627854D01*
X100333515Y-95633909D01*
X100198669Y-95684204D01*
X100083454Y-95770454D01*
X99997204Y-95885668D01*
X99953383Y-96003160D01*
X99946909Y-96020517D01*
X99940500Y-96080127D01*
X99940500Y-96083448D01*
X99940500Y-96083449D01*
X99940500Y-97972560D01*
X99940500Y-97972578D01*
X65024000Y-97972578D01*
X65024000Y-96520000D01*
X71084531Y-96520000D01*
X71104364Y-96746689D01*
X71163261Y-96966497D01*
X71259432Y-97172735D01*
X71389953Y-97359140D01*
X71550859Y-97520046D01*
X71737264Y-97650567D01*
X71737265Y-97650567D01*
X71737266Y-97650568D01*
X71943504Y-97746739D01*
X72163308Y-97805635D01*
X72314436Y-97818857D01*
X72389999Y-97825468D01*
X72389999Y-97825467D01*
X72390000Y-97825468D01*
X72616692Y-97805635D01*
X72836496Y-97746739D01*
X73042734Y-97650568D01*
X73229139Y-97520047D01*
X73390047Y-97359139D01*
X73520568Y-97172734D01*
X73616739Y-96966496D01*
X73675635Y-96746692D01*
X73695468Y-96520000D01*
X78704531Y-96520000D01*
X78724364Y-96746689D01*
X78783261Y-96966497D01*
X78879432Y-97172735D01*
X79009953Y-97359140D01*
X79170859Y-97520046D01*
X79357264Y-97650567D01*
X79357265Y-97650567D01*
X79357266Y-97650568D01*
X79563504Y-97746739D01*
X79783308Y-97805635D01*
X80010000Y-97825468D01*
X80236692Y-97805635D01*
X80456496Y-97746739D01*
X80662734Y-97650568D01*
X80849139Y-97520047D01*
X81004608Y-97364578D01*
X82519500Y-97364578D01*
X82519501Y-97367872D01*
X82519853Y-97371152D01*
X82519854Y-97371159D01*
X82525909Y-97427483D01*
X82576204Y-97562331D01*
X82662454Y-97677546D01*
X82777669Y-97763796D01*
X82912517Y-97814091D01*
X82972127Y-97820500D01*
X84667872Y-97820499D01*
X84727483Y-97814091D01*
X84862331Y-97763796D01*
X84977546Y-97677546D01*
X85063796Y-97562331D01*
X85114091Y-97427483D01*
X85120500Y-97367873D01*
X85120499Y-97364525D01*
X85120549Y-97363612D01*
X85143791Y-97297721D01*
X85198966Y-97254855D01*
X85237115Y-97249330D01*
X85922046Y-96564399D01*
X85934835Y-96645148D01*
X85992359Y-96758045D01*
X86081955Y-96847641D01*
X86194852Y-96905165D01*
X86275599Y-96917953D01*
X85594526Y-97599025D01*
X85594526Y-97599026D01*
X85667515Y-97650133D01*
X85873673Y-97746266D01*
X86093397Y-97805141D01*
X86320000Y-97824966D01*
X86546602Y-97805141D01*
X86766326Y-97746266D01*
X86972480Y-97650134D01*
X87045472Y-97599025D01*
X86364401Y-96917953D01*
X86445148Y-96905165D01*
X86558045Y-96847641D01*
X86647641Y-96758045D01*
X86705165Y-96645148D01*
X86717953Y-96564400D01*
X87399025Y-97245472D01*
X87450134Y-97172480D01*
X87546266Y-96966326D01*
X87605141Y-96746602D01*
X87624966Y-96520000D01*
X88865033Y-96520000D01*
X88884858Y-96746602D01*
X88943733Y-96966326D01*
X89039866Y-97172484D01*
X89090972Y-97245471D01*
X89090974Y-97245472D01*
X89772046Y-96564399D01*
X89784835Y-96645148D01*
X89842359Y-96758045D01*
X89931955Y-96847641D01*
X90044852Y-96905165D01*
X90125599Y-96917953D01*
X89444526Y-97599025D01*
X89444526Y-97599026D01*
X89517515Y-97650133D01*
X89723673Y-97746266D01*
X89943397Y-97805141D01*
X90169999Y-97824966D01*
X90396602Y-97805141D01*
X90616326Y-97746266D01*
X90822480Y-97650134D01*
X90895472Y-97599025D01*
X90214401Y-96917953D01*
X90295148Y-96905165D01*
X90408045Y-96847641D01*
X90497641Y-96758045D01*
X90555165Y-96645148D01*
X90567953Y-96564400D01*
X91249025Y-97245472D01*
X91300134Y-97172480D01*
X91396266Y-96966326D01*
X91455141Y-96746602D01*
X91474966Y-96520000D01*
X91474966Y-96519999D01*
X96484531Y-96519999D01*
X96504364Y-96746689D01*
X96563261Y-96966497D01*
X96659432Y-97172735D01*
X96789953Y-97359140D01*
X96950859Y-97520046D01*
X97137264Y-97650567D01*
X97137265Y-97650567D01*
X97137266Y-97650568D01*
X97343504Y-97746739D01*
X97563308Y-97805635D01*
X97790000Y-97825468D01*
X98016692Y-97805635D01*
X98236496Y-97746739D01*
X98442734Y-97650568D01*
X98629139Y-97520047D01*
X98790047Y-97359139D01*
X98920568Y-97172734D01*
X99016739Y-96966496D01*
X99075635Y-96746692D01*
X99095468Y-96520000D01*
X99075635Y-96293308D01*
X99016739Y-96073504D01*
X98920568Y-95867266D01*
X98909551Y-95851531D01*
X98790046Y-95680859D01*
X98629140Y-95519953D01*
X98442735Y-95389432D01*
X98236497Y-95293261D01*
X98016689Y-95234364D01*
X97790000Y-95214531D01*
X97563310Y-95234364D01*
X97343502Y-95293261D01*
X97137264Y-95389432D01*
X96950859Y-95519953D01*
X96789953Y-95680859D01*
X96659432Y-95867264D01*
X96563261Y-96073502D01*
X96504364Y-96293310D01*
X96484531Y-96519999D01*
X91474966Y-96519999D01*
X91455141Y-96293397D01*
X91396266Y-96073673D01*
X91300133Y-95867515D01*
X91249025Y-95794526D01*
X90567953Y-96475598D01*
X90555165Y-96394852D01*
X90497641Y-96281955D01*
X90408045Y-96192359D01*
X90295148Y-96134835D01*
X90214400Y-96122046D01*
X90895472Y-95440974D01*
X90895471Y-95440972D01*
X90822484Y-95389866D01*
X90616326Y-95293733D01*
X90396602Y-95234858D01*
X90169999Y-95215033D01*
X89943397Y-95234858D01*
X89723672Y-95293733D01*
X89517516Y-95389865D01*
X89444527Y-95440973D01*
X89444526Y-95440973D01*
X90125600Y-96122046D01*
X90044852Y-96134835D01*
X89931955Y-96192359D01*
X89842359Y-96281955D01*
X89784835Y-96394852D01*
X89772046Y-96475599D01*
X89090973Y-95794526D01*
X89090973Y-95794527D01*
X89039865Y-95867516D01*
X88943733Y-96073672D01*
X88884858Y-96293397D01*
X88865033Y-96520000D01*
X87624966Y-96520000D01*
X87605141Y-96293397D01*
X87546266Y-96073673D01*
X87450133Y-95867515D01*
X87399025Y-95794526D01*
X86717953Y-96475598D01*
X86705165Y-96394852D01*
X86647641Y-96281955D01*
X86558045Y-96192359D01*
X86445148Y-96134835D01*
X86364400Y-96122046D01*
X87045472Y-95440974D01*
X87045471Y-95440972D01*
X86972484Y-95389866D01*
X86766326Y-95293733D01*
X86546602Y-95234858D01*
X86320000Y-95215033D01*
X86093397Y-95234858D01*
X85873672Y-95293733D01*
X85667516Y-95389865D01*
X85594527Y-95440973D01*
X85594526Y-95440973D01*
X86275600Y-96122046D01*
X86194852Y-96134835D01*
X86081955Y-96192359D01*
X85992359Y-96281955D01*
X85934835Y-96394852D01*
X85922046Y-96475599D01*
X85235844Y-95789397D01*
X85186676Y-95779515D01*
X85136494Y-95730899D01*
X85120548Y-95676379D01*
X85120499Y-95675462D01*
X85120499Y-95672128D01*
X85114091Y-95612517D01*
X85063796Y-95477669D01*
X84977546Y-95362454D01*
X84862331Y-95276204D01*
X84727483Y-95225909D01*
X84667873Y-95219500D01*
X84664550Y-95219500D01*
X82975439Y-95219500D01*
X82975420Y-95219500D01*
X82972128Y-95219501D01*
X82968848Y-95219853D01*
X82968840Y-95219854D01*
X82912515Y-95225909D01*
X82777669Y-95276204D01*
X82662454Y-95362454D01*
X82576204Y-95477668D01*
X82525910Y-95612515D01*
X82525909Y-95612517D01*
X82519500Y-95672127D01*
X82519500Y-95675448D01*
X82519500Y-95675449D01*
X82519500Y-97364560D01*
X82519500Y-97364578D01*
X81004608Y-97364578D01*
X81010047Y-97359139D01*
X81140568Y-97172734D01*
X81236739Y-96966496D01*
X81295635Y-96746692D01*
X81315468Y-96520000D01*
X81295635Y-96293308D01*
X81236739Y-96073504D01*
X81140568Y-95867266D01*
X81129551Y-95851531D01*
X81010046Y-95680859D01*
X80849140Y-95519953D01*
X80662735Y-95389432D01*
X80456497Y-95293261D01*
X80236689Y-95234364D01*
X80010000Y-95214531D01*
X79783310Y-95234364D01*
X79563502Y-95293261D01*
X79357264Y-95389432D01*
X79170859Y-95519953D01*
X79009953Y-95680859D01*
X78879432Y-95867264D01*
X78783261Y-96073502D01*
X78724364Y-96293310D01*
X78704531Y-96520000D01*
X73695468Y-96520000D01*
X73675635Y-96293308D01*
X73616739Y-96073504D01*
X73520568Y-95867266D01*
X73509551Y-95851531D01*
X73390046Y-95680859D01*
X73229140Y-95519953D01*
X73042735Y-95389432D01*
X72836497Y-95293261D01*
X72616689Y-95234364D01*
X72390000Y-95214531D01*
X72163310Y-95234364D01*
X71943502Y-95293261D01*
X71737264Y-95389432D01*
X71550859Y-95519953D01*
X71389953Y-95680859D01*
X71259432Y-95867264D01*
X71163261Y-96073502D01*
X71104364Y-96293310D01*
X71084531Y-96520000D01*
X65024000Y-96520000D01*
X65024000Y-90548000D01*
X65043685Y-90480961D01*
X65096489Y-90435206D01*
X65148000Y-90424000D01*
X105540000Y-90424000D01*
X105607039Y-90443685D01*
G37*
%TD.AperFunction*%
%TD*%
M02*
